<svg width="28" height="26" viewBox="0 0 28 26" fill="none" xmlns="http://www.w3.org/2000/svg">
<path d="M21.7937 8.28903C20.7411 8.27679 19.6888 8.32464 18.6417 8.43234C18.6066 8.43323 18.5719 8.43763 18.5382 8.44533C18.4771 8.4211 18.4115 8.40831 18.3446 8.40831C18.2055 8.40831 18.0721 8.46358 17.9737 8.56192L18.1337 8.72192L17.9737 8.56193C17.8754 8.66026 17.8201 8.79365 17.8201 8.9328V8.93375C17.8201 9.8465 17.82 10.7595 17.7481 11.661C17.7096 11.7351 17.689 11.818 17.689 11.9029H17.6888L17.6892 11.9115C17.6943 12.0466 17.7502 12.1749 17.8459 12.2705C17.9415 12.3662 18.0698 12.4222 18.2049 12.4273C18.2169 12.4277 18.2289 12.4272 18.2408 12.4258C19.4173 12.2825 20.6025 12.2233 21.7873 12.2484L21.7873 12.2485H21.7922C21.9076 12.2485 22.012 12.215 22.0969 12.1533C22.2627 12.0791 22.3941 11.9169 22.3884 11.6854V8.82553C22.3884 8.68638 22.333 8.55299 22.2347 8.45466L22.0747 8.61466L22.2347 8.45466C22.1484 8.36833 22.0351 8.31519 21.9145 8.30349C21.8753 8.29407 21.8347 8.28915 21.7937 8.28903ZM21.7937 8.28903C21.7941 8.28904 21.7945 8.28904 21.7949 8.28905L21.7922 8.5153V8.28903C21.7927 8.28903 21.7932 8.28903 21.7937 8.28903ZM18.6409 8.52274L18.6549 8.65845L18.5193 8.69108L18.6409 8.52274ZM18.6409 8.52274L18.6518 8.50768C18.6474 8.50448 18.6429 8.50136 18.6384 8.49831L18.6409 8.52274ZM5.4619 11.8053H5.46189V11.8076C5.46189 11.9467 5.51712 12.0801 5.6155 12.1785C5.71387 12.2768 5.84729 12.3321 5.98638 12.3321H8.73001C8.86911 12.3321 9.00253 12.2768 9.1009 12.1785C9.19928 12.0801 9.25451 11.9467 9.25451 11.8076C9.25451 11.8012 9.25439 11.7948 9.25416 11.7884C9.25433 11.7829 9.25442 11.7774 9.25442 11.7719V11.7649C9.25442 10.8531 9.25442 9.91191 9.13401 8.98092C9.12303 8.8521 9.06687 8.73123 8.97537 8.63972C8.88212 8.54647 8.75839 8.48995 8.62685 8.48052C8.62146 8.48013 8.61607 8.47994 8.61067 8.47994C8.55745 8.47994 8.50606 8.4888 8.45833 8.50374H6.39182C6.32333 8.50374 6.25623 8.51714 6.19401 8.54247C6.15371 8.53265 6.11206 8.52757 6.06989 8.52757C5.9308 8.52757 5.79737 8.58282 5.699 8.68119C5.60062 8.77957 5.5454 8.91299 5.5454 9.05207C5.5454 9.05865 5.54568 9.06523 5.54626 9.07179C5.62193 9.93657 5.59903 10.8071 5.47801 11.6667C5.46668 11.7113 5.46136 11.7569 5.46193 11.8023L5.4619 11.8053ZM8.20198 11.2831H6.57394C6.63017 10.7082 6.64709 10.13 6.62455 9.55273H8.12979C8.17069 10.1282 8.19378 10.7069 8.20198 11.2831ZM11.8575 8.70016C11.8209 8.81602 11.8226 8.94935 11.8687 9.06952C11.8291 9.14438 11.8079 9.2284 11.8079 9.3146C11.8079 9.31701 11.8079 9.31942 11.808 9.32183C11.8081 9.3256 11.8083 9.32937 11.8087 9.33313C11.8726 10.1112 11.8531 10.8939 11.7506 11.6679C11.7309 11.7947 11.7585 11.9244 11.8282 12.0323C11.8985 12.1413 12.0067 12.2204 12.1318 12.2543C12.257 12.2882 12.3902 12.2745 12.5059 12.2159C12.508 12.2149 12.51 12.2138 12.512 12.2128H15.1238C15.2629 12.2128 15.3963 12.1575 15.4947 12.0591C15.5617 11.9921 15.6087 11.9088 15.6319 11.8185C15.6611 11.7505 15.6745 11.6757 15.672 11.5976L15.6719 11.595L15.5528 8.81979C15.5507 8.59682 15.4225 8.43737 15.2589 8.3629C15.1245 8.30173 14.9641 8.29584 14.8243 8.34847H12.3444C12.0889 8.34847 11.9181 8.50876 11.8575 8.70016ZM21.3394 9.33647V11.194C20.4981 11.1912 19.6572 11.2303 18.8199 11.311C18.8572 10.6959 18.8781 10.0769 18.8763 9.46024C19.6951 9.38178 20.517 9.34048 21.3394 9.33647ZM18.3855 20.5175L18.3862 20.5171C18.4374 20.4781 18.479 20.433 18.5113 20.3841H26.6831C26.8222 20.3841 26.9556 20.3288 27.054 20.2305C27.1524 20.132 27.2076 19.9986 27.2076 19.8596C27.2076 19.7798 27.1894 19.7018 27.1553 19.6312C27.1584 19.6082 27.16 19.5849 27.16 19.5614V1.28629C27.16 1.03197 26.9982 0.864829 26.8124 0.802907C26.6695 0.755288 26.4966 0.763985 26.3551 0.845365L2.26473 0.845365C2.17549 0.845365 2.08859 0.868109 2.0118 0.910378C1.92344 0.935836 1.83601 0.985213 1.76848 1.06502C1.68763 1.16057 1.64893 1.28391 1.65713 1.41924L1.65713 1.41924L1.65718 1.42003C2.03803 7.3608 1.84729 13.3243 1.08766 19.2283C1.01548 19.2567 0.952531 19.3009 0.901941 19.3582C0.81279 19.4592 0.773729 19.5871 0.773729 19.7074C0.773729 19.9485 0.939039 20.2195 1.27218 20.2404L1.27322 20.2404L9.24592 20.7018C10.3275 22.2235 11.5012 23.6778 12.7605 25.0564C12.8529 25.1611 12.9721 25.2196 13.1001 25.2257C13.1986 25.2304 13.2899 25.2036 13.3666 25.1607C13.4724 25.1412 13.5698 25.0844 13.648 24.995L13.648 24.995L13.6503 24.9923C15.0584 23.3302 16.6465 21.8294 18.3855 20.5175ZM12.8523 11.1638C12.902 10.5765 12.9059 9.98594 12.8638 9.39746H14.5282L14.604 11.1638H12.8523ZM9.822 19.7058C9.69365 19.5213 9.49617 19.4615 9.32026 19.4859C9.20436 19.502 9.09069 19.5552 9.00339 19.6373L2.11542 19.2394C2.86002 13.4893 3.06756 7.68254 2.73547 1.89435H26.111V19.3351L17.987 19.3351C17.8478 19.3351 17.7144 19.3904 17.6161 19.4887C17.5177 19.5871 17.4625 19.7205 17.4625 19.8596C17.4625 19.8842 17.4642 19.9086 17.4676 19.9327C15.9187 21.1224 14.4887 22.4593 13.1976 23.9247C11.9907 22.586 10.8635 21.1773 9.822 19.7058Z" fill="#272727" stroke="#272727" stroke-width="0.452541" stroke-linejoin="round"/>
</svg>
