<svg width="22" height="24" viewBox="0 0 22 24" fill="none" xmlns="http://www.w3.org/2000/svg">
<path d="M4.47965 8.75562C4.43206 8.81001 4.37656 8.83331 4.32198 8.8341L4.52246 8.84394C4.5197 8.90012 4.51701 8.95628 4.51438 9.01242M4.47965 8.75562L10.3953 21.8883C8.51418 19.6246 6.52028 17.4568 4.42113 15.3931C4.37809 15.3608 4.32569 15.3438 4.27216 15.3444M4.47965 8.75562C6.55307 6.36666 8.78638 4.12178 11.164 2.03644L4.47965 8.75562ZM4.51438 9.01242C4.44309 9.04959 4.36469 9.06527 4.2857 9.05908C4.18844 11.1731 4.18392 13.2539 4.27216 15.3444M4.51438 9.01242C4.56368 8.98672 4.60958 8.95075 4.64994 8.90462L4.65054 8.90393C6.67028 6.57681 8.84224 4.38686 11.1519 2.34845L10.4083 21.5506C8.56973 19.3508 6.62455 17.242 4.57976 15.2318C4.57259 15.2247 4.56495 15.2181 4.5569 15.2121C4.53614 15.1965 4.51426 15.1828 4.4915 15.171M4.51438 9.01242C4.41745 11.0842 4.40982 13.1235 4.4915 15.171M4.27216 15.3444L4.26958 15.1181C4.347 15.1173 4.42321 15.1355 4.4915 15.171M4.27216 15.3444L4.46373 15.3363L4.47755 15.3357L4.49823 15.3349C4.49795 15.3284 4.49768 15.322 4.49741 15.3155C4.49709 15.3079 4.49678 15.3003 4.49646 15.2927C4.49477 15.2521 4.49312 15.2115 4.4915 15.171M4.50768 16.906C4.62036 16.9017 4.72763 16.8579 4.81093 16.7827C6.7882 18.7832 8.6681 20.8779 10.444 23.0597C10.5534 23.1958 10.7099 23.2499 10.8631 23.2169C10.9845 23.1907 11.0839 23.1146 11.1495 23.0236C11.2377 22.9452 11.2956 22.8326 11.3041 22.6978L11.3041 22.6978L11.3044 22.6921L12.0939 1.5095C12.1625 1.4079 12.1819 1.28933 12.1549 1.17639C12.1257 1.0537 12.0464 0.953651 11.952 0.88904C11.8304 0.781031 11.6657 0.753711 11.5259 0.787394C11.3933 0.819323 11.2679 0.909533 11.2049 1.05457C8.63398 3.2688 6.22479 5.66426 3.99584 8.2226C3.93999 8.23025 3.88388 8.24727 3.83176 8.27482C3.77898 8.25524 3.72059 8.24521 3.65799 8.24668H1.62395C1.49929 8.24668 1.37979 8.29621 1.29168 8.38432C1.26449 8.41151 1.24097 8.44169 1.22145 8.47409C1.13357 8.55211 1.0751 8.66449 1.06661 8.80019L1.06656 8.80018L1.06636 8.80513L0.773915 16.0176L0.773729 16.0176V16.0268C0.773729 16.1225 0.799721 16.2115 0.849773 16.2862C0.872383 16.3288 0.901346 16.3682 0.935996 16.4028C1.01803 16.4849 1.12649 16.535 1.24196 16.5445L4.47408 16.9047C4.48523 16.906 4.49647 16.9064 4.50768 16.906ZM15.9038 19.8581L15.9054 19.8575C17.3202 19.3894 18.559 18.5017 19.4572 17.3125C20.3553 16.1234 20.8703 14.689 20.9337 13.2001L20.9337 13.1984C20.9902 11.5749 20.5459 9.97331 19.661 8.61098C18.7761 7.24865 17.4935 6.19154 15.9873 5.58308L15.9874 5.58289L15.9782 5.57964C15.8442 5.53206 15.7077 5.5435 15.5946 5.61264C15.4877 5.67805 15.4225 5.78207 15.3936 5.88512C15.3365 6.08797 15.4058 6.3696 15.6882 6.47316C15.7035 6.47876 15.7193 6.48269 15.7354 6.48489C17.0381 7.03155 18.1448 7.96049 18.909 9.14948C19.6801 10.3491 20.0656 11.756 20.0137 13.1811C19.9525 14.4734 19.5017 15.717 18.7206 16.7484C17.94 17.7791 16.8661 18.5497 15.6397 18.959C15.5043 18.9997 15.4053 19.0894 15.3524 19.2032C15.3012 19.3129 15.298 19.4331 15.3258 19.5368C15.3535 19.6403 15.417 19.7447 15.5208 19.8125C15.6308 19.8843 15.7669 19.9022 15.9038 19.8581ZM14.8415 10.5477C14.7526 10.6988 14.731 10.9292 14.8709 11.1054C14.8845 11.1279 14.9024 11.1483 14.9242 11.1656C15.1574 11.3494 15.3418 11.5879 15.4612 11.8598C15.58 12.1306 15.6307 12.4263 15.6089 12.7211C15.5764 13.0067 15.4757 13.2803 15.3152 13.5187C15.154 13.7583 14.9373 13.9554 14.6834 14.0931L14.6821 14.0938C14.5542 14.1644 14.4736 14.2776 14.4525 14.4095C14.4327 14.5329 14.4682 14.6498 14.5236 14.739C14.579 14.8283 14.6654 14.9081 14.7748 14.9492C14.8892 14.9922 15.024 14.9899 15.1481 14.9168C15.5331 14.7007 15.8609 14.3957 16.1041 14.0272C16.3478 13.6579 16.4996 13.2355 16.5466 12.7955L16.5467 12.7955L16.5472 12.7882C16.5807 12.336 16.5011 11.8826 16.3156 11.4689C16.1301 11.0552 15.8445 10.6941 15.4845 10.4184C15.3721 10.3321 15.2374 10.3004 15.1067 10.3369C14.9844 10.3711 14.8951 10.4567 14.8415 10.5477ZM3.56971 9.18655C3.48604 11.4072 3.49064 13.6157 3.58349 15.8628L1.72881 15.6561L1.99113 9.18655H3.56971Z" fill="#272727" stroke="#272727" stroke-width="0.452541" stroke-linejoin="round"/>
</svg>
