<svg width="33" height="22" viewBox="0 0 33 22" fill="none" xmlns="http://www.w3.org/2000/svg">
<path d="M31.7274 20.7549L31.7272 20.7566C31.7253 20.7761 31.7226 20.7952 31.7191 20.8141C31.7082 20.9991 31.6114 21.1771 31.4644 21.2842C31.2981 21.4054 31.0673 21.4333 30.8555 21.2881C27.7448 19.2372 25.1651 16.4778 23.328 13.2368C23.1325 13.1885 22.934 13.1529 22.7337 13.1302L22.733 13.1302C22.3861 13.0899 22.0357 13.0899 21.6888 13.1302C21.6802 13.1312 21.6714 13.1317 21.6627 13.1317C21.5862 13.1317 21.5112 13.1165 21.4419 13.0878C21.3898 15.4743 21.3141 17.8608 21.2148 20.2472C21.2614 20.3984 21.2493 20.5686 21.1747 20.7113C21.0856 20.8818 20.9112 21.0031 20.6787 21.0031H20.6683L20.6683 21.0029C14.5117 20.7197 8.3507 20.7129 2.18519 20.9824C2.17512 20.9942 2.16454 21.0057 2.15347 21.0168C2.04514 21.1251 1.89823 21.186 1.74502 21.186C1.59186 21.186 1.44485 21.1252 1.33648 21.0168C1.22876 20.9091 1.16811 20.7633 1.16735 20.6112L1.16614 20.5583C1.15096 20.4838 1.14936 20.4066 1.16099 20.3317L0.773788 3.32443L0.773671 3.31928H0.773729C0.773729 3.16603 0.834646 3.01911 0.942953 2.9108C1.03901 2.81474 1.16539 2.75601 1.29962 2.74393C1.39427 2.62765 1.53858 2.54667 1.72477 2.54488C8.0974 2.22148 14.4134 2.19343 20.757 2.41848C20.9551 2.42495 21.1119 2.51856 21.2078 2.65739C21.267 2.7432 21.3002 2.84187 21.3097 2.94098C21.3252 2.95353 21.3401 2.96693 21.3543 2.98114C21.4626 3.08945 21.5233 3.23625 21.5234 3.38922M31.7274 20.7549L21.5234 3.38961C21.5234 3.38948 21.5234 3.38935 21.5234 3.38922M31.7274 20.7549C32.304 14.2977 32.4593 7.80967 32.1921 1.33221C32.1898 1.02067 31.9704 0.836508 31.7438 0.787943C31.5472 0.745784 31.2969 0.796177 31.1488 0.986571C28.0824 3.03961 25.3373 5.53566 23.003 8.39327M31.7274 20.7549L23.1154 8.61357M21.5234 3.38922C21.5319 5.08517 21.5284 6.78112 21.5131 8.47708M21.5234 3.38922L21.2867 8.48981L21.5131 8.47708M21.5131 8.47708C21.5124 8.55266 21.5117 8.62824 21.5109 8.70382L23.1154 8.61357M21.5131 8.47708L23.003 8.39327M23.003 8.39327C22.9819 8.41911 22.9608 8.44499 22.9398 8.4709L23.1154 8.61357M23.003 8.39327L23.1027 8.38766L23.1154 8.61357M29.591 13.4186L29.5912 13.4159L29.9426 9.11476C29.9431 9.10863 29.9434 9.10249 29.9434 9.09634C29.9434 8.92243 29.8759 8.7751 29.761 8.67369C29.6504 8.57603 29.5095 8.53272 29.3762 8.53272C29.1097 8.53272 28.8127 8.71427 28.7886 9.07986L28.4374 13.3791C28.4369 13.3852 28.4366 13.3914 28.4366 13.3975C28.4366 13.5698 28.502 13.7169 28.6156 13.8189C28.7252 13.9173 28.8653 13.9611 28.9985 13.9611C29.2661 13.9611 29.5573 13.7783 29.591 13.4186ZM29.168 6.29829L29.328 6.45829L29.168 6.2983C29.0597 6.4066 28.9988 6.55351 28.9988 6.70677C28.9988 6.86002 29.0597 7.00694 29.168 7.11525L29.328 6.95525L29.168 7.11525C29.2763 7.22358 29.4232 7.28444 29.5764 7.28444C29.7297 7.28444 29.8766 7.22358 29.9849 7.11525C30.0932 7.00694 30.1541 6.86001 30.1541 6.70677C30.1541 6.55351 30.0932 6.4066 29.9849 6.29829C29.8766 6.18998 29.7297 6.12909 29.5764 6.12909C29.4232 6.12909 29.2763 6.18998 29.168 6.29829ZM30.6568 19.7506C28.1282 17.911 26.0102 15.5611 24.4415 12.8502C24.4467 12.8032 24.4462 12.7556 24.4399 12.7085C24.4297 12.6326 24.4046 12.5595 24.3663 12.4934L24.1706 12.607L24.3663 12.4934C24.3279 12.4273 24.2769 12.3694 24.216 12.3229L24.0787 12.5027L24.216 12.3229C24.2058 12.3151 24.1954 12.3077 24.1848 12.3007C24.2185 12.2264 24.2364 12.1451 24.2364 12.062H24.2368L24.236 12.0485L24.0534 8.98636C24.052 8.95505 24.0482 8.92407 24.0421 8.8937C26.0889 6.43322 28.4552 4.25822 31.0776 2.42613C31.2741 8.20419 31.1336 13.9888 30.6568 19.7506ZM21.647 11.9766C21.5839 11.9783 21.5221 11.9903 21.4637 12.0117C21.4787 11.2191 21.491 10.4265 21.5007 9.63383L22.931 9.55338L23.0766 11.9949C22.6046 11.9246 22.1237 11.9181 21.647 11.9766ZM20.333 9.06656C20.3201 10.1129 20.3036 11.1592 20.2836 12.2055L2.14492 12.7972L2.06674 9.36361C2.08793 9.36516 2.10967 9.36563 2.13194 9.36494L2.13364 9.36487C8.17439 9.13073 14.2199 9.0324 20.27 9.06986H20.2714C20.2921 9.06986 20.3127 9.06874 20.333 9.06656ZM2.0406 8.21533L1.93758 3.69005C8.08058 3.38261 14.1983 3.35227 20.368 3.56066C20.3675 5.01355 20.3601 6.46643 20.3458 7.91932C20.3212 7.91614 20.2964 7.91451 20.2714 7.91451C14.2165 7.91451 8.16631 8.01291 2.12082 8.2097C2.09317 8.20988 2.06642 8.2118 2.0406 8.21533ZM20.26 13.3618C20.2132 15.5159 20.1514 17.6701 20.0744 19.8242C14.1553 19.6024 8.23217 19.6027 2.30491 19.8249L2.17121 13.952L20.26 13.3618Z" fill="#272727" stroke="#272727" stroke-width="0.452541" stroke-linejoin="round"/>
</svg>
