<svg width="60" height="60" viewBox="0 0 60 60" fill="none" xmlns="http://www.w3.org/2000/svg">
<path d="M24.611 24.2427H12.7193C12.6234 24.2427 12.5299 24.2666 12.4468 24.311C12.261 24.3585 12.1012 24.4913 12.0254 24.6601C11.9831 24.7542 11.9645 24.8655 11.9905 24.9803C12.0168 25.0967 12.0848 25.1984 12.1844 25.2781C15.6102 28.0187 18.9513 30.8306 22.2077 33.7139L18.9673 45.3378C18.965 45.3459 18.9632 45.3541 18.9619 45.3624C18.9434 45.4768 18.9598 45.5935 19.008 45.6976C18.9835 45.8355 19.0098 45.9781 19.0827 46.0986C19.1622 46.2301 19.2908 46.3247 19.44 46.3614C19.5885 46.398 19.7456 46.3744 19.8768 46.2956C23.3682 44.2549 26.7303 42.0006 29.9439 39.5456C33.3574 41.9478 36.8694 44.1889 40.4798 46.269C40.4862 46.2727 40.4928 46.2761 40.4995 46.2791C40.5164 46.2867 40.5336 46.2935 40.5509 46.2994C40.6576 46.3985 40.798 46.4538 40.944 46.4538C41.0973 46.4538 41.2442 46.3929 41.3525 46.2846C41.4608 46.1763 41.5217 46.0294 41.5217 45.8761L41.5217 45.8754C41.5075 41.7723 40.8284 37.6991 39.5115 33.8143L47.8506 25.5433L47.8512 25.5426C47.9568 25.437 48.014 25.3088 48.0207 25.1749C48.026 25.0673 47.9982 24.9665 47.9516 24.8807C47.932 24.7625 47.876 24.6524 47.7901 24.5666C47.6818 24.4582 47.5348 24.3974 47.3816 24.3974L47.3811 24.3974C43.5038 24.4063 39.6294 24.1922 35.7771 23.756C35.6728 23.6564 35.535 23.5994 35.3908 23.5962L35.3063 23.5877C34.7206 20.1711 33.5518 16.8798 31.8503 13.8578C31.846 13.8502 31.8413 13.8428 31.8361 13.8358C31.8275 13.824 31.8186 13.8125 31.8092 13.8015C31.706 13.6557 31.5348 13.5647 31.3596 13.5487C31.1696 13.5314 30.9635 13.6018 30.8236 13.7932L30.8216 13.796C28.4773 17.1078 26.4005 20.6011 24.611 24.2427ZM25.7174 24.6272C27.3343 21.3485 29.1859 18.1913 31.2577 15.1801C32.6208 17.7833 33.5846 20.5771 34.1165 23.4676L32.3365 23.288C32.3261 23.2869 32.3157 23.2866 32.3052 23.287C32.1561 23.2926 32.0147 23.3544 31.9092 23.4599C31.8037 23.5653 31.7419 23.7068 31.7363 23.856L31.7361 23.8559V23.8645C31.7361 24.0178 31.797 24.1647 31.9053 24.273C32.0106 24.3783 32.1524 24.4387 32.301 24.442L34.6344 24.6775C34.7234 24.7554 34.8386 24.8072 34.9738 24.8205C38.7 25.2705 42.448 25.5136 46.2006 25.5486L38.4124 33.2732C38.4119 33.2737 38.4114 33.2743 38.4108 33.2748C38.2874 33.3936 38.2313 33.543 38.2395 33.6935C38.2463 33.8186 38.2965 33.9319 38.3673 34.0217C39.5689 37.5158 40.2365 41.1694 40.3493 44.8592C36.9206 42.8444 33.5738 40.6903 30.3088 38.397C30.2458 38.3513 30.1774 38.3188 30.1053 38.302C29.9447 38.2312 29.7559 38.2468 29.5902 38.3727L29.5895 38.3733C26.6306 40.6402 23.5479 42.7401 20.3558 44.6633L23.2147 34.5909L25.7641 36.7514C25.8162 36.8031 25.8776 36.8443 25.9451 36.873C26.0165 36.9034 26.0934 36.9191 26.171 36.9191C26.2487 36.9191 26.3256 36.9034 26.397 36.873C26.4685 36.8426 26.5331 36.7982 26.587 36.7423L26.587 36.7423L26.5914 36.7376C26.6905 36.6286 26.7455 36.4866 26.7455 36.3393C26.7455 36.1919 26.6905 36.0499 26.5914 35.941C26.5847 35.9336 26.5776 35.9268 26.57 35.9204L23.3098 33.1692C23.2904 33.1453 23.269 33.1226 23.2456 33.1012L23.244 33.0997C20.2943 30.4483 17.2752 27.8811 14.1865 25.3981H25.173C25.3263 25.3981 25.4732 25.3372 25.5815 25.2289C25.6898 25.1206 25.7507 24.9737 25.7507 24.8204C25.7507 24.7539 25.7393 24.6886 25.7174 24.6272Z" fill="#1C089D" stroke="#1C089D" stroke-width="0.452541" stroke-linejoin="round"/>
</svg>
