<svg width="27" height="26" viewBox="0 0 27 26" fill="none" xmlns="http://www.w3.org/2000/svg">
<path d="M13.4724 25.2219C13.5487 25.233 13.6213 25.2223 13.6855 25.1987C13.6895 25.1983 13.6936 25.1978 13.6976 25.1973C13.7525 25.2083 13.8111 25.1988 13.8612 25.1678C16.3584 23.6224 18.7617 21.9298 21.0581 20.0993C22.1724 19.2118 23.281 18.3014 24.322 17.3303C25.2953 16.5522 25.9725 15.4639 26.2405 14.2468L26.2409 14.2469L26.2431 14.233C26.2448 14.2219 26.2462 14.2108 26.2472 14.1997C26.2886 14.1341 26.3168 14.0557 26.3191 13.9693C26.3227 13.8373 26.2652 13.7134 26.1567 13.6215C22.3063 10.2718 18.6679 6.68601 15.2625 2.8848L15.2625 2.88479L15.2608 2.88289C15.2537 2.87516 15.2464 2.86767 15.2389 2.86042C15.1634 2.73713 15.0298 2.64751 14.8544 2.64202C14.8544 2.64202 14.8544 2.64202 14.8544 2.64202L7.39262 2.4084C6.25631 1.60063 4.94577 1.06605 3.56333 0.85003C3.19122 0.754457 2.80167 0.74857 2.42675 0.832928C2.04798 0.918151 1.69518 1.09299 1.39797 1.34278C1.38823 1.35095 1.37921 1.35994 1.37099 1.36963C1.14309 1.63832 0.974136 1.95189 0.875122 2.29004C0.776498 2.62685 0.749425 2.98056 0.795644 3.32843C0.880981 4.19205 1.1799 5.02087 1.66544 5.74019C2.11142 6.4009 2.70195 6.95012 3.39117 7.34685C3.37219 9.29202 3.42451 11.2377 3.54814 13.18C3.45991 13.3346 3.43831 13.5505 3.58709 13.7368C6.66927 17.6093 9.87656 21.3896 13.209 25.0776L13.2098 25.0785C13.2814 25.157 13.372 25.2072 13.4724 25.2219ZM11.2066 8.73848L11.2063 8.73846V8.75041C11.2063 9.09874 11.1536 9.4475 11.0179 9.71163C10.8886 9.96315 10.6864 10.1375 10.3551 10.1733C10.0132 10.2016 9.67 10.139 9.36014 9.99183C9.0501 9.84455 8.78455 9.61787 8.59047 9.3348C8.51692 9.22304 8.46515 9.09857 8.43768 8.96792C8.57284 9.01081 8.71415 9.03547 8.85793 9.04042C9.22458 9.05307 9.58405 8.93679 9.87384 8.71182L9.87402 8.71207L9.88294 8.70437C10.1658 8.46021 10.3791 8.14567 10.5013 7.7926C10.5503 7.65111 10.5839 7.50545 10.6021 7.35807C10.7265 7.4613 10.8362 7.58262 10.927 7.71888C11.1276 8.01976 11.2257 8.37737 11.2066 8.73848ZM8.88963 5.20332C9.13165 5.49588 9.3263 5.82229 9.46829 6.17058C9.29134 6.21709 9.12154 6.28973 8.96467 6.38669C8.95816 6.39071 8.95186 6.39507 8.94579 6.39973C8.66489 6.61554 8.4209 6.87331 8.22172 7.16278C7.9716 7.3577 7.7696 7.61109 7.63533 7.90378C7.42968 8.3521 7.39759 8.86075 7.54526 9.33136C7.5468 9.33627 7.54851 9.34112 7.55038 9.34591C7.74466 9.84354 8.07761 10.275 8.50972 10.5891C8.93952 10.9015 9.44946 11.0847 9.97968 11.1174C10.2646 11.1548 10.5543 11.1286 10.828 11.0406C11.1044 10.9517 11.3573 10.802 11.5683 10.6025C11.5735 10.5975 11.5785 10.5924 11.5832 10.587C11.9289 10.1916 12.1293 9.69016 12.1516 9.16563C12.229 8.61141 12.1421 8.04659 11.9017 7.5411C11.6595 7.03204 11.2725 6.60585 10.789 6.316C10.7842 6.31316 10.7794 6.31049 10.7744 6.308C10.6605 6.2506 10.5414 6.20533 10.4191 6.17262C10.0484 5.11499 9.43194 4.16281 8.62361 3.39317L14.6046 3.58043C16.9553 6.19954 19.4161 8.71663 21.9803 11.125L10.602 20.7117C8.51738 18.3086 6.48435 15.8621 4.50295 13.3721C4.50453 13.3502 4.5046 13.328 4.50321 13.3056L4.50316 13.3049C4.28383 9.96147 4.27702 6.6076 4.48273 3.26352L7.10525 3.34563C7.78886 3.86042 8.38779 4.48198 8.87811 5.18814C8.88174 5.19336 8.88558 5.19843 8.88963 5.20332ZM1.78426 2.57153C1.84936 2.30656 2.01183 2.07572 2.23941 1.925C2.46821 1.77348 2.74587 1.71417 3.01661 1.75897C3.02163 1.7598 3.02667 1.76046 3.03174 1.76096C3.83403 1.83866 4.61805 2.03601 5.35825 2.3447L4.45213 2.31633L4.45213 2.31622H4.44505C4.31696 2.31622 4.2034 2.36245 4.11968 2.44518C4.11339 2.4514 4.10733 2.45776 4.1015 2.46424C4.0259 2.45507 3.94959 2.46352 3.88113 2.4866C3.71413 2.54288 3.57217 2.69219 3.55812 2.91249C3.48572 4.01623 3.43634 5.12111 3.40999 6.22639L1.78426 2.57153ZM13.6547 24.1588C12.8369 23.2542 12.0267 22.3432 11.2241 21.4258L22.6827 11.7795C23.5421 12.5742 24.4129 13.3569 25.2949 14.1271C25.0005 15.2136 24.3465 16.1699 23.4378 16.8385C23.4309 16.8436 23.4242 16.8491 23.4178 16.855C22.438 17.7663 21.3587 18.6397 20.283 19.4983C18.1622 21.1743 15.9493 22.7303 13.6547 24.1588ZM9.30828 7.32478C9.43129 7.20692 9.56219 7.12306 9.70487 7.08142C9.68938 7.36578 9.54102 7.70201 9.32522 7.9118C9.21374 8.02018 9.09725 8.08226 8.98693 8.09824C8.92707 8.10691 8.86127 8.10324 8.7896 8.07863C8.83035 7.9996 8.87332 7.92017 8.91897 7.84219C8.94725 7.82463 8.9764 7.80837 9.00632 7.79349C9.23001 7.70539 9.31489 7.50561 9.30828 7.32478ZM8.52554 8.11109L8.50275 8.14138C8.5093 8.13142 8.51543 8.12061 8.52108 8.1089L8.52554 8.11109Z" fill="#272727" stroke="#272727" stroke-width="0.452541" stroke-linejoin="round"/>
</svg>
