<svg width="60" height="60" viewBox="0 0 60 60" fill="none" xmlns="http://www.w3.org/2000/svg">
<mask id="path-1-outside-1_11_848" maskUnits="userSpaceOnUse" x="10.6289" y="10.5335" width="39" height="39" fill="black">
<rect fill="white" x="10.6289" y="10.5335" width="39" height="39"/>
<path fill-rule="evenodd" clip-rule="evenodd" d="M28.9082 23.6579C25.7315 24.4732 25.7737 29.8005 28.8098 30.7703C29.5152 30.9675 30.2626 30.9555 30.9612 30.7359C31.6599 30.5163 32.2798 30.0986 32.7455 29.5334C33.2386 28.9392 33.538 28.2083 33.6034 27.439C33.6688 26.6696 33.4971 25.8987 33.1114 25.2298C32.7257 24.561 32.1445 24.0262 31.4458 23.6974C30.7472 23.3687 29.9646 23.2617 29.2034 23.3909C29.0176 23.3909 28.9422 23.5155 28.9482 23.6579H28.9082ZM29.32 24.1636C29.3353 24.1333 29.3461 24.1012 29.3521 24.0684C29.3633 24.068 29.3746 24.067 29.3861 24.0656C29.963 23.9842 30.5512 24.0674 31.0828 24.3056C31.6145 24.5439 32.068 24.9275 32.3912 25.4122C32.7143 25.897 32.894 26.4632 32.9094 27.0456C32.9249 27.628 32.7755 28.2029 32.4785 28.7041C32.1884 29.1844 31.7742 29.5775 31.2794 29.8422C30.7847 30.1069 30.2278 30.2333 29.6672 30.2081C29.0434 30.1358 28.4653 29.8448 28.0355 29.3868C27.6058 28.9288 27.3523 28.3333 27.3199 27.7061C27.1398 27.0187 27.2268 26.2887 27.5632 25.6628C27.8996 25.037 28.4605 24.5617 29.1331 24.3326C29.2142 24.3013 29.2807 24.2411 29.32 24.1636Z"/>
<path fill-rule="evenodd" clip-rule="evenodd" d="M48.0656 38.0045C48.9233 32.7746 47.9618 27.408 45.3403 22.8003C42.6881 18.2472 38.5257 14.7662 33.5753 12.961C30.7341 11.9054 27.7111 11.4269 24.683 11.5534C24.5111 11.5065 24.2975 11.563 24.2134 11.7663C23.452 13.6792 23.1767 15.7511 23.4122 17.7964C23.4122 18.0478 23.6492 18.1586 23.8485 18.1291C23.8168 18.2086 23.8116 18.3001 23.8332 18.3827C23.7622 18.4048 23.6974 18.4552 23.6514 18.5411H23.7076C18.7011 27.9496 14.6559 37.8389 11.6334 48.059C11.6195 48.1448 11.6379 48.2326 11.685 48.3056C11.7321 48.3786 11.8046 48.4316 11.8884 48.4543C11.9723 48.477 12.0616 48.4678 12.1391 48.4286C12.1547 48.4207 12.1696 48.4116 12.1838 48.4016C12.2336 48.4098 12.2896 48.4048 12.3506 48.3825C22.1916 44.7294 31.9771 40.9094 41.7069 36.9227C41.8856 37.0628 42.2082 37.0051 42.277 36.7495C42.3135 36.7827 42.3595 36.8099 42.416 36.8281L47.687 38.5429C48.0193 38.6537 48.2119 38.2496 48.0656 38.0045ZM38.9307 16.5875C34.8429 13.5849 29.8613 12.0531 24.7954 12.2384C24.1336 14.01 23.8998 15.9146 24.115 17.7964C24.121 17.8449 24.1176 17.8881 24.1067 17.9261C24.123 17.924 24.1399 17.9229 24.1575 17.9229C26.6109 17.8475 29.053 18.2853 31.3274 19.2084C33.6019 20.1314 35.6584 21.5193 37.3654 23.2832C39.0724 25.0471 40.3921 27.148 41.2401 29.4515C42.0336 31.6069 42.3977 33.8952 42.3136 36.1875C42.3866 36.1359 42.4839 36.1163 42.5987 36.1534L47.4076 37.7051C47.8649 34.853 47.7597 31.9383 47.0973 29.1256C45.9317 24.117 43.0406 19.6784 38.9307 16.5875ZM31.0694 19.8391C28.9138 18.9698 26.6023 18.5555 24.2798 18.6218C24.3103 18.706 24.3086 18.8045 24.2558 18.9066C22.6615 21.9167 21.1657 24.976 19.7704 28.0794C19.7763 28.0783 19.7822 28.0773 19.7882 28.0765C19.8346 28.0703 19.8817 28.0733 19.9269 28.0853C21.0359 28.3828 21.9996 29.0719 22.6398 30.025C23.2071 30.8939 23.4596 31.931 23.3553 32.9635C23.251 33.9959 22.7961 34.9615 22.0664 35.6994C21.3368 36.4373 20.3764 36.9029 19.3451 37.0188C18.3139 37.1347 17.2741 36.8938 16.3989 36.3362C16.3808 36.3248 16.3644 36.3126 16.3495 36.2997C14.9269 40.0092 13.6439 43.7731 12.5036 47.5834C16.4824 46.1088 20.4477 44.6062 24.3994 43.0758C24.3694 43.0695 24.3402 43.0594 24.3124 43.0453C24.2349 43.006 24.1747 42.9395 24.1434 42.8584C24.0517 42.5133 23.8899 42.1907 23.668 41.9108C23.4462 41.6309 23.1691 41.3997 22.854 41.2317C22.5388 41.0636 22.1925 40.9622 21.8365 40.9339C21.4804 40.9056 21.1224 40.9509 20.7847 41.067C20.4469 41.1831 20.1367 41.3676 19.8734 41.6089C19.6101 41.8501 19.3993 42.1431 19.2542 42.4694C19.1091 42.7957 19.0327 43.1485 19.0299 43.5056C19.0271 43.8627 19.0979 44.2166 19.2378 44.5452H19.2238C19.3924 44.9669 18.7037 45.1355 18.5491 44.7279C18.2611 43.9623 18.2611 43.1181 18.5491 42.3524C18.8028 41.6907 19.2617 41.1276 19.8586 40.7456C20.4556 40.3637 21.1592 40.183 21.8663 40.2299C22.5497 40.286 23.1993 40.5506 23.7273 40.9881C24.2552 41.4255 24.636 42.0147 24.8181 42.6757C24.832 42.7615 24.8136 42.8493 24.7665 42.9223C24.7631 42.9275 24.7597 42.9326 24.7561 42.9376C27.0623 42.0433 29.3639 41.1394 31.6609 40.2261C31.0193 39.1404 30.8134 37.8505 31.0869 36.6172C31.325 35.5858 31.9225 34.6728 32.7725 34.0417C33.6224 33.4107 34.6692 33.1029 35.7254 33.1735C36.7603 33.2764 37.7172 33.7698 38.4013 34.5531C39.0221 35.2639 39.376 36.1651 39.4083 37.1024C40.1437 36.8018 40.8786 36.5002 41.613 36.1976C41.7067 33.9919 41.3664 31.7877 40.6099 29.7105C39.8006 27.4882 38.533 25.4609 36.8894 23.7602C35.2458 22.0596 33.2629 20.7237 31.0694 19.8391ZM38.7054 37.3894C38.7373 36.8918 38.6566 36.3934 38.4693 35.9313C38.2819 35.4689 37.9927 35.0547 37.623 34.7196C36.9759 34.1398 36.1375 33.8191 35.2686 33.8191C34.3997 33.8191 33.5614 34.1398 32.9142 34.7196C32.2303 35.3731 31.7967 36.2454 31.6889 37.1852C31.581 38.1249 31.8057 39.0728 32.3239 39.8642V39.9485L32.331 39.9594C34.4598 39.1109 36.5846 38.2542 38.7054 37.3894ZM16.5897 35.6774C17.513 33.2999 18.4937 30.9449 19.531 28.6145C19.5541 28.6525 19.584 28.6859 19.6194 28.7129C19.6566 28.7412 19.699 28.762 19.7442 28.774C20.2838 28.9088 20.7877 29.1592 21.2209 29.508C21.6541 29.8567 22.0064 30.2955 22.2532 30.7939C22.5 31.2923 22.6356 31.8384 22.6505 32.3944C22.6654 32.9503 22.5592 33.5029 22.3394 34.0138C22.1195 34.5247 21.7913 34.9817 21.3773 35.3531C20.9634 35.7245 20.4736 36.0016 19.942 36.165C19.4104 36.3284 18.8496 36.3743 18.2985 36.2995C17.7474 36.2247 17.2191 36.031 16.7503 35.7318C16.6954 35.6973 16.6412 35.6804 16.5897 35.6774Z"/>
</mask>
<path fill-rule="evenodd" clip-rule="evenodd" d="M28.9082 23.6579C25.7315 24.4732 25.7737 29.8005 28.8098 30.7703C29.5152 30.9675 30.2626 30.9555 30.9612 30.7359C31.6599 30.5163 32.2798 30.0986 32.7455 29.5334C33.2386 28.9392 33.538 28.2083 33.6034 27.439C33.6688 26.6696 33.4971 25.8987 33.1114 25.2298C32.7257 24.561 32.1445 24.0262 31.4458 23.6974C30.7472 23.3687 29.9646 23.2617 29.2034 23.3909C29.0176 23.3909 28.9422 23.5155 28.9482 23.6579H28.9082ZM29.32 24.1636C29.3353 24.1333 29.3461 24.1012 29.3521 24.0684C29.3633 24.068 29.3746 24.067 29.3861 24.0656C29.963 23.9842 30.5512 24.0674 31.0828 24.3056C31.6145 24.5439 32.068 24.9275 32.3912 25.4122C32.7143 25.897 32.894 26.4632 32.9094 27.0456C32.9249 27.628 32.7755 28.2029 32.4785 28.7041C32.1884 29.1844 31.7742 29.5775 31.2794 29.8422C30.7847 30.1069 30.2278 30.2333 29.6672 30.2081C29.0434 30.1358 28.4653 29.8448 28.0355 29.3868C27.6058 28.9288 27.3523 28.3333 27.3199 27.7061C27.1398 27.0187 27.2268 26.2887 27.5632 25.6628C27.8996 25.037 28.4605 24.5617 29.1331 24.3326C29.2142 24.3013 29.2807 24.2411 29.32 24.1636Z" fill="#1C089D"/>
<path fill-rule="evenodd" clip-rule="evenodd" d="M48.0656 38.0045C48.9233 32.7746 47.9618 27.408 45.3403 22.8003C42.6881 18.2472 38.5257 14.7662 33.5753 12.961C30.7341 11.9054 27.7111 11.4269 24.683 11.5534C24.5111 11.5065 24.2975 11.563 24.2134 11.7663C23.452 13.6792 23.1767 15.7511 23.4122 17.7964C23.4122 18.0478 23.6492 18.1586 23.8485 18.1291C23.8168 18.2086 23.8116 18.3001 23.8332 18.3827C23.7622 18.4048 23.6974 18.4552 23.6514 18.5411H23.7076C18.7011 27.9496 14.6559 37.8389 11.6334 48.059C11.6195 48.1448 11.6379 48.2326 11.685 48.3056C11.7321 48.3786 11.8046 48.4316 11.8884 48.4543C11.9723 48.477 12.0616 48.4678 12.1391 48.4286C12.1547 48.4207 12.1696 48.4116 12.1838 48.4016C12.2336 48.4098 12.2896 48.4048 12.3506 48.3825C22.1916 44.7294 31.9771 40.9094 41.7069 36.9227C41.8856 37.0628 42.2082 37.0051 42.277 36.7495C42.3135 36.7827 42.3595 36.8099 42.416 36.8281L47.687 38.5429C48.0193 38.6537 48.2119 38.2496 48.0656 38.0045ZM38.9307 16.5875C34.8429 13.5849 29.8613 12.0531 24.7954 12.2384C24.1336 14.01 23.8998 15.9146 24.115 17.7964C24.121 17.8449 24.1176 17.8881 24.1067 17.9261C24.123 17.924 24.1399 17.9229 24.1575 17.9229C26.6109 17.8475 29.053 18.2853 31.3274 19.2084C33.6019 20.1314 35.6584 21.5193 37.3654 23.2832C39.0724 25.0471 40.3921 27.148 41.2401 29.4515C42.0336 31.6069 42.3977 33.8952 42.3136 36.1875C42.3866 36.1359 42.4839 36.1163 42.5987 36.1534L47.4076 37.7051C47.8649 34.853 47.7597 31.9383 47.0973 29.1256C45.9317 24.117 43.0406 19.6784 38.9307 16.5875ZM31.0694 19.8391C28.9138 18.9698 26.6023 18.5555 24.2798 18.6218C24.3103 18.706 24.3086 18.8045 24.2558 18.9066C22.6615 21.9167 21.1657 24.976 19.7704 28.0794C19.7763 28.0783 19.7822 28.0773 19.7882 28.0765C19.8346 28.0703 19.8817 28.0733 19.9269 28.0853C21.0359 28.3828 21.9996 29.0719 22.6398 30.025C23.2071 30.8939 23.4596 31.931 23.3553 32.9635C23.251 33.9959 22.7961 34.9615 22.0664 35.6994C21.3368 36.4373 20.3764 36.9029 19.3451 37.0188C18.3139 37.1347 17.2741 36.8938 16.3989 36.3362C16.3808 36.3248 16.3644 36.3126 16.3495 36.2997C14.9269 40.0092 13.6439 43.7731 12.5036 47.5834C16.4824 46.1088 20.4477 44.6062 24.3994 43.0758C24.3694 43.0695 24.3402 43.0594 24.3124 43.0453C24.2349 43.006 24.1747 42.9395 24.1434 42.8584C24.0517 42.5133 23.8899 42.1907 23.668 41.9108C23.4462 41.6309 23.1691 41.3997 22.854 41.2317C22.5388 41.0636 22.1925 40.9622 21.8365 40.9339C21.4804 40.9056 21.1224 40.9509 20.7847 41.067C20.4469 41.1831 20.1367 41.3676 19.8734 41.6089C19.6101 41.8501 19.3993 42.1431 19.2542 42.4694C19.1091 42.7957 19.0327 43.1485 19.0299 43.5056C19.0271 43.8627 19.0979 44.2166 19.2378 44.5452H19.2238C19.3924 44.9669 18.7037 45.1355 18.5491 44.7279C18.2611 43.9623 18.2611 43.1181 18.5491 42.3524C18.8028 41.6907 19.2617 41.1276 19.8586 40.7456C20.4556 40.3637 21.1592 40.183 21.8663 40.2299C22.5497 40.286 23.1993 40.5506 23.7273 40.9881C24.2552 41.4255 24.636 42.0147 24.8181 42.6757C24.832 42.7615 24.8136 42.8493 24.7665 42.9223C24.7631 42.9275 24.7597 42.9326 24.7561 42.9376C27.0623 42.0433 29.3639 41.1394 31.6609 40.2261C31.0193 39.1404 30.8134 37.8505 31.0869 36.6172C31.325 35.5858 31.9225 34.6728 32.7725 34.0417C33.6224 33.4107 34.6692 33.1029 35.7254 33.1735C36.7603 33.2764 37.7172 33.7698 38.4013 34.5531C39.0221 35.2639 39.376 36.1651 39.4083 37.1024C40.1437 36.8018 40.8786 36.5002 41.613 36.1976C41.7067 33.9919 41.3664 31.7877 40.6099 29.7105C39.8006 27.4882 38.533 25.4609 36.8894 23.7602C35.2458 22.0596 33.2629 20.7237 31.0694 19.8391ZM38.7054 37.3894C38.7373 36.8918 38.6566 36.3934 38.4693 35.9313C38.2819 35.4689 37.9927 35.0547 37.623 34.7196C36.9759 34.1398 36.1375 33.8191 35.2686 33.8191C34.3997 33.8191 33.5614 34.1398 32.9142 34.7196C32.2303 35.3731 31.7967 36.2454 31.6889 37.1852C31.581 38.1249 31.8057 39.0728 32.3239 39.8642V39.9485L32.331 39.9594C34.4598 39.1109 36.5846 38.2542 38.7054 37.3894ZM16.5897 35.6774C17.513 33.2999 18.4937 30.9449 19.531 28.6145C19.5541 28.6525 19.584 28.6859 19.6194 28.7129C19.6566 28.7412 19.699 28.762 19.7442 28.774C20.2838 28.9088 20.7877 29.1592 21.2209 29.508C21.6541 29.8567 22.0064 30.2955 22.2532 30.7939C22.5 31.2923 22.6356 31.8384 22.6505 32.3944C22.6654 32.9503 22.5592 33.5029 22.3394 34.0138C22.1195 34.5247 21.7913 34.9817 21.3773 35.3531C20.9634 35.7245 20.4736 36.0016 19.942 36.165C19.4104 36.3284 18.8496 36.3743 18.2985 36.2995C17.7474 36.2247 17.2191 36.031 16.7503 35.7318C16.6954 35.6973 16.6412 35.6804 16.5897 35.6774Z" fill="#1C089D"/>
<path fill-rule="evenodd" clip-rule="evenodd" d="M28.9082 23.6579C25.7315 24.4732 25.7737 29.8005 28.8098 30.7703C29.5152 30.9675 30.2626 30.9555 30.9612 30.7359C31.6599 30.5163 32.2798 30.0986 32.7455 29.5334C33.2386 28.9392 33.538 28.2083 33.6034 27.439C33.6688 26.6696 33.4971 25.8987 33.1114 25.2298C32.7257 24.561 32.1445 24.0262 31.4458 23.6974C30.7472 23.3687 29.9646 23.2617 29.2034 23.3909C29.0176 23.3909 28.9422 23.5155 28.9482 23.6579H28.9082ZM29.32 24.1636C29.3353 24.1333 29.3461 24.1012 29.3521 24.0684C29.3633 24.068 29.3746 24.067 29.3861 24.0656C29.963 23.9842 30.5512 24.0674 31.0828 24.3056C31.6145 24.5439 32.068 24.9275 32.3912 25.4122C32.7143 25.897 32.894 26.4632 32.9094 27.0456C32.9249 27.628 32.7755 28.2029 32.4785 28.7041C32.1884 29.1844 31.7742 29.5775 31.2794 29.8422C30.7847 30.1069 30.2278 30.2333 29.6672 30.2081C29.0434 30.1358 28.4653 29.8448 28.0355 29.3868C27.6058 28.9288 27.3523 28.3333 27.3199 27.7061C27.1398 27.0187 27.2268 26.2887 27.5632 25.6628C27.8996 25.037 28.4605 24.5617 29.1331 24.3326C29.2142 24.3013 29.2807 24.2411 29.32 24.1636Z" stroke="#1C089D" stroke-width="0.905082" stroke-linejoin="round" mask="url(#path-1-outside-1_11_848)"/>
<path fill-rule="evenodd" clip-rule="evenodd" d="M48.0656 38.0045C48.9233 32.7746 47.9618 27.408 45.3403 22.8003C42.6881 18.2472 38.5257 14.7662 33.5753 12.961C30.7341 11.9054 27.7111 11.4269 24.683 11.5534C24.5111 11.5065 24.2975 11.563 24.2134 11.7663C23.452 13.6792 23.1767 15.7511 23.4122 17.7964C23.4122 18.0478 23.6492 18.1586 23.8485 18.1291C23.8168 18.2086 23.8116 18.3001 23.8332 18.3827C23.7622 18.4048 23.6974 18.4552 23.6514 18.5411H23.7076C18.7011 27.9496 14.6559 37.8389 11.6334 48.059C11.6195 48.1448 11.6379 48.2326 11.685 48.3056C11.7321 48.3786 11.8046 48.4316 11.8884 48.4543C11.9723 48.477 12.0616 48.4678 12.1391 48.4286C12.1547 48.4207 12.1696 48.4116 12.1838 48.4016C12.2336 48.4098 12.2896 48.4048 12.3506 48.3825C22.1916 44.7294 31.9771 40.9094 41.7069 36.9227C41.8856 37.0628 42.2082 37.0051 42.277 36.7495C42.3135 36.7827 42.3595 36.8099 42.416 36.8281L47.687 38.5429C48.0193 38.6537 48.2119 38.2496 48.0656 38.0045ZM38.9307 16.5875C34.8429 13.5849 29.8613 12.0531 24.7954 12.2384C24.1336 14.01 23.8998 15.9146 24.115 17.7964C24.121 17.8449 24.1176 17.8881 24.1067 17.9261C24.123 17.924 24.1399 17.9229 24.1575 17.9229C26.6109 17.8475 29.053 18.2853 31.3274 19.2084C33.6019 20.1314 35.6584 21.5193 37.3654 23.2832C39.0724 25.0471 40.3921 27.148 41.2401 29.4515C42.0336 31.6069 42.3977 33.8952 42.3136 36.1875C42.3866 36.1359 42.4839 36.1163 42.5987 36.1534L47.4076 37.7051C47.8649 34.853 47.7597 31.9383 47.0973 29.1256C45.9317 24.117 43.0406 19.6784 38.9307 16.5875ZM31.0694 19.8391C28.9138 18.9698 26.6023 18.5555 24.2798 18.6218C24.3103 18.706 24.3086 18.8045 24.2558 18.9066C22.6615 21.9167 21.1657 24.976 19.7704 28.0794C19.7763 28.0783 19.7822 28.0773 19.7882 28.0765C19.8346 28.0703 19.8817 28.0733 19.9269 28.0853C21.0359 28.3828 21.9996 29.0719 22.6398 30.025C23.2071 30.8939 23.4596 31.931 23.3553 32.9635C23.251 33.9959 22.7961 34.9615 22.0664 35.6994C21.3368 36.4373 20.3764 36.9029 19.3451 37.0188C18.3139 37.1347 17.2741 36.8938 16.3989 36.3362C16.3808 36.3248 16.3644 36.3126 16.3495 36.2997C14.9269 40.0092 13.6439 43.7731 12.5036 47.5834C16.4824 46.1088 20.4477 44.6062 24.3994 43.0758C24.3694 43.0695 24.3402 43.0594 24.3124 43.0453C24.2349 43.006 24.1747 42.9395 24.1434 42.8584C24.0517 42.5133 23.8899 42.1907 23.668 41.9108C23.4462 41.6309 23.1691 41.3997 22.854 41.2317C22.5388 41.0636 22.1925 40.9622 21.8365 40.9339C21.4804 40.9056 21.1224 40.9509 20.7847 41.067C20.4469 41.1831 20.1367 41.3676 19.8734 41.6089C19.6101 41.8501 19.3993 42.1431 19.2542 42.4694C19.1091 42.7957 19.0327 43.1485 19.0299 43.5056C19.0271 43.8627 19.0979 44.2166 19.2378 44.5452H19.2238C19.3924 44.9669 18.7037 45.1355 18.5491 44.7279C18.2611 43.9623 18.2611 43.1181 18.5491 42.3524C18.8028 41.6907 19.2617 41.1276 19.8586 40.7456C20.4556 40.3637 21.1592 40.183 21.8663 40.2299C22.5497 40.286 23.1993 40.5506 23.7273 40.9881C24.2552 41.4255 24.636 42.0147 24.8181 42.6757C24.832 42.7615 24.8136 42.8493 24.7665 42.9223C24.7631 42.9275 24.7597 42.9326 24.7561 42.9376C27.0623 42.0433 29.3639 41.1394 31.6609 40.2261C31.0193 39.1404 30.8134 37.8505 31.0869 36.6172C31.325 35.5858 31.9225 34.6728 32.7725 34.0417C33.6224 33.4107 34.6692 33.1029 35.7254 33.1735C36.7603 33.2764 37.7172 33.7698 38.4013 34.5531C39.0221 35.2639 39.376 36.1651 39.4083 37.1024C40.1437 36.8018 40.8786 36.5002 41.613 36.1976C41.7067 33.9919 41.3664 31.7877 40.6099 29.7105C39.8006 27.4882 38.533 25.4609 36.8894 23.7602C35.2458 22.0596 33.2629 20.7237 31.0694 19.8391ZM38.7054 37.3894C38.7373 36.8918 38.6566 36.3934 38.4693 35.9313C38.2819 35.4689 37.9927 35.0547 37.623 34.7196C36.9759 34.1398 36.1375 33.8191 35.2686 33.8191C34.3997 33.8191 33.5614 34.1398 32.9142 34.7196C32.2303 35.3731 31.7967 36.2454 31.6889 37.1852C31.581 38.1249 31.8057 39.0728 32.3239 39.8642V39.9485L32.331 39.9594C34.4598 39.1109 36.5846 38.2542 38.7054 37.3894ZM16.5897 35.6774C17.513 33.2999 18.4937 30.9449 19.531 28.6145C19.5541 28.6525 19.584 28.6859 19.6194 28.7129C19.6566 28.7412 19.699 28.762 19.7442 28.774C20.2838 28.9088 20.7877 29.1592 21.2209 29.508C21.6541 29.8567 22.0064 30.2955 22.2532 30.7939C22.5 31.2923 22.6356 31.8384 22.6505 32.3944C22.6654 32.9503 22.5592 33.5029 22.3394 34.0138C22.1195 34.5247 21.7913 34.9817 21.3773 35.3531C20.9634 35.7245 20.4736 36.0016 19.942 36.165C19.4104 36.3284 18.8496 36.3743 18.2985 36.2995C17.7474 36.2247 17.2191 36.031 16.7503 35.7318C16.6954 35.6973 16.6412 35.6804 16.5897 35.6774Z" stroke="#1C089D" stroke-width="0.905082" stroke-linejoin="round" mask="url(#path-1-outside-1_11_848)"/>
</svg>
