<svg width="58" height="60" viewBox="0 0 58 60" fill="none" xmlns="http://www.w3.org/2000/svg">
<path d="M27.3482 1.4198C28.1422 0.256588 29.8578 0.256588 30.6518 1.4198L33.8245 6.06753C34.3804 6.88181 35.4467 7.16955 36.3367 6.74543L41.2834 4.38817C42.5402 3.78927 44.0092 4.62568 44.1355 6.01214L44.6694 11.8699C44.7564 12.8253 45.5096 13.5842 46.4642 13.6787L52.0226 14.2287C53.3754 14.3626 54.2034 15.778 53.6571 17.0227L51.2507 22.5057C50.8757 23.3603 51.1415 24.3606 51.8912 24.9163L56.5822 28.3932C57.661 29.1928 57.661 30.8072 56.5822 31.6068L51.8912 35.0837C51.1415 35.6394 50.8757 36.6397 51.2507 37.4942L53.6571 42.9773C54.2034 44.222 53.3754 45.6374 52.0226 45.7713L46.4642 46.3213C45.5096 46.4158 44.7564 47.1747 44.6694 48.1301L44.1355 53.9879C44.0092 55.3743 42.5402 56.2107 41.2834 55.6118L36.3367 53.2546C35.4467 52.8305 34.3804 53.1182 33.8245 53.9325L30.6518 58.5802C29.8578 59.7434 28.1422 59.7434 27.3482 58.5802L24.1755 53.9325C23.6196 53.1182 22.5533 52.8305 21.6633 53.2546L16.7166 55.6118C15.4598 56.2107 13.9908 55.3743 13.8645 53.9879L13.3306 48.1301C13.2436 47.1747 12.4904 46.4158 11.5358 46.3213L5.97735 45.7713C4.62458 45.6374 3.79661 44.222 4.34291 42.9773L6.74926 37.4943C7.12429 36.6397 6.85851 35.6394 6.1088 35.0837L1.41779 31.6068C0.339027 30.8072 0.339028 29.1928 1.41779 28.3932L6.1088 24.9163C6.85851 24.3606 7.12429 23.3603 6.74926 22.5058L4.34291 17.0227C3.79661 15.778 4.62458 14.3626 5.97735 14.2287L11.5358 13.6787C12.4904 13.5842 13.2436 12.8253 13.3306 11.8699L13.8645 6.01214C13.9908 4.62568 15.4598 3.78927 16.7166 4.38817L21.6633 6.74543C22.5533 7.16955 23.6196 6.88181 24.1755 6.06753L27.3482 1.4198Z" fill="#F7F6FE" fill-opacity="0.5"/>
</svg>
