<svg width="31" height="27" viewBox="0 0 31 27" fill="none" xmlns="http://www.w3.org/2000/svg">
<mask id="mask0_121_33" style="mask-type:alpha" maskUnits="userSpaceOnUse" x="0" y="0" width="31" height="27">
<path d="M31 0H0V27H31V0Z" fill="white"/>
<path fill-rule="evenodd" clip-rule="evenodd" d="M22.127 2.3231C21.983 1.96058 21.7412 1.64515 21.4285 1.41188C21.1158 1.17861 20.7445 1.03665 20.356 1.00182C19.9733 0.985812 19.5936 1.07579 19.2588 1.26181C18.9239 1.44782 18.647 1.72265 18.4584 2.05603C18.2476 2.4496 18.852 2.801 19.0628 2.40743C19.189 2.18872 19.3718 2.00805 19.5919 1.88438C19.812 1.76071 20.0614 1.69861 20.3138 1.70462C20.5568 1.72781 20.7896 1.81388 20.9892 1.95436C21.1889 2.09485 21.3485 2.28492 21.4524 2.50583C21.4602 2.55443 21.4782 2.60083 21.5051 2.64203C21.5215 2.66713 21.5411 2.68996 21.5632 2.71C20.8569 2.99613 20.1794 3.35129 19.5406 3.77095C19.5356 3.77411 19.5307 3.77735 19.526 3.78065C19.4083 3.59206 19.2671 3.41857 19.1052 3.26458C18.8287 2.97373 18.5379 2.69695 18.2337 2.43527C17.685 1.85647 16.9662 1.46753 16.1815 1.32484C15.8239 1.28032 15.4618 1.36098 15.1569 1.55316C14.852 1.74534 14.623 2.03717 14.5088 2.37905C14.5023 2.4631 14.525 2.54684 14.5731 2.61608C14.6212 2.68531 14.6917 2.73578 14.7728 2.75894C14.8538 2.7821 14.9404 2.77653 15.0178 2.74316C15.0953 2.70978 15.1588 2.65067 15.1976 2.57584L15.2116 2.58989C15.3663 1.97142 16.1534 1.95736 16.6173 2.1682C17.3021 2.52256 17.9166 2.99889 18.4305 3.57381C18.6984 3.79261 18.9104 4.07207 19.0489 4.38907C19.1192 4.69831 18.8241 5.03565 18.6273 5.2465C18.2658 5.62032 17.8099 5.88449 17.312 6.01364C17.1631 5.35325 16.8089 4.75316 16.2955 4.3025C16.2908 4.28034 16.284 4.25862 16.2751 4.23766C16.2566 4.19419 16.2295 4.15488 16.1955 4.1221C15.554 3.26127 14.6519 2.63031 13.6233 2.32292C13.3767 2.25182 13.1153 2.2496 12.8675 2.3165C12.6197 2.38341 12.395 2.51688 12.2177 2.70244C11.8984 3.05497 11.6588 3.47202 11.5149 3.92532C11.4935 4.01473 11.508 4.10896 11.5553 4.1878C11.6026 4.26663 11.6789 4.32378 11.7679 4.347C11.8112 4.35976 11.8567 4.36366 11.9016 4.35848C11.9466 4.3533 11.99 4.33914 12.0293 4.31685C12.0686 4.29456 12.1031 4.26459 12.1306 4.22872C12.1581 4.19285 12.1782 4.15182 12.1895 4.10805H12.1614C12.2731 3.77953 12.4447 3.47452 12.6675 3.20846C12.8075 3.07849 12.9859 2.9973 13.1759 2.97704C13.3659 2.95677 13.5573 2.99851 13.7217 3.09601C14.4967 3.41504 15.173 3.93391 15.6818 4.59942C15.6938 4.65769 15.7229 4.71557 15.7736 4.76854C15.9943 5.00057 16.1964 5.24967 16.378 5.51351C16.5109 5.71808 16.6032 5.94581 16.6503 6.18426C16.5191 6.31932 16.5129 6.56623 16.6315 6.70083C16.6053 6.79164 16.5675 6.87921 16.5186 6.96129C16.4741 7.05204 16.409 7.13111 16.3284 7.19213C16.2478 7.25316 16.1541 7.29444 16.0547 7.31269C15.9646 7.33898 15.8882 7.39888 15.8411 7.47999C15.794 7.56109 15.7799 7.65721 15.8017 7.74843C15.8278 7.8379 15.8884 7.91333 15.9701 7.95815C16.0518 8.00296 16.1479 8.01348 16.2374 7.98738C16.5747 7.88799 16.8694 7.67952 17.0755 7.39462C17.2199 7.19498 17.3149 6.96573 17.3551 6.72548C17.8811 6.61254 18.3754 6.37637 18.7959 6.03364C19.2638 5.66424 19.7857 5.05754 19.7662 4.43087C19.8076 4.4234 19.85 4.40561 19.892 4.37537C20.8866 3.73508 21.9784 3.26038 23.125 2.96976C23.1427 2.96057 23.1595 2.94999 23.1753 2.93817C23.1912 2.94038 23.2074 2.9415 23.2236 2.9415H23.8281L24.1513 3.02584H24.3903C24.4888 3.07366 24.5829 3.13009 24.6714 3.1945L24.7979 3.27886H24.8682C25.025 3.40909 25.159 3.5644 25.2649 3.73844C24.4793 4.51576 23.7327 5.33209 23.0125 6.17468C22.9481 6.24037 22.912 6.32868 22.912 6.42066C22.912 6.51265 22.9481 6.60094 23.0125 6.66663C23.0805 6.73192 23.1712 6.76838 23.2655 6.76838C23.3598 6.76838 23.4505 6.73192 23.5185 6.66663C24.166 5.89461 24.8576 5.14466 25.5738 4.42653C26.3343 5.43796 26.7323 6.67816 26.7005 7.94627C26.0104 8.66098 25.2763 9.33207 24.5025 9.9556C24.4689 9.98715 24.4421 10.0252 24.4238 10.0676C24.4055 10.1099 24.396 10.1555 24.396 10.2016C24.396 10.2477 24.4055 10.2933 24.4238 10.3356C24.4421 10.3779 24.4689 10.416 24.5025 10.4475C24.5698 10.5088 24.6575 10.5427 24.7485 10.5427C24.8395 10.5427 24.9272 10.5088 24.9945 10.4475C25.8052 9.79797 26.5727 9.0963 27.2919 8.34702C27.7425 9.04129 28.1123 9.78489 28.3941 10.5634L18.3383 18.8398C17.3262 18.5713 16.3776 18.1028 15.5489 17.4615C15.4657 17.4181 15.3694 17.407 15.2786 17.4303C15.1877 17.4537 15.1088 17.5098 15.0569 17.588C15.0275 17.6488 15.015 17.7159 15.0202 17.7824L9.15569 25.8306L1.82829 19.4275C5.22839 17.0225 8.46429 14.3935 11.5146 11.5576C11.5415 11.533 11.5631 11.5073 11.5799 11.4808C12.0128 11.5034 12.4456 11.4145 12.8361 11.2208C13.0288 11.1148 13.1885 10.9576 13.2976 10.7666C13.3625 10.6531 13.408 10.5302 13.4329 10.403C13.5578 10.5077 13.7436 10.5578 13.8903 10.4757C14.5886 10.2243 15.1693 9.72368 15.5208 9.07004C15.6242 8.72232 15.6233 8.35193 15.5184 8.00468C15.4135 7.65742 15.209 7.34853 14.9304 7.11624C13.7527 5.95112 12.4355 4.93608 11.0087 4.09418C10.9295 4.05835 10.8397 4.0532 10.7569 4.07972C10.6855 4.10258 10.6236 4.14757 10.5799 4.2077C10.5487 4.21252 10.518 4.22156 10.4888 4.23477C10.0443 4.53349 9.71449 4.97445 9.55359 5.48527C9.44369 5.83403 9.41699 6.20122 9.47259 6.55808C9.40349 6.56333 9.33449 6.57137 9.26579 6.58223C9.06469 6.63743 8.87829 6.73671 8.72029 6.87285C8.56229 7.009 8.43649 7.1786 8.35219 7.36937C8.27859 7.60217 8.25559 7.84801 8.28469 8.09041C8.31379 8.33282 8.39429 8.5662 8.52079 8.77499C8.80429 9.27317 9.13369 9.74376 9.50479 10.1806C9.85149 10.6161 10.2512 11.0067 10.6945 11.3434C7.68559 14.1165 4.49919 16.6907 1.15529 19.0495C1.02229 19.1467 0.986089 19.2885 1.01079 19.4168C0.982789 19.5183 1.00669 19.6312 1.11319 19.7244L8.91429 26.5416C9.08909 26.7018 9.30529 26.6432 9.42629 26.5085C9.50209 26.4908 9.57429 26.4478 9.63119 26.373L15.468 18.3491C16.3175 18.9169 17.2641 19.3261 18.2617 19.5559C18.3069 19.5679 18.3541 19.5708 18.4005 19.5646C18.4428 19.5589 18.4838 19.5457 18.5214 19.5255C18.5863 19.519 18.6517 19.4934 18.7117 19.4434V19.4294L19.1517 19.0671C20.2392 21.5136 21.4456 23.9071 22.7318 26.2607C22.7934 26.3684 22.8834 26.4172 22.9773 26.4237C23.0933 26.476 23.2335 26.4705 23.3501 26.359L30.3781 20.0056C30.6838 19.7255 30.3088 19.2954 29.9847 19.4364L24.9524 14.6502C24.849 14.5513 24.7269 14.5343 24.6193 14.5671L28.9586 10.9957C28.9689 10.987 28.9786 10.9781 28.9875 10.9691C28.9991 10.9617 29.0104 10.9536 29.0211 10.9449C29.0593 10.9138 29.0905 10.875 29.1127 10.8311C29.135 10.7872 29.1478 10.7391 29.1502 10.69C29.1527 10.6408 29.1448 10.5917 29.1271 10.5457C28.7901 9.54846 28.3171 8.60246 27.7215 7.73451C27.7012 7.6897 27.6718 7.64965 27.6351 7.61693C27.5984 7.58421 27.5552 7.55956 27.5084 7.54457C27.5014 7.54234 27.4944 7.54034 27.4874 7.53855C27.4586 7.51937 27.4271 7.50458 27.3941 7.49462C27.3213 6.10753 26.802 4.77512 25.9057 3.70064C25.9094 3.69073 25.9125 3.68061 25.9153 3.67033C25.9193 3.655 25.9223 3.6395 25.9242 3.62394L25.9365 3.64431L25.9263 3.60119C25.9304 3.53332 25.9146 3.46518 25.8803 3.40536L25.9263 3.60119C25.9259 3.60878 25.9252 3.61637 25.9242 3.62394C25.6485 3.16935 25.2529 2.79929 24.7805 2.55456C24.3012 2.30618 23.7619 2.19678 23.2236 2.2387C23.1587 2.2387 23.0957 2.25665 23.0412 2.2898C23.0044 2.28107 22.9663 2.27802 22.9282 2.281V2.25288C22.6652 2.32322 22.4051 2.40266 22.1482 2.49102C22.1491 2.48315 22.1498 2.47525 22.1502 2.46731C22.1527 2.41815 22.1448 2.36902 22.127 2.3231ZM24.3831 14.7615L19.7089 18.6086C20.7642 20.9782 21.9197 23.3018 23.1754 25.5796L29.4467 19.8978L24.4463 15.1421C24.3225 15.0236 24.3203 14.8783 24.3831 14.7615ZM13.4074 9.93447C13.4421 9.90662 13.4856 9.88058 13.5389 9.85718C14.1152 9.60417 14.832 9.18248 14.9445 8.62023C15.0447 8.11907 14.5642 7.68491 14.1799 7.33767C14.133 7.29535 14.0876 7.25432 14.0449 7.21462C13.0648 6.31704 12.0044 5.51155 10.8771 4.80823C10.8656 4.81933 10.8533 4.82968 10.8402 4.8392H10.7558L10.6293 4.95163L10.5169 5.06408V5.13436C10.4557 5.22015 10.3994 5.30932 10.3482 5.40143C10.3426 5.44812 10.3426 5.49532 10.3482 5.542V5.69662C10.3548 5.72435 10.3548 5.75323 10.3482 5.78095C10.3415 5.88861 10.3415 5.99658 10.3482 6.10424V6.20264C10.3416 6.23037 10.3416 6.25925 10.3482 6.28698C10.3682 6.3892 10.4012 6.4884 10.4466 6.58214L10.4046 6.6586C10.4822 6.68183 10.5589 6.70877 10.6344 6.7394C11.0678 6.91525 11.4451 7.20596 11.7256 7.58023C12.077 7.94569 12.4003 8.33925 12.7096 8.73282C13.0439 9.06643 13.284 9.48105 13.4074 9.93447ZM9.26579 7.39749C9.44149 7.29136 9.61049 7.24621 9.77199 7.24418L9.77659 7.24671C9.85659 7.29059 9.94969 7.30417 10.039 7.28495L10.0499 7.28189C10.3934 7.37781 10.6972 7.6389 10.9526 7.86135C11.5276 8.41227 12.0455 9.01974 12.4987 9.67458C12.7236 9.96976 12.8923 10.279 12.4987 10.5461C12.1368 10.7523 11.7129 10.8222 11.304 10.7429C11.2282 10.7429 11.1652 10.7624 11.115 10.7949C11.0958 10.7754 11.0744 10.7579 11.0509 10.7429C10.4667 10.2616 9.95539 9.69818 9.53289 9.07018C9.20959 8.64849 8.59109 7.80512 9.26579 7.39749Z" fill="black"/>
</mask>
<g mask="url(#mask0_121_33)">
<path fill-rule="evenodd" clip-rule="evenodd" d="M22.127 2.3231C21.983 1.96058 21.7412 1.64515 21.4285 1.41188C21.1158 1.17861 20.7445 1.03665 20.356 1.00182C19.9733 0.985812 19.5936 1.07579 19.2588 1.26181C18.9239 1.44782 18.647 1.72265 18.4584 2.05603C18.2476 2.4496 18.852 2.801 19.0628 2.40743C19.189 2.18872 19.3718 2.00805 19.5919 1.88438C19.812 1.76071 20.0614 1.69861 20.3138 1.70462C20.5568 1.72781 20.7896 1.81388 20.9892 1.95436C21.1889 2.09485 21.3485 2.28492 21.4524 2.50583C21.4602 2.55443 21.4782 2.60083 21.5051 2.64203C21.5215 2.66713 21.5411 2.68996 21.5632 2.71C20.8569 2.99613 20.1794 3.35129 19.5406 3.77095C19.5356 3.77411 19.5307 3.77735 19.526 3.78065C19.4083 3.59206 19.2671 3.41857 19.1052 3.26458C18.8287 2.97373 18.5379 2.69695 18.2337 2.43527C17.685 1.85647 16.9662 1.46753 16.1815 1.32484C15.8239 1.28032 15.4618 1.36098 15.1569 1.55316C14.852 1.74534 14.623 2.03717 14.5088 2.37905C14.5023 2.4631 14.525 2.54684 14.5731 2.61608C14.6212 2.68531 14.6917 2.73578 14.7728 2.75894C14.8538 2.7821 14.9404 2.77653 15.0178 2.74316C15.0953 2.70978 15.1588 2.65067 15.1976 2.57584L15.2116 2.58989C15.3663 1.97142 16.1534 1.95736 16.6173 2.1682C17.3021 2.52256 17.9166 2.99889 18.4305 3.57381C18.6984 3.79261 18.9104 4.07207 19.0489 4.38907C19.1192 4.69831 18.8241 5.03565 18.6273 5.2465C18.2658 5.62032 17.8099 5.88449 17.312 6.01364C17.1631 5.35325 16.8089 4.75316 16.2955 4.3025C16.2908 4.28034 16.284 4.25862 16.2751 4.23766C16.2566 4.19419 16.2295 4.15488 16.1955 4.1221C15.554 3.26127 14.6519 2.63031 13.6233 2.32292C13.3767 2.25182 13.1153 2.2496 12.8675 2.3165C12.6197 2.38341 12.395 2.51688 12.2177 2.70244C11.8984 3.05497 11.6588 3.47202 11.5149 3.92532C11.4935 4.01473 11.508 4.10896 11.5553 4.1878C11.6026 4.26663 11.6789 4.32378 11.7679 4.347C11.8112 4.35976 11.8567 4.36366 11.9016 4.35848C11.9466 4.3533 11.99 4.33914 12.0293 4.31685C12.0686 4.29456 12.1031 4.26459 12.1306 4.22872C12.1581 4.19285 12.1782 4.15182 12.1895 4.10805H12.1614C12.2731 3.77953 12.4447 3.47452 12.6675 3.20846C12.8075 3.07849 12.9859 2.9973 13.1759 2.97704C13.3659 2.95677 13.5573 2.99851 13.7217 3.09601C14.4967 3.41504 15.173 3.93391 15.6818 4.59942C15.6938 4.65769 15.7229 4.71557 15.7736 4.76854C15.9943 5.00057 16.1964 5.24967 16.378 5.51351C16.5109 5.71808 16.6032 5.94581 16.6503 6.18426C16.5191 6.31932 16.5129 6.56623 16.6315 6.70083C16.6053 6.79164 16.5675 6.87921 16.5186 6.96129C16.4741 7.05204 16.409 7.13111 16.3284 7.19213C16.2478 7.25316 16.1541 7.29444 16.0547 7.31269C15.9646 7.33898 15.8882 7.39888 15.8411 7.47999C15.794 7.56109 15.7799 7.65721 15.8017 7.74843C15.8278 7.8379 15.8884 7.91333 15.9701 7.95815C16.0518 8.00296 16.1479 8.01348 16.2374 7.98738C16.5747 7.88799 16.8694 7.67952 17.0755 7.39462C17.2199 7.19498 17.3149 6.96573 17.3551 6.72548C17.8811 6.61254 18.3754 6.37637 18.7959 6.03364C19.2638 5.66424 19.7857 5.05754 19.7662 4.43087C19.8076 4.4234 19.85 4.40561 19.892 4.37537C20.8866 3.73508 21.9784 3.26038 23.125 2.96976C23.1427 2.96057 23.1595 2.94999 23.1753 2.93817C23.1912 2.94038 23.2074 2.9415 23.2236 2.9415H23.8281L24.1513 3.02584H24.3903C24.4888 3.07366 24.5829 3.13009 24.6714 3.1945L24.7979 3.27886H24.8682C25.025 3.40909 25.159 3.5644 25.2649 3.73844C24.4793 4.51576 23.7327 5.33209 23.0125 6.17468C22.9481 6.24037 22.912 6.32868 22.912 6.42066C22.912 6.51265 22.9481 6.60094 23.0125 6.66663C23.0805 6.73192 23.1712 6.76838 23.2655 6.76838C23.3598 6.76838 23.4505 6.73192 23.5185 6.66663C24.166 5.89461 24.8576 5.14466 25.5738 4.42653C26.3343 5.43796 26.7323 6.67816 26.7005 7.94627C26.0104 8.66098 25.2763 9.33207 24.5025 9.9556C24.4689 9.98715 24.4421 10.0252 24.4238 10.0676C24.4055 10.1099 24.396 10.1555 24.396 10.2016C24.396 10.2477 24.4055 10.2933 24.4238 10.3356C24.4421 10.3779 24.4689 10.416 24.5025 10.4475C24.5698 10.5088 24.6575 10.5427 24.7485 10.5427C24.8395 10.5427 24.9272 10.5088 24.9945 10.4475C25.8052 9.79797 26.5727 9.0963 27.2919 8.34702C27.7425 9.04129 28.1123 9.78489 28.3941 10.5634L18.3383 18.8398C17.3262 18.5713 16.3776 18.1028 15.5489 17.4615C15.4657 17.4181 15.3694 17.407 15.2786 17.4303C15.1877 17.4537 15.1088 17.5098 15.0569 17.588C15.0275 17.6488 15.015 17.7159 15.0202 17.7824L9.15569 25.8306L1.82829 19.4275C5.22839 17.0225 8.46429 14.3935 11.5146 11.5576C11.5415 11.533 11.5631 11.5073 11.5799 11.4808C12.0128 11.5034 12.4456 11.4145 12.8361 11.2208C13.0288 11.1148 13.1885 10.9576 13.2976 10.7666C13.3625 10.6531 13.408 10.5302 13.4329 10.403C13.5578 10.5077 13.7436 10.5578 13.8903 10.4757C14.5886 10.2243 15.1693 9.72368 15.5208 9.07004C15.6242 8.72232 15.6233 8.35193 15.5184 8.00468C15.4135 7.65742 15.209 7.34853 14.9304 7.11624C13.7527 5.95112 12.4355 4.93608 11.0087 4.09418C10.9295 4.05835 10.8397 4.0532 10.7569 4.07972C10.6855 4.10258 10.6236 4.14757 10.5799 4.2077C10.5487 4.21252 10.518 4.22156 10.4888 4.23477C10.0443 4.53349 9.71449 4.97445 9.55359 5.48527C9.44369 5.83403 9.41699 6.20122 9.47259 6.55808C9.40349 6.56333 9.33449 6.57137 9.26579 6.58223C9.06469 6.63743 8.87829 6.73671 8.72029 6.87285C8.56229 7.009 8.43649 7.1786 8.35219 7.36937C8.27859 7.60217 8.25559 7.84801 8.28469 8.09041C8.31379 8.33282 8.39429 8.5662 8.52079 8.77499C8.80429 9.27317 9.13369 9.74376 9.50479 10.1806C9.85149 10.6161 10.2512 11.0067 10.6945 11.3434C7.68559 14.1165 4.49919 16.6907 1.15529 19.0495C1.02229 19.1467 0.986089 19.2885 1.01079 19.4168C0.982789 19.5183 1.00669 19.6312 1.11319 19.7244L8.91429 26.5416C9.08909 26.7018 9.30529 26.6432 9.42629 26.5085C9.50209 26.4908 9.57429 26.4478 9.63119 26.373L15.468 18.3491C16.3175 18.9169 17.2641 19.3261 18.2617 19.5559C18.3069 19.5679 18.3541 19.5708 18.4005 19.5646C18.4428 19.5589 18.4838 19.5457 18.5214 19.5255C18.5863 19.519 18.6517 19.4934 18.7117 19.4434V19.4294L19.1517 19.0671C20.2392 21.5136 21.4456 23.9071 22.7318 26.2607C22.7934 26.3684 22.8834 26.4172 22.9773 26.4237C23.0933 26.476 23.2335 26.4705 23.3501 26.359L30.3781 20.0056C30.6838 19.7255 30.3088 19.2954 29.9847 19.4364L24.9524 14.6502C24.849 14.5513 24.7269 14.5343 24.6193 14.5671L28.9586 10.9957C28.9689 10.987 28.9786 10.9781 28.9875 10.9691C28.9991 10.9617 29.0104 10.9536 29.0211 10.9449C29.0593 10.9138 29.0905 10.875 29.1127 10.8311C29.135 10.7872 29.1478 10.7391 29.1502 10.69C29.1527 10.6408 29.1448 10.5917 29.1271 10.5457C28.7901 9.54846 28.3171 8.60246 27.7215 7.73451C27.7012 7.6897 27.6718 7.64965 27.6351 7.61693C27.5984 7.58421 27.5552 7.55956 27.5084 7.54457C27.5014 7.54234 27.4944 7.54034 27.4874 7.53855C27.4586 7.51937 27.4271 7.50458 27.3941 7.49462C27.3213 6.10753 26.802 4.77512 25.9057 3.70064C25.9094 3.69073 25.9125 3.68061 25.9153 3.67033C25.9193 3.655 25.9223 3.6395 25.9242 3.62394L25.9365 3.64431L25.9263 3.60119C25.9304 3.53332 25.9146 3.46518 25.8803 3.40536L25.9263 3.60119C25.9259 3.60878 25.9252 3.61637 25.9242 3.62394C25.6485 3.16935 25.2529 2.79929 24.7805 2.55456C24.3012 2.30618 23.7619 2.19678 23.2236 2.2387C23.1587 2.2387 23.0957 2.25665 23.0412 2.2898C23.0044 2.28107 22.9663 2.27802 22.9282 2.281V2.25288C22.6652 2.32322 22.4051 2.40266 22.1482 2.49102C22.1491 2.48315 22.1498 2.47525 22.1502 2.46731C22.1527 2.41815 22.1448 2.36902 22.127 2.3231ZM24.3831 14.7615L19.7089 18.6086C20.7642 20.9782 21.9197 23.3018 23.1754 25.5796L29.4467 19.8978L24.4463 15.1421C24.3225 15.0236 24.3203 14.8783 24.3831 14.7615ZM13.4074 9.93447C13.4421 9.90662 13.4856 9.88058 13.5389 9.85718C14.1152 9.60417 14.832 9.18248 14.9445 8.62023C15.0447 8.11907 14.5642 7.68491 14.1799 7.33767C14.133 7.29535 14.0876 7.25432 14.0449 7.21462C13.0648 6.31704 12.0044 5.51155 10.8771 4.80823C10.8656 4.81933 10.8533 4.82968 10.8402 4.8392H10.7558L10.6293 4.95163L10.5169 5.06408V5.13436C10.4557 5.22015 10.3994 5.30932 10.3482 5.40143C10.3426 5.44812 10.3426 5.49532 10.3482 5.542V5.69662C10.3548 5.72435 10.3548 5.75323 10.3482 5.78095C10.3415 5.88861 10.3415 5.99658 10.3482 6.10424V6.20264C10.3416 6.23037 10.3416 6.25925 10.3482 6.28698C10.3682 6.3892 10.4012 6.4884 10.4466 6.58214L10.4046 6.6586C10.4822 6.68183 10.5589 6.70877 10.6344 6.7394C11.0678 6.91525 11.4451 7.20596 11.7256 7.58023C12.077 7.94569 12.4003 8.33925 12.7096 8.73282C13.0439 9.06643 13.284 9.48105 13.4074 9.93447ZM9.26579 7.39749C9.44149 7.29136 9.61049 7.24621 9.77199 7.24418L9.77659 7.24671C9.85659 7.29059 9.94969 7.30417 10.039 7.28495L10.0499 7.28189C10.3934 7.37781 10.6972 7.6389 10.9526 7.86135C11.5276 8.41227 12.0455 9.01974 12.4987 9.67458C12.7236 9.96976 12.8923 10.279 12.4987 10.5461C12.1368 10.7523 11.7129 10.8222 11.304 10.7429C11.2282 10.7429 11.1652 10.7624 11.115 10.7949C11.0958 10.7754 11.0744 10.7579 11.0509 10.7429C10.4667 10.2616 9.95539 9.69818 9.53289 9.07018C9.20959 8.64849 8.59109 7.80512 9.26579 7.39749Z" fill="#1C089D"/>
<path d="M22.1274 2.323L22.2207 2.28697L22.2204 2.28606L22.1274 2.323ZM21.4289 1.41178L21.4887 1.33163L21.4289 1.41178ZM20.3564 1.00172L20.3653 0.902005L20.3606 0.901806L20.3564 1.00172ZM19.2592 1.26171L19.3077 1.34912L19.2592 1.26171ZM18.4588 2.05593L18.3718 2.00668L18.3707 2.0087L18.4588 2.05593ZM19.0632 2.40733L18.9766 2.35733L18.9751 2.36011L19.0632 2.40733ZM19.5923 1.88428L19.5433 1.79709L19.5923 1.88428ZM20.3142 1.70452L20.3238 1.60472L20.3166 1.60455L20.3142 1.70452ZM21.4528 2.50573L21.5515 2.48976C21.55 2.48056 21.5472 2.47162 21.5433 2.46318L21.4528 2.50573ZM21.5055 2.64193L21.5892 2.5872L21.5055 2.64193ZM21.5636 2.7099L21.6011 2.80258C21.633 2.78966 21.656 2.76127 21.662 2.7274C21.668 2.69353 21.6562 2.65895 21.6307 2.63583L21.5636 2.7099ZM19.541 3.77085L19.5943 3.85549L19.5959 3.85443L19.541 3.77085ZM19.5264 3.78055L19.4415 3.83347C19.456 3.85667 19.4793 3.87294 19.5061 3.87847C19.5329 3.88401 19.5608 3.87834 19.5833 3.86277L19.5264 3.78055ZM19.1056 3.26448L19.033 3.33346L19.0367 3.33693L19.1056 3.26448ZM18.2341 2.43517L18.1612 2.50433L18.1689 2.51098L18.2341 2.43517ZM16.1819 1.32474L16.1998 1.2262L16.1943 1.22551L16.1819 1.32474ZM15.1573 1.55306L15.104 1.46846L15.1573 1.55306ZM14.5092 2.37895L14.4144 2.34729C14.4118 2.35502 14.4102 2.36303 14.4095 2.37116L14.5092 2.37895ZM14.5735 2.61598L14.4913 2.67303V2.67304L14.5735 2.61598ZM14.7732 2.75884L14.7457 2.85499L14.7732 2.75884ZM15.0182 2.74306L15.0578 2.83489L15.0182 2.74306ZM15.198 2.57574L15.2686 2.50498C15.2461 2.48246 15.2142 2.47204 15.1827 2.47692C15.1512 2.4818 15.1239 2.5014 15.1092 2.52969L15.198 2.57574ZM15.212 2.58979L15.1414 2.66055C15.1669 2.686 15.2041 2.69578 15.2388 2.68615C15.2735 2.67652 15.3003 2.64898 15.3091 2.61404L15.212 2.58979ZM16.6177 2.1681L16.6637 2.07917L16.659 2.07706L16.6177 2.1681ZM18.4309 3.57371L18.3563 3.64036C18.3598 3.64425 18.3636 3.64787 18.3676 3.65117L18.4309 3.57371ZM19.0493 4.38897L19.1469 4.36681C19.1455 4.36068 19.1435 4.35469 19.141 4.34893L19.0493 4.38897ZM18.6277 5.2464L18.6996 5.31592L18.7008 5.31463L18.6277 5.2464ZM17.3124 6.01354L17.2148 6.03553C17.2208 6.06194 17.2372 6.08482 17.2603 6.09892C17.2834 6.11301 17.3113 6.11714 17.3375 6.11034L17.3124 6.01354ZM16.2959 4.3024L16.198 4.32308C16.2025 4.3442 16.2137 4.36331 16.2299 4.37756L16.2959 4.3024ZM16.2755 4.23756L16.3675 4.19845V4.19844L16.2755 4.23756ZM16.1959 4.122L16.1157 4.18176C16.119 4.18613 16.1226 4.19022 16.1265 4.194L16.1959 4.122ZM13.6237 2.32282L13.6523 2.227L13.6514 2.22673L13.6237 2.32282ZM12.8679 2.3164L12.894 2.41295L12.8679 2.3164ZM12.2181 2.70234L12.1457 2.63323L12.1439 2.63522L12.2181 2.70234ZM11.5153 3.92522L11.4197 3.89488L11.418 3.90197L11.5153 3.92522ZM11.5557 4.1877L11.6415 4.13625L11.5557 4.1877ZM11.7683 4.3469L11.7965 4.25092L11.7935 4.25015L11.7683 4.3469ZM11.902 4.35838L11.9135 4.45772L11.902 4.35838ZM12.0297 4.31675L12.079 4.40375L12.0297 4.31675ZM12.131 4.22862L12.0517 4.16774L12.131 4.22862ZM12.1899 4.10795L12.2867 4.13306C12.2945 4.1031 12.2879 4.07124 12.269 4.04676C12.2501 4.02228 12.2209 4.00795 12.1899 4.00795V4.10795ZM12.1618 4.10795L12.0671 4.07576C12.0568 4.10629 12.0617 4.13996 12.0805 4.16618C12.0993 4.1924 12.1296 4.20795 12.1618 4.20795V4.10795ZM12.6679 3.20836L12.5993 3.13447L12.5912 3.14417L12.6679 3.20836ZM13.7221 3.09591L13.671 3.18191C13.6752 3.18438 13.6795 3.18654 13.684 3.18838L13.7221 3.09591ZM15.6822 4.59932L15.7801 4.57919C15.7771 4.56443 15.7708 4.55055 15.7616 4.53859L15.6822 4.59932ZM15.774 4.76844L15.8464 4.69951L15.8462 4.69931L15.774 4.76844ZM16.3784 5.51341L16.4623 5.45891L16.4608 5.45672L16.3784 5.51341ZM16.6507 6.18416L16.7224 6.25382C16.7453 6.23027 16.7552 6.19698 16.7488 6.16477L16.6507 6.18416ZM16.6319 6.70073L16.728 6.72846C16.7374 6.69564 16.7295 6.66025 16.7069 6.63462L16.6319 6.70073ZM16.519 6.96119L16.4328 6.90983L16.4292 6.91718L16.519 6.96119ZM16.3288 7.19203L16.2684 7.11232L16.3288 7.19203ZM16.0551 7.31259L16.0369 7.21372L16.027 7.2166L16.0551 7.31259ZM15.8415 7.47989L15.928 7.5301L15.8415 7.47989ZM15.8021 7.74833L15.7047 7.7716L15.7061 7.77633L15.8021 7.74833ZM15.9705 7.95805L15.9224 8.04573L15.9705 7.95805ZM16.2378 7.98728L16.2658 8.08328L16.2661 8.0832L16.2378 7.98728ZM17.0759 7.39452L16.9948 7.33592L17.0759 7.39452ZM17.3555 6.72538L17.3345 6.62761C17.2944 6.63622 17.2636 6.66845 17.2568 6.70891L17.3555 6.72538ZM18.7963 6.03354L18.7344 5.95504L18.7332 5.95602L18.7963 6.03354ZM19.7666 4.43077L19.7488 4.33236C19.7 4.34116 19.6651 4.38435 19.6666 4.43389L19.7666 4.43077ZM19.8924 4.37527L19.8382 4.29108L19.834 4.29412L19.8924 4.37527ZM23.1254 2.96966L23.1499 3.0666C23.1574 3.06471 23.1646 3.06197 23.1714 3.05843L23.1254 2.96966ZM23.1757 2.93807L23.1895 2.83902C23.1634 2.8354 23.137 2.84221 23.1159 2.85796L23.1757 2.93807ZM23.8285 2.9414L23.8537 2.84464C23.8455 2.84249 23.837 2.8414 23.8285 2.8414V2.9414ZM24.1517 3.02574L24.1265 3.1225C24.1347 3.12465 24.1432 3.12574 24.1517 3.12574V3.02574ZM24.3907 3.02574L24.4344 2.93578C24.4208 2.92917 24.4058 2.92574 24.3907 2.92574V3.02574ZM24.6718 3.1944L24.6129 3.27534L24.6163 3.2776L24.6718 3.1944ZM24.7983 3.27876L24.7428 3.36196C24.7593 3.37291 24.7786 3.37876 24.7983 3.37876V3.27876ZM24.8686 3.27876L24.9325 3.20184C24.9146 3.18692 24.892 3.17876 24.8686 3.17876V3.27876ZM25.2653 3.73834L25.3356 3.80942C25.3685 3.77685 25.3748 3.72594 25.3507 3.68637L25.2653 3.73834ZM23.0129 6.17458L23.0844 6.24474L23.0889 6.23956L23.0129 6.17458ZM23.0129 6.66653L22.9414 6.73656L22.9436 6.73869L23.0129 6.66653ZM23.5189 6.66653L23.5885 6.73911L23.5955 6.73079L23.5189 6.66653ZM25.5742 4.42643L25.6541 4.36634C25.6367 4.34316 25.6101 4.32869 25.5812 4.32668C25.5522 4.32466 25.5239 4.33529 25.5034 4.35582L25.5742 4.42643ZM26.7009 7.94617L26.7728 8.01563C26.7902 7.99761 26.8002 7.97372 26.8009 7.94868L26.7009 7.94617ZM24.5029 9.9555L24.44 9.87741L24.4345 9.88258L24.5029 9.9555ZM24.4242 10.0675L24.5159 10.1072L24.4242 10.0675ZM24.4242 10.3355L24.5159 10.2958L24.4242 10.3355ZM24.5029 10.4474L24.4344 10.5204L24.4356 10.5214L24.5029 10.4474ZM24.9949 10.4474L24.9322 10.3693L24.9276 10.3735L24.9949 10.4474ZM27.2923 8.34692L27.3762 8.29248C27.3596 8.26687 27.3322 8.25025 27.3018 8.24737C27.2714 8.24448 27.2413 8.25564 27.2202 8.27767L27.2923 8.34692ZM28.3945 10.5633L28.4581 10.6405C28.4907 10.6136 28.5029 10.5691 28.4885 10.5293L28.3945 10.5633ZM18.3387 18.8397L18.3131 18.9363C18.3442 18.9446 18.3774 18.9373 18.4023 18.9169L18.3387 18.8397ZM15.5493 17.4614L15.6105 17.3823C15.6058 17.3787 15.6008 17.3755 15.5956 17.3728L15.5493 17.4614ZM15.279 17.4302L15.3039 17.5271L15.279 17.4302ZM15.0573 17.5879L14.9732 17.5321L14.9673 17.5444L15.0573 17.5879ZM15.0206 17.7823L15.1014 17.8412C15.1154 17.822 15.1221 17.7984 15.1203 17.7746L15.0206 17.7823ZM9.15612 25.8305L9.09032 25.9058C9.11142 25.9243 9.13932 25.933 9.16722 25.9299C9.19512 25.9268 9.22042 25.9121 9.23692 25.8894L9.15612 25.8305ZM1.82872 19.4274L1.77102 19.3457C1.74592 19.3634 1.73042 19.3916 1.72882 19.4222C1.72732 19.4528 1.73982 19.4825 1.76292 19.5027L1.82872 19.4274ZM11.515 11.5575L11.4475 11.4838L11.4469 11.4843L11.515 11.5575ZM11.5803 11.4807L11.5855 11.3809C11.5495 11.379 11.5153 11.3966 11.496 11.427L11.5803 11.4807ZM12.8365 11.2207L12.881 11.3103L12.8847 11.3083L12.8365 11.2207ZM13.298 10.7665L13.3849 10.8162L13.298 10.7665ZM13.4333 10.4029L13.4975 10.3263C13.4704 10.3036 13.4333 10.2969 13.3999 10.3087C13.3666 10.3205 13.3419 10.349 13.3351 10.3838L13.4333 10.4029ZM13.8907 10.4756L13.8568 10.3815C13.8516 10.3833 13.8466 10.3856 13.8418 10.3883L13.8907 10.4756ZM15.5212 9.06994L15.6093 9.1173C15.6125 9.11129 15.6151 9.10497 15.617 9.09843L15.5212 9.06994ZM15.5188 8.00458L15.6145 7.97565L15.5188 8.00458ZM14.9308 7.11614L14.8602 7.18748L14.8668 7.19295L14.9308 7.11614ZM11.0091 4.09408L11.0603 4.00744L11.0503 4.00295L11.0091 4.09408ZM10.7573 4.07962L10.7268 3.98438L10.7573 4.07962ZM10.5803 4.2076L10.5955 4.30643C10.6218 4.30237 10.6455 4.28796 10.6611 4.26642L10.5803 4.2076ZM10.4892 4.23467L10.448 4.14355C10.4429 4.14584 10.438 4.14856 10.4334 4.15167L10.4892 4.23467ZM9.55402 5.48517L9.45862 5.45513L9.55402 5.48517ZM9.47302 6.55798L9.48062 6.65769C9.50842 6.65558 9.53402 6.64196 9.55142 6.6201C9.56872 6.59825 9.57612 6.57015 9.57182 6.5426L9.47302 6.55798ZM9.26622 6.58213L9.25052 6.48275L9.23972 6.4857L9.26622 6.58213ZM8.35262 7.36927L8.26052 7.32859L8.25722 7.33914L8.35262 7.36927ZM8.28512 8.09031L8.38442 8.0784L8.28512 8.09031ZM8.52122 8.77489L8.60822 8.72542L8.60682 8.72305L8.52122 8.77489ZM9.50522 10.1805L9.58342 10.1182L9.58142 10.1158L9.50522 10.1805ZM10.6949 11.3433L10.7626 11.4169C10.7844 11.3968 10.7962 11.3681 10.7948 11.3386C10.7934 11.309 10.7789 11.2816 10.7554 11.2637L10.6949 11.3433ZM1.15572 19.0494L1.09802 18.9677L1.09672 18.9687L1.15572 19.0494ZM1.01122 19.4167L1.10762 19.4432C1.11162 19.4284 1.11232 19.4129 1.10942 19.3978L1.01122 19.4167ZM1.11362 19.7243L1.04782 19.7996L1.11362 19.7243ZM8.91472 26.5415L8.98232 26.4678L8.98062 26.4662L8.91472 26.5415ZM9.42672 26.5084L9.40392 26.4111C9.38402 26.4157 9.36602 26.4264 9.35232 26.4416L9.42672 26.5084ZM9.63162 26.3729L9.71122 26.4334L9.71252 26.4317L9.63162 26.3729ZM15.4684 18.349L15.524 18.2658C15.4793 18.236 15.4191 18.2467 15.3875 18.2901L15.4684 18.349ZM18.2621 19.5558L18.2878 19.4591L18.2845 19.4583L18.2621 19.5558ZM18.4009 19.5645L18.4142 19.6636L18.4009 19.5645ZM18.5218 19.5254L18.5118 19.4259C18.4987 19.4272 18.4861 19.4311 18.4746 19.4373L18.5218 19.5254ZM18.7121 19.4433L18.7761 19.5201C18.7989 19.5011 18.8121 19.473 18.8121 19.4433H18.7121ZM18.7121 19.4293L18.6485 19.352C18.6254 19.371 18.6121 19.3994 18.6121 19.4293H18.7121ZM19.1521 19.067L19.2435 19.0264C19.2308 18.9979 19.2055 18.9769 19.1751 18.9697C19.1447 18.9625 19.1127 18.97 19.0886 18.9898L19.1521 19.067ZM22.7322 26.2606L22.6444 26.3086L22.6454 26.3102L22.7322 26.2606ZM22.9777 26.4236L23.0189 26.3324C23.0081 26.3276 22.9965 26.3246 22.9846 26.3238L22.9777 26.4236ZM23.3505 26.3589L23.2834 26.2847L23.2814 26.2866L23.3505 26.3589ZM30.3785 20.0055L30.4456 20.0797L30.4461 20.0792L30.3785 20.0055ZM29.9851 19.4363L29.9162 19.5087C29.9453 19.5364 29.9882 19.544 30.025 19.528L29.9851 19.4363ZM24.9528 14.6501L24.8837 14.7224L24.8839 14.7225L24.9528 14.6501ZM24.6197 14.567L24.5561 14.4898C24.5193 14.5201 24.509 14.5723 24.5315 14.6143C24.5541 14.6563 24.6032 14.6766 24.6488 14.6627L24.6197 14.567ZM28.959 10.9956L29.0225 11.0728L29.0233 11.0721L28.959 10.9956ZM28.9879 10.969L28.9343 10.8846C28.928 10.8886 28.9221 10.8933 28.9168 10.8987L28.9879 10.969ZM29.0215 10.9448L28.9584 10.8672L29.0215 10.9448ZM29.1131 10.831L29.0239 10.7858L29.1131 10.831ZM29.1506 10.6899L29.2505 10.6949L29.1506 10.6899ZM29.1275 10.5456L29.0326 10.5777L29.0342 10.5817L29.1275 10.5456ZM27.7219 7.73441L27.6307 7.77559C27.6332 7.78097 27.6361 7.78612 27.6394 7.79099L27.7219 7.73441ZM27.6355 7.61683L27.702 7.54219L27.6355 7.61683ZM27.5088 7.54447L27.4783 7.6397L27.5088 7.54447ZM27.4878 7.53845L27.4324 7.62169C27.4418 7.62798 27.4522 7.63261 27.4633 7.6354L27.4878 7.53845ZM27.3945 7.49452L27.2947 7.49977C27.2969 7.54188 27.3253 7.57808 27.3656 7.59026L27.3945 7.49452ZM25.9061 3.70054L25.8122 3.66633C25.8 3.6998 25.8065 3.73724 25.8294 3.7646L25.9061 3.70054ZM25.9157 3.67023L26.0123 3.69581L25.9157 3.67023ZM25.9369 3.64421L25.8512 3.69572C25.8766 3.73795 25.9289 3.7554 25.9746 3.73685C26.0202 3.71829 26.0455 3.66926 26.0342 3.6213L25.9369 3.64421ZM25.8807 3.40526L25.9674 3.35545C25.9426 3.3124 25.8901 3.29401 25.8439 3.31225C25.7977 3.3305 25.7719 3.37985 25.7833 3.42817L25.8807 3.40526ZM24.7809 2.55446L24.7349 2.64325L24.7809 2.55446ZM23.224 2.2386V2.3389L23.2318 2.3383L23.224 2.2386ZM23.0416 2.2897L23.0184 2.38699C23.044 2.39307 23.071 2.38882 23.0935 2.37515L23.0416 2.2897ZM22.9286 2.2809H22.8286C22.8286 2.30878 22.8402 2.33539 22.8607 2.35432C22.8811 2.37325 22.9086 2.38277 22.9364 2.3806L22.9286 2.2809ZM22.9286 2.25278H23.0286C23.0286 2.2217 23.0141 2.19239 22.9895 2.17346C22.9648 2.15454 22.9327 2.14815 22.9027 2.15618L22.9286 2.25278ZM22.1486 2.49092L22.0493 2.47915C22.0453 2.51332 22.0591 2.54716 22.0858 2.56876C22.1126 2.59036 22.1486 2.59667 22.1811 2.58548L22.1486 2.49092ZM22.1506 2.46721L22.2505 2.47223V2.47222L22.1506 2.46721ZM24.3835 14.7614L24.4716 14.8087C24.4942 14.7667 24.4838 14.7145 24.4469 14.6841C24.41 14.6538 24.3568 14.6539 24.3199 14.6842L24.3835 14.7614ZM19.7093 18.6085L19.6457 18.5313C19.611 18.5599 19.5996 18.6081 19.6179 18.6492L19.7093 18.6085ZM23.1758 25.5795L23.0883 25.6277C23.103 25.6545 23.1292 25.6731 23.1594 25.6781C23.1895 25.6831 23.2203 25.6741 23.243 25.6536L23.1758 25.5795ZM29.4471 19.8977L29.5142 19.9718C29.5348 19.9532 29.5467 19.9268 29.547 19.899C29.5474 19.8711 29.5361 19.8444 29.516 19.8253L29.4471 19.8977ZM24.4467 15.142L24.3776 15.2143L24.3778 15.2145L24.4467 15.142ZM13.4078 9.93437L13.3114 9.96063C13.3202 9.99317 13.3449 10.0191 13.3769 10.0295C13.409 10.0399 13.4442 10.0335 13.4705 10.0123L13.4078 9.93437ZM13.5393 9.85708L13.5795 9.94864L13.5393 9.85708ZM14.9449 8.62013L15.0429 8.63974L14.9449 8.62013ZM14.1803 7.33757L14.2473 7.26337L14.1803 7.33757ZM14.0453 7.21452L14.1133 7.14124L14.1128 7.14077L14.0453 7.21452ZM10.8775 4.80813L10.9305 4.72329C10.8916 4.69904 10.8412 4.7043 10.8082 4.73606L10.8775 4.80813ZM10.8406 4.8391V4.9391C10.8617 4.9391 10.8823 4.9324 10.8994 4.91997L10.8406 4.8391ZM10.7562 4.8391V4.7391C10.7318 4.7391 10.7081 4.74808 10.6898 4.76435L10.7562 4.8391ZM10.6297 4.95153L10.5632 4.87665L10.559 4.88082L10.6297 4.95153ZM10.5173 5.06398L10.4466 4.99327C10.4278 5.01203 10.4173 5.03746 10.4173 5.06398H10.5173ZM10.5173 5.13426L10.5987 5.19233C10.6108 5.17538 10.6173 5.15508 10.6173 5.13426H10.5173ZM10.3486 5.40133L10.2612 5.35277C10.2549 5.3641 10.2509 5.37655 10.2493 5.38943L10.3486 5.40133ZM10.3486 5.5419H10.4493L10.4479 5.53L10.3486 5.5419ZM10.3486 5.69652H10.2486C10.2486 5.70429 10.2495 5.71204 10.2513 5.7196L10.3486 5.69652ZM10.3486 5.78085L10.2513 5.75778C10.25 5.76332 10.2492 5.76896 10.2488 5.77464L10.3486 5.78085ZM10.3486 6.10414H10.4488L10.4484 6.09792L10.3486 6.10414ZM10.3486 6.20254L10.4459 6.22562C10.4477 6.21806 10.4486 6.21031 10.4486 6.20254H10.3486ZM10.3486 6.28688L10.4468 6.26771L10.4459 6.2638L10.3486 6.28688ZM10.447 6.58204L10.5346 6.63023C10.5502 6.60184 10.5511 6.56764 10.537 6.53847L10.447 6.58204ZM10.405 6.6585L10.3173 6.61032C10.3028 6.63679 10.301 6.66844 10.3124 6.6964C10.3239 6.72436 10.3474 6.74565 10.3763 6.75431L10.405 6.6585ZM10.6348 6.7393L10.6724 6.64664L10.6348 6.7393ZM11.726 7.58013L11.6454 7.64056L11.6539 7.64944L11.726 7.58013ZM12.71 8.73272L12.6308 8.79495L12.6393 8.80351L12.71 8.73272ZM9.26622 7.39739L9.31792 7.48298L9.26622 7.39739ZM9.77242 7.24408L9.82112 7.15673C9.80592 7.14823 9.78872 7.14387 9.77122 7.14409L9.77242 7.24408ZM9.77702 7.24661L9.72832 7.33396L9.72892 7.33429L9.77702 7.24661ZM10.0394 7.28485L10.0605 7.38278L10.0662 7.38118L10.0394 7.28485ZM10.0503 7.28179L10.0772 7.18548C10.0597 7.18057 10.0411 7.18057 10.0235 7.18546L10.0503 7.28179ZM10.953 7.86125L11.0222 7.78896L11.0186 7.78584L10.953 7.86125ZM12.4991 9.67448L12.4168 9.73144L12.4196 9.73508L12.4991 9.67448ZM12.4991 10.546L12.5488 10.6331L12.5553 10.6287L12.4991 10.546ZM11.3044 10.7428L11.3234 10.6446C11.3171 10.6434 11.3108 10.6428 11.3044 10.6428V10.7428ZM11.1154 10.7948L11.044 10.8648C11.0773 10.8988 11.1299 10.9046 11.1698 10.8788L11.1154 10.7948ZM11.0513 10.7428L10.9873 10.8205L10.9974 10.827L11.0513 10.7428ZM9.53332 9.07008L9.61642 9.01415L9.61262 9.00923L9.53332 9.07008ZM22.2204 2.28606C22.0695 1.90635 21.8162 1.57596 21.4887 1.33163L21.3691 1.49193C21.6669 1.71413 21.8973 2.0146 22.0345 2.35993L22.2204 2.28606ZM21.4887 1.33163C21.1612 1.0873 20.7723 0.938604 20.3653 0.902118L20.3475 1.10132C20.7176 1.1345 21.0712 1.26973 21.3691 1.49193L21.4887 1.33163ZM20.3606 0.901806C19.9595 0.885035 19.5615 0.97934 19.2106 1.17429L19.3077 1.34912C19.6265 1.17205 19.9879 1.0864 20.3522 1.10163L20.3606 0.901806ZM19.2106 1.17429C18.8597 1.36925 18.5694 1.65729 18.3718 2.00669L18.5459 2.10516C18.7254 1.78781 18.989 1.52619 19.3077 1.34912L19.2106 1.17429ZM18.3707 2.0087C18.2333 2.26509 18.3678 2.50581 18.5526 2.61326C18.6455 2.66728 18.7588 2.6936 18.8694 2.67194C18.9831 2.64968 19.0851 2.57828 19.1514 2.45455L18.9751 2.36011C18.9359 2.43317 18.8833 2.46542 18.831 2.47567C18.7756 2.48652 18.7113 2.47418 18.6531 2.44036C18.5357 2.3721 18.4735 2.24033 18.547 2.10315L18.3707 2.0087ZM19.1498 2.4573C19.267 2.25416 19.4368 2.08634 19.6413 1.97146L19.5433 1.79709C19.3075 1.92956 19.1118 2.12309 18.9766 2.35736L19.1498 2.4573ZM19.6413 1.97146C19.8457 1.85659 20.0774 1.79891 20.3119 1.80449L20.3166 1.60455C20.0462 1.59811 19.7791 1.66463 19.5433 1.79709L19.6413 1.97146ZM20.3047 1.80407C20.5305 1.8256 20.7466 1.90555 20.9321 2.03604L21.0472 1.87248C20.8333 1.722 20.584 1.62981 20.3237 1.60497L20.3047 1.80407ZM20.9321 2.03604C21.1175 2.16654 21.2658 2.34309 21.3623 2.54828L21.5433 2.46318C21.432 2.22655 21.261 2.02296 21.0472 1.87248L20.9321 2.03604ZM21.3541 2.5217C21.3642 2.5841 21.3872 2.6437 21.4218 2.69665L21.5892 2.5872C21.57 2.55775 21.5571 2.52456 21.5515 2.48976L21.3541 2.5217ZM21.4218 2.69665C21.4429 2.72889 21.468 2.75821 21.4964 2.78396L21.6307 2.63583C21.6149 2.6215 21.601 2.60516 21.5892 2.5872L21.4218 2.69665ZM21.526 2.61722C20.8137 2.90581 20.1304 3.26401 19.4861 3.68727L19.5959 3.85443C20.2292 3.43836 20.9009 3.08626 21.6011 2.80258L21.526 2.61722ZM19.4878 3.68622C19.4814 3.6902 19.4753 3.69424 19.4694 3.69832L19.5833 3.86277C19.5869 3.86026 19.5906 3.85783 19.5943 3.85548L19.4878 3.68622ZM19.6112 3.72762C19.4891 3.5319 19.3425 3.35184 19.1745 3.19202L19.0367 3.33693C19.1924 3.48509 19.3283 3.65202 19.4415 3.83347L19.6112 3.72762ZM19.1781 3.19558C18.8993 2.90231 18.606 2.62322 18.2993 2.35936L18.1689 2.51098C18.4705 2.77048 18.759 3.04495 19.0331 3.33337L19.1781 3.19558ZM18.3067 2.36637C17.7434 1.77215 17.0054 1.37285 16.1998 1.22636L16.164 1.42313C16.9278 1.56202 17.6275 1.94059 18.1615 2.50397L18.3067 2.36637ZM16.1943 1.22551C15.8137 1.17813 15.4284 1.26396 15.104 1.46846L15.2106 1.63766C15.496 1.4578 15.8348 1.38231 16.1696 1.42398L16.1943 1.22551ZM15.104 1.46846C14.7795 1.67296 14.5358 1.9835 14.4144 2.34729L14.6041 2.41062C14.7109 2.09065 14.9252 1.81752 15.2106 1.63766L15.104 1.46846ZM14.4095 2.37116C14.4012 2.4782 14.4301 2.58485 14.4913 2.67303L14.6556 2.55892C14.6206 2.50863 14.6042 2.44781 14.6089 2.38675L14.4095 2.37116ZM14.4913 2.67304C14.5526 2.76122 14.6425 2.8255 14.7457 2.85499L14.8007 2.66269C14.7418 2.64587 14.6905 2.60921 14.6556 2.55892L14.4913 2.67304ZM14.7457 2.85499C14.849 2.88449 14.9592 2.87739 15.0578 2.83489L14.9787 2.65122C14.9224 2.67546 14.8595 2.67951 14.8007 2.66269L14.7457 2.85499ZM15.0578 2.83489C15.1564 2.79238 15.2373 2.7171 15.2867 2.62179L15.1092 2.52969C15.081 2.58405 15.0349 2.62699 14.9787 2.65122L15.0578 2.83489ZM15.1273 2.6465L15.1414 2.66055L15.2827 2.51902L15.2686 2.50498L15.1273 2.6465ZM15.3091 2.61404C15.3745 2.35247 15.5708 2.21523 15.8184 2.16603C16.0698 2.11607 16.3613 2.16143 16.5763 2.25914L16.659 2.07706C16.4102 1.96393 16.0762 1.9109 15.7794 1.96987C15.4788 2.02961 15.2043 2.20864 15.115 2.56553L15.3091 2.61404ZM16.5717 2.25692C17.2458 2.60568 17.8505 3.0745 18.3563 3.64036L18.5054 3.50707C17.9834 2.92308 17.3593 2.43923 16.6636 2.07928L16.5717 2.25692ZM18.3676 3.65117C18.6233 3.85993 18.8256 4.12656 18.9577 4.42901L19.141 4.34893C18.9961 4.01738 18.7744 3.72509 18.4941 3.49625L18.3676 3.65117ZM18.9518 4.41113C18.9784 4.5282 18.9377 4.66181 18.8529 4.80313C18.7692 4.94262 18.6527 5.07301 18.5546 5.17816L18.7008 5.31463C18.7994 5.20894 18.9289 5.06523 19.0244 4.90603C19.1188 4.74866 19.1905 4.55897 19.1469 4.36681L18.9518 4.41113ZM18.5558 5.17689C18.2072 5.53742 17.7675 5.79219 17.2873 5.91674L17.3375 6.11034C17.8532 5.9766 18.3253 5.70303 18.6996 5.3159L18.5558 5.17689ZM17.4099 5.99155C17.2565 5.31065 16.8912 4.69192 16.3618 4.22725L16.2299 4.37756C16.7273 4.81421 17.0706 5.39565 17.2148 6.03553L17.4099 5.99155ZM16.3937 4.28172C16.3877 4.25325 16.3789 4.22536 16.3675 4.19845L16.1834 4.27668C16.1898 4.29168 16.1947 4.30722 16.198 4.32308L16.3937 4.28172ZM16.3675 4.19844C16.3438 4.14262 16.309 4.09212 16.2653 4.05L16.1265 4.194C16.1508 4.21744 16.1702 4.24556 16.1834 4.27668L16.3675 4.19844ZM16.2761 4.06224C15.6217 3.18416 14.7016 2.54056 13.6523 2.227L13.595 2.41863C14.6031 2.71987 15.4871 3.33818 16.1157 4.18176L16.2761 4.06224ZM13.6514 2.22673C13.3872 2.15057 13.1072 2.1482 12.8418 2.21986L12.894 2.41295C13.1241 2.3508 13.3669 2.35286 13.596 2.4189L13.6514 2.22673ZM12.8418 2.21986C12.5764 2.29152 12.3357 2.43449 12.1458 2.63325L12.2904 2.77143C12.4551 2.59907 12.6638 2.47509 12.894 2.41295L12.8418 2.21986ZM12.1439 2.63522C11.8151 2.99838 11.5682 3.428 11.4199 3.89496L11.6106 3.95547C11.7501 3.51584 11.9826 3.11137 12.2922 2.76946L12.1439 2.63522ZM11.418 3.90197C11.3905 4.01683 11.4092 4.13788 11.47 4.23915L11.6415 4.13625C11.6076 4.07985 11.5972 4.01243 11.6125 3.94846L11.418 3.90197ZM11.47 4.23914C11.5307 4.34041 11.6287 4.41383 11.743 4.44366L11.7935 4.25015C11.7299 4.23353 11.6753 4.19265 11.6415 4.13625L11.47 4.23914ZM11.74 4.44284C11.7963 4.45938 11.8553 4.46444 11.9135 4.45772L11.8906 4.25904C11.859 4.26268 11.827 4.25994 11.7965 4.25096L11.74 4.44284ZM11.9135 4.45772C11.9717 4.451 12.028 4.43264 12.079 4.40375L11.9804 4.22975C11.9527 4.24543 11.9222 4.25539 11.8906 4.25904L11.9135 4.45772ZM12.079 4.40375C12.13 4.37486 12.1747 4.336 12.2104 4.2895L12.0517 4.16774C12.0323 4.19297 12.0081 4.21406 11.9804 4.22975L12.079 4.40375ZM12.2104 4.2895C12.2461 4.24298 12.272 4.18978 12.2867 4.13306L12.0931 4.08284C12.0851 4.11365 12.071 4.14252 12.0517 4.16774L12.2104 4.2895ZM12.1899 4.00795H12.1618V4.20795H12.1899V4.00795ZM12.2565 4.14015C12.3642 3.82331 12.5297 3.52916 12.7445 3.27255L12.5912 3.14417C12.3605 3.41969 12.1828 3.73555 12.0671 4.07576L12.2565 4.14015ZM12.7359 3.28166C12.8601 3.16637 13.0183 3.09435 13.1869 3.07637L13.1657 2.8775C12.9542 2.90006 12.7557 2.99041 12.5998 3.13506L12.7359 3.28166ZM13.1869 3.07637C13.3554 3.05839 13.5253 3.09542 13.671 3.18191L13.7731 3.00991C13.5902 2.90139 13.3771 2.85495 13.1657 2.8775L13.1869 3.07637ZM13.684 3.18838C14.4427 3.50068 15.1047 4.00859 15.6027 4.66005L15.7616 4.53859C15.2421 3.85902 14.5516 3.3292 13.7601 3.00344L13.684 3.18838ZM15.5842 4.61945C15.6002 4.69703 15.6387 4.77167 15.7017 4.83756L15.8462 4.69931C15.8079 4.65926 15.7881 4.61814 15.7801 4.57919L15.5842 4.61945ZM15.7015 4.83736C15.9187 5.06559 16.1174 5.31059 16.296 5.5701L16.4608 5.45672C16.2762 5.18855 16.0708 4.93536 15.8464 4.69951L15.7015 4.83736ZM16.2945 5.56789C16.4205 5.76176 16.5079 5.97757 16.5526 6.20355L16.7488 6.16477C16.6992 5.91385 16.6021 5.6742 16.4622 5.45893L16.2945 5.56789ZM16.579 6.11449C16.493 6.20296 16.4515 6.3237 16.4477 6.43933C16.4439 6.55467 16.4774 6.67663 16.5569 6.76685L16.7069 6.63462C16.6678 6.59023 16.6451 6.52143 16.6476 6.4459C16.65 6.37066 16.6772 6.30041 16.7224 6.25382L16.579 6.11449ZM16.5358 6.67301C16.512 6.75564 16.4775 6.83532 16.433 6.91001L16.6049 7.01237C16.6582 6.9229 16.6994 6.82744 16.728 6.72846L16.5358 6.67301ZM16.4292 6.91718C16.3916 6.9939 16.3365 7.06074 16.2684 7.11232L16.3892 7.27174C16.4822 7.20127 16.5574 7.10998 16.6088 7.0052L16.4292 6.91718ZM16.2684 7.11232C16.2003 7.1639 16.1211 7.19881 16.037 7.21424L16.0731 7.41095C16.1879 7.38988 16.2962 7.34221 16.3892 7.27174L16.2684 7.11232ZM16.027 7.2166C15.9124 7.25009 15.815 7.32638 15.755 7.42967L15.928 7.5301C15.9622 7.47118 16.0177 7.42768 16.0831 7.40858L16.027 7.2166ZM15.755 7.42967C15.695 7.53297 15.6771 7.65537 15.7048 7.77157L15.8993 7.72509C15.8835 7.65884 15.8938 7.58902 15.928 7.5301L15.755 7.42967ZM15.7061 7.77633C15.7396 7.89128 15.8175 7.98817 15.9224 8.04573L16.0186 7.87037C15.9601 7.8383 15.9167 7.78432 15.8981 7.72033L15.7061 7.77633ZM15.9224 8.04573C16.0274 8.10329 16.1509 8.1168 16.2658 8.08328L16.2098 7.89128C16.1458 7.90995 16.077 7.90243 16.0186 7.87037L15.9224 8.04573ZM16.2661 8.0832C16.6246 7.97756 16.9379 7.75596 17.1569 7.45312L16.9948 7.33592C16.8018 7.60288 16.5256 7.79823 16.2095 7.89136L16.2661 8.0832ZM17.1569 7.45313C17.3104 7.24091 17.4115 6.99723 17.4541 6.74185L17.2568 6.70891C17.2192 6.93404 17.1301 7.14885 16.9948 7.33592L17.1569 7.45313ZM17.3765 6.82315C17.9179 6.70691 18.4267 6.46383 18.8595 6.11105L18.7332 5.95602C18.3249 6.28872 17.8451 6.51798 17.3345 6.62761L17.3765 6.82315ZM18.8583 6.11202C19.0982 5.92264 19.3535 5.67133 19.5471 5.3846C19.7403 5.09855 19.8772 4.76955 19.8665 4.42766L19.6666 4.43389C19.6755 4.71866 19.5612 5.00635 19.3814 5.27267C19.202 5.5383 18.9624 5.77504 18.7344 5.95505L18.8583 6.11202ZM19.7843 4.52919C19.8417 4.51883 19.8978 4.4946 19.9509 4.45643L19.834 4.29412C19.803 4.31642 19.7743 4.32776 19.7488 4.33236L19.7843 4.52919ZM19.9466 4.45935C20.932 3.82492 22.0139 3.35455 23.1499 3.0666L23.1008 2.87273C21.9437 3.166 20.8419 3.64504 19.8383 4.29119L19.9466 4.45935ZM23.1714 3.05843C23.194 3.04671 23.2154 3.03324 23.2356 3.01819L23.1159 2.85796C23.1044 2.86654 23.0922 2.87422 23.0793 2.88089L23.1714 3.05843ZM23.162 3.03712C23.1824 3.03996 23.2032 3.0414 23.224 3.0414V2.8414C23.2124 2.8414 23.2009 2.8406 23.1895 2.83902L23.162 3.03712ZM23.224 3.0414H23.8285V2.8414H23.224V3.0414ZM23.8032 3.03817L24.1265 3.1225L24.177 2.92898L23.8537 2.84464L23.8032 3.03817ZM24.347 3.1157C24.4402 3.16094 24.5292 3.21433 24.613 3.27527L24.7306 3.11354C24.6373 3.04566 24.5382 2.98618 24.4344 2.93578L24.347 3.1157ZM24.6163 3.2776L24.7428 3.36196L24.8538 3.19556L24.7273 3.11121L24.6163 3.2776ZM24.7983 3.37876H24.8686V3.17876H24.7983V3.37876ZM24.8047 3.35568C24.953 3.47884 25.0797 3.62571 25.1798 3.7903L25.3507 3.68637C25.2391 3.50288 25.0978 3.33913 24.9325 3.20184L24.8047 3.35568ZM25.1949 3.66725C24.407 4.44691 23.6586 5.26534 22.9369 6.1096L23.0889 6.23956C23.8077 5.39864 24.5524 4.58442 25.3356 3.80942L25.1949 3.66725ZM22.9414 6.10458C22.8587 6.18895 22.8124 6.3024 22.8124 6.42056H23.0124C23.0124 6.35477 23.0382 6.29158 23.0843 6.24458L22.9414 6.10458ZM22.8124 6.42056C22.8124 6.53873 22.8587 6.65216 22.9414 6.73653L23.0843 6.59653C23.0382 6.54953 23.0124 6.48636 23.0124 6.42056H22.8124ZM22.9436 6.73869C23.0303 6.82184 23.1457 6.86828 23.2659 6.86828V6.66828C23.1974 6.66828 23.1315 6.6418 23.0821 6.59437L22.9436 6.73869ZM23.2659 6.86828C23.386 6.86828 23.5015 6.82185 23.5881 6.73869L23.4497 6.59437C23.4002 6.64179 23.3344 6.66828 23.2659 6.66828V6.86828ZM23.5955 6.73079C24.241 5.96118 24.9306 5.21334 25.645 4.49705L25.5034 4.35582C24.7854 5.07578 24.0918 5.82784 23.4423 6.60227L23.5955 6.73079ZM25.4943 4.48653C26.2412 5.47997 26.6322 6.69811 26.6009 7.94366L26.8009 7.94868C26.8333 6.65801 26.4281 5.39576 25.6541 4.36634L25.4943 4.48653ZM26.6289 7.87671C25.9418 8.58842 25.2108 9.25671 24.4401 9.87763L24.5656 10.0334C25.3427 9.40723 26.0799 8.73333 26.7728 8.01563L26.6289 7.87671ZM24.4345 9.88258C24.3909 9.92349 24.3561 9.97289 24.3324 10.0277L24.5159 10.1072C24.5288 10.0774 24.5477 10.0506 24.5713 10.0284L24.4345 9.88258ZM24.3324 10.0277C24.3087 10.0826 24.2964 10.1417 24.2964 10.2015H24.4964C24.4964 10.169 24.5031 10.1369 24.5159 10.1072L24.3324 10.0277ZM24.2964 10.2015C24.2964 10.2612 24.3086 10.3204 24.3324 10.3752L24.5159 10.2958C24.5031 10.266 24.4964 10.2339 24.4964 10.2015H24.2964ZM24.3324 10.3752C24.3561 10.4301 24.3909 10.4795 24.4345 10.5204L24.5713 10.3745C24.5477 10.3523 24.5288 10.3255 24.5159 10.2958L24.3324 10.3752ZM24.4356 10.5214C24.5213 10.5994 24.633 10.6426 24.7489 10.6426V10.4426C24.6828 10.4426 24.6191 10.418 24.5702 10.3735L24.4356 10.5214ZM24.7489 10.6426C24.8648 10.6426 24.9765 10.5994 25.0622 10.5214L24.9276 10.3735C24.8787 10.418 24.815 10.4426 24.7489 10.4426V10.6426ZM25.0574 10.5255C25.8715 9.87319 26.6422 9.16858 27.3645 8.41617L27.2202 8.27767C26.5039 9.02381 25.7397 9.72255 24.9323 10.3694L25.0574 10.5255ZM27.2084 8.40136C27.6548 9.08923 28.0212 9.82599 28.3005 10.5973L28.4885 10.5293C28.2041 9.74358 27.8309 8.99314 27.3762 8.29248L27.2084 8.40136ZM28.331 10.4861L18.2752 18.7625L18.4023 18.9169L28.4581 10.6405L28.331 10.4861ZM18.3643 18.743C17.3651 18.478 16.4287 18.0155 15.6105 17.3823L15.4881 17.5405C16.3274 18.19 17.288 18.6645 18.3131 18.9363L18.3643 18.743ZM15.5956 17.3728C15.4905 17.3179 15.3689 17.3039 15.2541 17.3334L15.3039 17.5271C15.3708 17.5099 15.4417 17.518 15.503 17.55L15.5956 17.3728ZM15.2541 17.3334C15.1393 17.3629 15.0395 17.4339 14.974 17.5326L15.1406 17.6432C15.1788 17.5856 15.237 17.5443 15.3039 17.5271L15.2541 17.3334ZM14.9673 17.5444C14.9301 17.6212 14.9144 17.706 14.9209 17.79L15.1203 17.7746C15.1165 17.7256 15.1257 17.6762 15.1473 17.6315L14.9673 17.5444ZM14.9397 17.7234L9.07522 25.7716L9.23692 25.8894L15.1014 17.8412L14.9397 17.7234ZM9.22192 25.7552L1.89452 19.3521L1.76292 19.5027L9.09032 25.9058L9.22192 25.7552ZM1.88652 19.509C5.29012 17.1015 8.52962 14.4696 11.5831 11.6308L11.4469 11.4843C8.39992 14.3171 5.16742 16.9434 1.77102 19.3457L1.88652 19.509ZM11.5826 11.6312C11.6154 11.6012 11.6428 11.5688 11.6646 11.5345L11.496 11.427C11.4842 11.4455 11.4683 11.4647 11.4475 11.4838L11.5826 11.6312ZM11.5751 11.5806C12.0251 11.6041 12.475 11.5116 12.8809 11.3102L12.792 11.1311C12.417 11.3171 12.0013 11.4026 11.5855 11.3809L11.5751 11.5806ZM12.8847 11.3083C13.0935 11.1934 13.2666 11.0231 13.3849 10.8162L13.2112 10.7169C13.1112 10.8919 12.9649 11.0359 12.7883 11.133L12.8847 11.3083ZM13.3849 10.8162C13.4552 10.6931 13.5045 10.56 13.5314 10.4221L13.3351 10.3838C13.3124 10.5003 13.2707 10.6129 13.2112 10.7169L13.3849 10.8162ZM13.3691 10.4796C13.5132 10.6004 13.7441 10.6722 13.9395 10.5628L13.8418 10.3883C13.7439 10.4431 13.6031 10.4148 13.4975 10.3263L13.3691 10.4796ZM13.9245 10.5696C14.646 10.3099 15.2461 9.79267 15.6093 9.1173L15.4331 9.02258C15.0933 9.65449 14.5319 10.1385 13.8568 10.3815L13.9245 10.5696ZM15.617 9.09843C15.726 8.73197 15.7251 8.34162 15.6145 7.97565L15.4231 8.0335C15.5223 8.36204 15.5231 8.71247 15.4253 9.04144L15.617 9.09843ZM15.6145 7.97565C15.5039 7.60968 15.2885 7.28415 14.9948 7.03933L14.8668 7.19295C15.1304 7.41272 15.3238 7.70496 15.4231 8.0335L15.6145 7.97565ZM15.0011 7.04505C13.8176 5.87414 12.4938 4.85404 11.06 4.00795L10.9583 4.1802C12.378 5.01791 13.6886 6.02791 14.8605 7.18723L15.0011 7.04505ZM11.0503 4.00295C10.9485 3.95693 10.8332 3.95031 10.7268 3.98438L10.7878 4.17486C10.847 4.15588 10.9112 4.15957 10.9679 4.1852L11.0503 4.00295ZM10.7268 3.98438C10.6351 4.01375 10.5556 4.07154 10.4994 4.14879L10.6611 4.26642C10.6924 4.2234 10.7367 4.19121 10.7878 4.17486L10.7268 3.98438ZM10.565 4.10878C10.5249 4.11497 10.4855 4.12658 10.448 4.14355L10.5304 4.3258C10.5513 4.31635 10.5732 4.30988 10.5955 4.30643L10.565 4.10878ZM10.4334 4.15167C9.97012 4.46305 9.62632 4.92268 9.45862 5.45513L9.64942 5.51522C9.80352 5.02602 10.1193 4.60374 10.545 4.31767L10.4334 4.15167ZM9.45862 5.45513C9.34412 5.81866 9.31632 6.20139 9.37422 6.57336L9.57182 6.5426C9.51862 6.20084 9.54422 5.84921 9.64942 5.51522L9.45862 5.45513ZM9.46542 6.45827C9.39372 6.46372 9.32202 6.47207 9.25062 6.48336L9.28182 6.68091C9.34792 6.67047 9.41422 6.66274 9.48062 6.65769L9.46542 6.45827ZM9.23972 6.4857C9.02432 6.54482 8.82472 6.65116 8.65542 6.79699L8.78602 6.94851C8.93282 6.82205 9.10582 6.72983 9.29272 6.67857L9.23972 6.4857ZM8.65542 6.79699C8.48622 6.94282 8.35152 7.12448 8.26112 7.32884L8.44402 7.40971C8.52242 7.23251 8.63922 7.07498 8.78602 6.94851L8.65542 6.79699ZM8.25722 7.33914C8.17942 7.58552 8.15502 7.84569 8.18582 8.10223L8.38442 8.0784C8.35702 7.85012 8.37862 7.61862 8.44792 7.39941L8.25722 7.33914ZM8.18582 8.10222C8.21662 8.35876 8.30182 8.60576 8.43572 8.82672L8.60682 8.72305C8.48762 8.52644 8.41182 8.30667 8.38442 8.0784L8.18582 8.10222ZM8.43432 8.82434C8.72082 9.32794 9.05392 9.80365 9.42902 10.2452L9.58142 10.1158C9.21442 9.68367 8.88852 9.2182 8.60822 8.72544L8.43432 8.82434ZM9.42702 10.2428C9.77892 10.6848 10.1845 11.0812 10.6344 11.423L10.7554 11.2637C10.3187 10.932 9.92502 10.5472 9.58342 10.1182L9.42702 10.2428ZM10.6271 11.2698C7.62152 14.04 4.43842 16.6114 1.09802 18.9677L1.21332 19.1312C4.56082 16.7698 7.75062 14.1929 10.7626 11.4169L10.6271 11.2698ZM1.09672 18.9687C0.928323 19.0918 0.882022 19.2747 0.913022 19.4356L1.10942 19.3978C1.09102 19.3022 1.11712 19.2015 1.21472 19.1302L1.09672 18.9687ZM0.914724 19.3902C0.876624 19.5286 0.912322 19.6811 1.04782 19.7996L1.17952 19.649C1.10182 19.5811 1.08982 19.5077 1.10762 19.4432L0.914724 19.3902ZM1.04782 19.7996L8.84892 26.6168L8.98062 26.4662L1.17942 19.649L1.04782 19.7996ZM8.84722 26.6152C8.95612 26.7151 9.08312 26.7499 9.20342 26.7348C9.32092 26.72 9.42642 26.6584 9.50112 26.5752L9.35232 26.4416C9.30602 26.4932 9.24292 26.5282 9.17842 26.5363C9.11662 26.5441 9.04812 26.5281 8.98232 26.4678L8.84722 26.6152ZM9.44952 26.6058C9.54752 26.5829 9.64002 26.5271 9.71122 26.4334L9.55202 26.3124C9.50942 26.3684 9.45752 26.3985 9.40392 26.4111L9.44952 26.6058ZM9.71252 26.4317L15.5493 18.4078L15.3875 18.2901L9.55072 26.3141L9.71252 26.4317ZM15.4128 18.4321C16.2724 19.0067 17.2302 19.4208 18.2397 19.6532L18.2845 19.4583C17.2987 19.2313 16.3634 18.8269 15.524 18.2658L15.4128 18.4321ZM18.2365 19.6524C18.2944 19.6678 18.3548 19.6716 18.4142 19.6636L18.3876 19.4654C18.3542 19.4699 18.3202 19.4677 18.2877 19.4591L18.2365 19.6524ZM18.4142 19.6636C18.4684 19.6563 18.5209 19.6394 18.569 19.6136L18.4746 19.4373C18.4475 19.4518 18.4181 19.4613 18.3876 19.4654L18.4142 19.6636ZM18.5318 19.6249C18.6167 19.6164 18.7008 19.5828 18.7761 19.5201L18.648 19.3665C18.6033 19.4038 18.5567 19.4214 18.5118 19.4259L18.5318 19.6249ZM18.8121 19.4433V19.4293H18.6121V19.4433H18.8121ZM18.7756 19.5065L19.2157 19.1443L19.0886 18.9898L18.6485 19.352L18.7756 19.5065ZM19.0608 19.1077C20.1496 21.5571 21.3572 23.9531 22.6445 26.3086L22.82 26.2126C21.5348 23.861 20.3297 21.4699 19.2435 19.0264L19.0608 19.1077ZM22.6454 26.3102C22.7233 26.4466 22.8432 26.5145 22.9709 26.5233L22.9846 26.3238C22.9244 26.3197 22.8642 26.2901 22.819 26.211L22.6454 26.3102ZM22.9366 26.5147C23.0847 26.5815 23.2698 26.5744 23.4196 26.4312L23.2814 26.2866C23.1981 26.3663 23.1027 26.3703 23.0189 26.3324L22.9366 26.5147ZM23.4175 26.4331L30.4456 20.0797L30.3115 19.9313L23.2834 26.2847L23.4175 26.4331ZM30.4461 20.0792C30.5407 19.9926 30.5877 19.8885 30.5915 19.7821C30.5952 19.6777 30.557 19.5798 30.4972 19.502C30.3801 19.3497 30.1588 19.2516 29.9452 19.3446L30.025 19.528C30.1355 19.4799 30.2637 19.5265 30.3387 19.6239C30.3749 19.6711 30.3934 19.7244 30.3916 19.775C30.3899 19.8236 30.3692 19.8784 30.311 19.9318L30.4461 20.0792ZM30.054 19.3638L25.0217 14.5776L24.8839 14.7225L29.9162 19.5087L30.054 19.3638ZM25.0219 14.5778C24.8905 14.4521 24.7301 14.4288 24.5905 14.4714L24.6488 14.6627C24.7245 14.6396 24.8083 14.6503 24.8837 14.7224L25.0219 14.5778ZM24.6832 14.6443L29.0225 11.0728L28.8954 10.9184L24.5561 14.4898L24.6832 14.6443ZM29.0233 11.0721C29.0359 11.0616 29.0478 11.0506 29.059 11.0393L28.9168 10.8987C28.9101 10.9054 28.9028 10.9122 28.8947 10.919L29.0233 11.0721ZM29.0414 11.0535C29.0564 11.044 29.0708 11.0336 29.0846 11.0223L28.9584 10.8672C28.9507 10.8735 28.9427 10.8793 28.9343 10.8846L29.0414 11.0535ZM29.0846 11.0223C29.1337 10.9824 29.1738 10.9326 29.2023 10.8762L29.0239 10.7858C29.008 10.8173 28.9857 10.845 28.9584 10.8672L29.0846 11.0223ZM29.2023 10.8762C29.2309 10.8198 29.2473 10.758 29.2505 10.6949L29.0508 10.6848C29.049 10.72 29.0399 10.7544 29.0239 10.7858L29.2023 10.8762ZM29.2505 10.6949C29.2537 10.6317 29.2435 10.5686 29.2208 10.5096L29.0342 10.5817C29.0469 10.6145 29.0525 10.6497 29.0508 10.6848L29.2505 10.6949ZM29.2222 10.5136C28.8823 9.50763 28.4051 8.55337 27.8043 7.67783L27.6394 7.79099C28.2298 8.65136 28.6987 9.58909 29.0327 10.5776L29.2222 10.5136ZM27.813 7.69323C27.787 7.63565 27.7491 7.5842 27.702 7.54219L27.5689 7.69148C27.5952 7.7149 27.6163 7.74356 27.6307 7.77559L27.813 7.69323ZM27.702 7.54219C27.6549 7.50017 27.5995 7.46849 27.5393 7.44923L27.4783 7.6397C27.5118 7.65043 27.5426 7.66806 27.5689 7.69148L27.702 7.54219ZM27.5393 7.44923C27.5304 7.44637 27.5214 7.4438 27.5123 7.44151L27.4633 7.6354C27.4683 7.63668 27.4733 7.63811 27.4783 7.6397L27.5393 7.44923ZM27.5432 7.45522C27.5062 7.43057 27.4658 7.41158 27.4234 7.39879L27.3656 7.59026C27.3893 7.59739 27.4117 7.60797 27.4324 7.62169L27.5432 7.45522ZM27.4944 7.48928C27.4204 6.08069 26.8931 4.72762 25.9829 3.63649L25.8294 3.7646C26.7117 4.82242 27.2229 6.13418 27.2947 7.49977L27.4944 7.48928ZM26.0001 3.73476C26.0048 3.72202 26.0088 3.70902 26.0123 3.69581L25.819 3.64464C25.817 3.652 25.8148 3.65923 25.8122 3.66633L26.0001 3.73476ZM26.0123 3.69581C26.0175 3.67613 26.0214 3.65622 26.0239 3.63622L25.8254 3.61145C25.824 3.62258 25.8219 3.63367 25.819 3.64464L26.0123 3.69581ZM25.8389 3.67535L25.8512 3.69572L26.0226 3.5927L26.0104 3.57233L25.8389 3.67535ZM26.0342 3.6213L26.0241 3.57818L25.8294 3.624L25.8396 3.66712L26.0342 3.6213ZM26.0266 3.607C26.0317 3.51982 26.0115 3.4323 25.9674 3.35545L25.7939 3.45507C25.8185 3.49787 25.8298 3.54661 25.8269 3.59518L26.0266 3.607ZM25.7833 3.42817L25.8294 3.624L26.0241 3.57818L25.978 3.38235L25.7833 3.42817ZM25.8269 3.59519C25.8266 3.6006 25.8261 3.60602 25.8254 3.61144L26.0239 3.63623C26.0251 3.62651 26.026 3.61676 26.0266 3.60699L25.8269 3.59519ZM26.0102 3.57198C25.7249 3.10169 25.3156 2.71886 24.8269 2.46567L24.7349 2.64325C25.1909 2.87953 25.573 3.23681 25.8391 3.6757L26.0102 3.57198ZM24.8269 2.46567C24.331 2.20872 23.7731 2.09554 23.2163 2.1389L23.2318 2.3383C23.7515 2.29783 24.2721 2.40345 24.7349 2.64325L24.8269 2.46567ZM23.224 2.1386C23.1407 2.1386 23.0597 2.16166 22.9896 2.20424L23.0935 2.37515C23.1325 2.35143 23.1776 2.3386 23.224 2.3386V2.1386ZM23.0647 2.19241C23.0179 2.18129 22.9694 2.1774 22.9208 2.18121L22.9364 2.3806C22.9641 2.37843 22.9918 2.38065 23.0184 2.38699L23.0647 2.19241ZM23.0286 2.2809V2.25278H22.8286V2.2809H23.0286ZM22.9027 2.15618C22.6375 2.22712 22.3751 2.30724 22.1161 2.39636L22.1811 2.58548C22.4358 2.49788 22.6937 2.41912 22.9544 2.34939L22.9027 2.15618ZM22.2479 2.50269C22.2491 2.49257 22.25 2.48241 22.2505 2.47223L22.0507 2.46219C22.0504 2.46788 22.05 2.47354 22.0493 2.47915L22.2479 2.50269ZM22.2505 2.47222C22.2536 2.40906 22.2435 2.34595 22.2207 2.28697L22.0342 2.35903C22.0468 2.39188 22.0525 2.42703 22.0507 2.4622L22.2505 2.47222ZM24.3199 14.6842L19.6457 18.5313L19.7728 18.6857L24.447 14.8386L24.3199 14.6842ZM19.6179 18.6492C20.6744 21.0214 21.8312 23.3476 23.0883 25.6277L23.2634 25.5312C22.009 23.2559 20.8548 20.9348 19.8006 18.5678L19.6179 18.6492ZM23.243 25.6536L29.5142 19.9718L29.3799 19.8236L23.1087 25.5054L23.243 25.6536ZM29.516 19.8253L24.5157 15.0696L24.3778 15.2145L29.3781 19.9702L29.516 19.8253ZM24.5159 15.0698C24.4285 14.9862 24.4274 14.891 24.4716 14.8087L24.2954 14.7141C24.2141 14.8654 24.2173 15.0609 24.3776 15.2143L24.5159 15.0698ZM13.4705 10.0123C13.4971 9.99091 13.5327 9.96916 13.5795 9.94864L13.4991 9.76551C13.4392 9.7918 13.3879 9.82214 13.3452 9.8564L13.4705 10.0123ZM13.5795 9.94864C13.8713 9.82051 14.203 9.64792 14.4776 9.43336C14.7502 9.22031 14.9798 8.95551 15.0429 8.63974L14.8468 8.60052C14.7975 8.847 14.6124 9.07417 14.3544 9.27577C14.0984 9.47588 13.7835 9.64064 13.4991 9.76551L13.5795 9.94864ZM15.0429 8.63974C15.1009 8.35009 14.9886 8.08764 14.8252 7.86242C14.6623 7.63783 14.4378 7.43549 14.2473 7.26337L14.1132 7.41177C14.307 7.58689 14.5149 7.77525 14.6633 7.97984C14.8113 8.1838 14.8891 8.38901 14.8468 8.60052L15.0429 8.63974ZM14.2473 7.26337C14.2004 7.22096 14.1555 7.1804 14.1133 7.14124L13.9772 7.2878C14.0206 7.32805 14.0665 7.36955 14.1132 7.41177L14.2473 7.26337ZM14.1128 7.14077C13.1282 6.23906 12.0629 5.42985 10.9305 4.72329L10.8246 4.89297C11.9467 5.59305 13.0022 6.39483 13.9777 7.28827L14.1128 7.14077ZM10.8082 4.73606C10.8 4.74401 10.7911 4.75141 10.7818 4.75822L10.8994 4.91997C10.9162 4.90775 10.932 4.89445 10.9469 4.8802L10.8082 4.73606ZM10.8406 4.7391H10.7562V4.9391H10.8406V4.7391ZM10.6898 4.76435L10.5633 4.87678L10.6962 5.02627L10.8227 4.91384L10.6898 4.76435ZM10.559 4.88082L10.4466 4.99327L10.588 5.13468L10.7005 5.02223L10.559 4.88082ZM10.4173 5.06398V5.13426H10.6173V5.06398H10.4173ZM10.4359 5.0762C10.3725 5.16503 10.3142 5.25736 10.2612 5.35277L10.436 5.4499C10.4854 5.36108 10.5397 5.27508 10.5987 5.19233L10.4359 5.0762ZM10.2493 5.38943C10.2428 5.44402 10.2428 5.49921 10.2493 5.55381L10.4479 5.53C10.4432 5.49122 10.4432 5.45202 10.4479 5.41324L10.2493 5.38943ZM10.2486 5.5419V5.69652H10.4486V5.5419H10.2486ZM10.2513 5.7196C10.2543 5.73215 10.2543 5.74522 10.2513 5.75778L10.4459 5.80393C10.4561 5.76103 10.4561 5.71635 10.4459 5.67344L10.2513 5.7196ZM10.2488 5.77464C10.2418 5.88644 10.2418 5.99856 10.2488 6.11036L10.4484 6.09792C10.442 5.9944 10.442 5.89059 10.4484 5.78707L10.2488 5.77464ZM10.2486 6.10414V6.20254H10.4486V6.10414H10.2486ZM10.2513 6.17947C10.2411 6.22237 10.2411 6.26705 10.2513 6.30995L10.4459 6.2638C10.4429 6.25125 10.4429 6.23817 10.4459 6.22562L10.2513 6.17947ZM10.2505 6.30603C10.2721 6.41671 10.3079 6.52412 10.357 6.62561L10.537 6.53847C10.4954 6.45248 10.465 6.36148 10.4468 6.26773L10.2505 6.30603ZM10.3594 6.53386L10.3173 6.61032L10.4926 6.70669L10.5346 6.63023L10.3594 6.53386ZM10.3763 6.75431C10.4509 6.77663 10.5246 6.80253 10.5972 6.83197L10.6724 6.64664C10.594 6.61482 10.5143 6.58683 10.4336 6.5627L10.3763 6.75431ZM10.5972 6.83197C11.0138 7.00098 11.3764 7.28038 11.646 7.6401L11.806 7.52015C11.5146 7.13133 11.1227 6.82932 10.6724 6.64664L10.5972 6.83197ZM11.6539 7.64944C12.0019 8.01134 12.3228 8.40187 12.6313 8.7945L12.7886 8.67094C12.4786 8.27643 12.1529 7.87984 11.7981 7.51082L11.6539 7.64944ZM12.6393 8.80351C12.9613 9.12476 13.1925 9.52401 13.3114 9.96063L13.5043 9.90811C13.3763 9.43788 13.1274 9.00791 12.7806 8.66193L12.6393 8.80351ZM9.31792 7.48298C9.47932 7.38549 9.63102 7.34587 9.77372 7.34408L9.77122 7.14409C9.59072 7.14636 9.40452 7.19703 9.21452 7.3118L9.31792 7.48298ZM9.72382 7.33144L9.72832 7.33396L9.82572 7.15926L9.82112 7.15673L9.72382 7.33144ZM9.72892 7.33429C9.83002 7.38974 9.94772 7.4069 10.0604 7.38261L10.0183 7.18709C9.95262 7.20125 9.88402 7.19125 9.82512 7.15893L9.72892 7.33429ZM10.0662 7.38118L10.0772 7.37813L10.0235 7.18546L10.0125 7.18852L10.0662 7.38118ZM10.0234 7.37811C10.3414 7.4669 10.6284 7.71116 10.8873 7.93665L11.0186 7.78584C10.7667 7.56643 10.4463 7.28852 10.0772 7.18548L10.0234 7.37811ZM10.8838 7.93345C11.4539 8.47973 11.9675 9.08207 12.4169 9.73138L12.5813 9.61757C12.1244 8.95722 11.602 8.34461 11.0221 7.78904L10.8838 7.93345ZM12.4196 9.73508C12.5326 9.88346 12.615 10.0159 12.632 10.1349C12.64 10.1907 12.6333 10.2426 12.6075 10.2935C12.5812 10.3456 12.5315 10.4031 12.4429 10.4632L12.5553 10.6287C12.6635 10.5553 12.7403 10.474 12.786 10.3838C12.8323 10.2924 12.8431 10.1984 12.83 10.1066C12.8049 9.93044 12.6905 9.76068 12.5786 9.61387L12.4196 9.73508ZM12.4496 10.4591C12.1084 10.6535 11.7089 10.7193 11.3234 10.6446L11.2853 10.8409C11.7178 10.9248 12.1659 10.851 12.5486 10.6329L12.4496 10.4591ZM11.3044 10.6428C11.2108 10.6428 11.1287 10.6671 11.061 10.7109L11.1698 10.8788C11.2026 10.8575 11.2464 10.8428 11.3044 10.8428V10.6428ZM11.1868 10.7248C11.1624 10.6999 11.1351 10.6776 11.1052 10.6585L10.9974 10.827C11.0145 10.8379 11.03 10.8506 11.044 10.8648L11.1868 10.7248ZM11.1149 10.6656C10.5382 10.1905 10.0334 9.63424 9.61622 9.01425L9.45032 9.1259C9.87822 9.76192 10.3961 10.3325 10.9877 10.8199L11.1149 10.6656ZM9.61262 9.00923C9.44992 8.79693 9.22452 8.49257 9.11982 8.19526C9.06782 8.04749 9.04922 7.91095 9.07542 7.79316C9.10082 7.67944 9.17022 7.57221 9.31792 7.48298L9.21452 7.3118C9.02482 7.42639 8.91862 7.57744 8.88022 7.74968C8.84282 7.91784 8.87252 8.09493 8.93122 8.26166C9.04792 8.59337 9.29342 8.92153 9.45392 9.13092L9.61262 9.00923ZM24.1517 3.12574H24.3907V2.92574H24.1517V3.12574Z" fill="#1C089D"/>
</g>
</svg>
