<svg width="147" height="144" viewBox="0 0 147 144" fill="none" xmlns="http://www.w3.org/2000/svg">
<path d="M46.7778 0.268127C43.5945 -0.59566 40.973 0.739284 38.3514 2.67626C35.3554 4.90117 32.4998 7.414 29.7144 9.953C24.1671 14.9787 18.7835 20.397 14.032 26.365C5.09069 37.6204 0.245532 51.2577 0.0114665 66.3347C-0.222599 81.4117 3.12454 96.3578 10.2635 108.765C17.4026 121.172 28.1696 129.862 40.1538 135.778C66.9777 148.97 98.3191 146.222 122.802 128.004C134.084 119.602 143.213 107.064 146.115 92.0389C149.018 77.0143 144.617 63.7695 135.278 53.09C113.065 27.7261 80.5769 2.2051 47.3162 14.3505C45.3968 15.0572 46.2161 18.46 48.1588 17.7533C76.0829 7.54488 103.117 25.475 123.481 45.5777C132.657 54.6343 142.511 64.3977 143.751 78.8989C145.062 94.1329 138.04 108.844 128.209 118.869C108.548 138.919 78.3299 145.227 53.121 137.296C41.3241 133.605 29.5038 127.192 20.6795 117.534C11.8552 107.875 6.47168 94.9182 4.27146 81.2808C1.69674 65.3662 3.45223 48.6925 11.8084 35.1599C15.6237 28.9825 20.5156 23.6689 25.4778 18.6432C28.31 15.7639 31.2358 13.0155 34.2553 10.398C37.2747 7.78045 41.9561 2.57156 45.9352 3.67092C47.9013 4.2206 48.744 0.817809 46.7778 0.268127Z" fill="#EDE9FC"/>
<path d="M56.4245 50.1055C53.9646 54.1541 52.9338 58.8296 52.2778 63.6096C51.4813 69.3299 50.9659 75.1024 50.4505 80.8488C49.6071 90.6439 48.2483 101.51 53.4961 110.129C54.0583 111.044 55.2297 111.357 55.9794 110.495L56.5054 108.474C52.5252 106.2 54.5122 105.407 53.1066 107.053L53.7538 108.014L56.5054 108.474C51.609 100.429 52.8167 89.9909 53.6132 80.8749C54.0817 75.5726 54.5503 70.2963 55.2531 65.0201C55.8857 60.3707 56.7291 55.8258 59.1421 51.8817C60.29 50.001 57.549 48.2248 56.4011 50.1055H56.4245Z" fill="#EDE9FC"/>
<path d="M55.6559 56.0531C71.3758 58.9786 90.4007 62.8799 104.293 72.1264V69.0703C87.074 82.6789 68.5663 94.1978 48.9106 102.87C47.0364 103.706 47.8563 107.101 49.754 106.265C69.6674 97.489 88.4328 85.9178 105.886 72.1264C106.847 71.3689 106.964 69.8017 105.886 69.0703C91.7595 59.6671 74.2061 55.7151 58.2051 52.7374C56.2137 52.3717 53.6412 55.6874 55.6559 56.0531Z" fill="#EDE9FC"/>
</svg>
