<svg width="60" height="60" viewBox="0 0 60 60" fill="none" xmlns="http://www.w3.org/2000/svg">
<path d="M16 43.7643V26.7643C19.6 25.5643 21.8333 26.2643 22.5 26.7643C22.6667 32.5976 22.9 44.3643 22.5 44.7643C22.1 45.1643 18 44.2643 16 43.7643Z" stroke="#1C089D" stroke-width="1.55"/>
<path d="M22.5 29.2643C24.8333 28.431 29.7 24.8643 30.5 17.2643C31.5 15.5976 34 14.2643 36 22.2643C36 23.2643 35.9 25.4643 35.5 26.2643C35.1 27.0643 41 27.2643 44 27.2643C44.5 27.4309 45.4 27.9643 45 28.7643C44.5 29.7643 43.5 44.2643 40 44.2643C36.5 44.2643 25 45.2643 22.5 42.2643" stroke="#1C089D" stroke-width="1.55"/>
</svg>
