<svg width="66" height="59" viewBox="0 0 66 59" fill="none" xmlns="http://www.w3.org/2000/svg">
<path d="M19.6191 32.9902C19.6191 33.0189 19.612 33.0547 19.5977 33.0977C19.5833 33.1263 19.569 33.1549 19.5547 33.1836C19.0391 33.9284 18.5521 34.666 18.0938 35.3965C17.6497 36.1126 17.2272 36.8431 16.8262 37.5879C16.4251 38.3327 16.0527 39.099 15.709 39.8867C15.3652 40.6602 15.0501 41.4766 14.7637 42.3359C14.4772 43.1667 14.2337 44.0117 14.0332 44.8711C13.847 45.7161 13.6608 46.5684 13.4746 47.4277C13.2884 48.2871 13.0879 49.1393 12.873 49.9844C12.6582 50.8438 12.3932 51.6888 12.0781 52.5195C11.7917 53.25 11.4622 53.9518 11.0898 54.625C10.7174 55.2982 10.2734 55.8854 9.75781 56.3867C9.25651 56.888 8.66927 57.2891 7.99609 57.5898C7.32292 57.8906 6.54948 58.041 5.67578 58.041C4.93099 58.041 4.23633 57.9193 3.5918 57.6758C2.94727 57.4466 2.38867 57.11 1.91602 56.666C1.42904 56.2363 1.04948 55.7135 0.777344 55.0977C0.505208 54.4818 0.369141 53.7943 0.369141 53.0352C0.369141 52.2617 0.490885 51.4811 0.734375 50.6934C0.963542 49.9056 1.28581 49.1465 1.70117 48.416C2.11654 47.6999 2.61068 47.041 3.18359 46.4395C3.74219 45.8522 4.35807 45.3724 5.03125 45C5.11719 44.9714 5.17448 44.957 5.20312 44.957C5.28906 44.957 5.36068 44.9857 5.41797 45.043C5.48958 45.1146 5.52539 45.1934 5.52539 45.2793C5.52539 45.3939 5.4681 45.487 5.35352 45.5586C5.19596 45.6732 5.04557 45.7806 4.90234 45.8809C4.75911 45.9811 4.60872 46.0885 4.45117 46.2031C3.82096 46.7331 3.28385 47.3418 2.83984 48.0293C2.38151 48.7311 2.01628 49.4688 1.74414 50.2422C1.60091 50.6576 1.48633 51.0801 1.40039 51.5098C1.31445 51.9538 1.27148 52.4049 1.27148 52.8633C1.27148 53.5221 1.37891 54.1094 1.59375 54.625C1.80859 55.1406 2.10938 55.5703 2.49609 55.9141C2.88281 56.2721 3.34831 56.5443 3.89258 56.7305C4.42253 56.9167 5.00977 57.0098 5.6543 57.0098C5.98372 57.0098 6.30599 56.9811 6.62109 56.9238C6.95052 56.8665 7.26562 56.7663 7.56641 56.623C8.21094 56.3509 8.77669 55.9141 9.26367 55.3125C9.75065 54.7253 10.1803 54.0449 10.5527 53.2715C10.9251 52.498 11.2474 51.6602 11.5195 50.7578C11.7917 49.8555 12.028 48.9603 12.2285 48.0723C12.4434 47.1842 12.6296 46.332 12.7871 45.5156C12.9447 44.6992 13.1022 43.9831 13.2598 43.3672C13.0449 43.625 12.8086 43.89 12.5508 44.1621C12.3073 44.4199 12.0352 44.6562 11.7344 44.8711C11.4479 45.0716 11.14 45.2363 10.8105 45.3652C10.4954 45.5085 10.1589 45.5801 9.80078 45.5801C9.71484 45.5801 9.62891 45.5729 9.54297 45.5586C9.45703 45.5586 9.37826 45.5514 9.30664 45.5371C8.7194 45.4082 8.21094 45.1862 7.78125 44.8711C7.35156 44.5417 6.99349 44.1549 6.70703 43.7109C6.42057 43.2669 6.20573 42.7799 6.0625 42.25C5.93359 41.7057 5.86914 41.1543 5.86914 40.5957C5.86914 40.5241 5.86914 40.4668 5.86914 40.4238C5.86914 40.3665 5.8763 40.3021 5.89062 40.2305C5.96224 38.7982 6.22005 37.4232 6.66406 36.1055C7.10807 34.7878 7.73828 33.5345 8.55469 32.3457C8.71224 32.1309 8.86979 31.916 9.02734 31.7012C9.19922 31.472 9.37826 31.2572 9.56445 31.0566C9.85091 30.7559 10.1732 30.4909 10.5312 30.2617C10.9036 30.0326 11.2904 29.8392 11.6914 29.6816C12.0924 29.5098 12.5007 29.3737 12.916 29.2734C13.3314 29.1589 13.7396 29.0658 14.1406 28.9941C14.957 28.8652 15.7591 28.765 16.5469 28.6934C17.3346 28.6074 18.1296 28.4714 18.9316 28.2852H18.9746C19.1895 28.2852 19.2969 28.3997 19.2969 28.6289C19.2969 28.7721 19.2253 28.8652 19.082 28.9082C18.8815 28.9941 18.6595 29.0586 18.416 29.1016C18.1725 29.1445 17.9434 29.1875 17.7285 29.2305C17.1556 29.3451 16.5755 29.4382 15.9883 29.5098C15.4154 29.5671 14.8424 29.653 14.2695 29.7676C13.4961 29.9251 12.7656 30.14 12.0781 30.4121C11.3906 30.6842 10.7819 31.1211 10.252 31.7227C9.75065 32.2812 9.29232 32.9115 8.87695 33.6133C8.47591 34.3151 8.13216 35.0527 7.8457 35.8262C7.55924 36.5996 7.33724 37.3874 7.17969 38.1895C7.03646 38.9915 6.96484 39.7721 6.96484 40.5312C6.96484 41.0755 7.04362 41.627 7.20117 42.1855C7.35872 42.7298 7.64518 43.1953 8.06055 43.582C8.30404 43.8112 8.57617 44.0046 8.87695 44.1621C9.17773 44.3053 9.49284 44.377 9.82227 44.377C10.166 44.377 10.5241 44.2552 10.8965 44.0117C11.2689 43.7682 11.6341 43.4531 11.9922 43.0664C12.3646 42.6654 12.7227 42.2214 13.0664 41.7344C13.4245 41.2474 13.7539 40.7676 14.0547 40.2949C14.3555 39.8079 14.6276 39.3496 14.8711 38.9199C15.1146 38.4902 15.3151 38.1393 15.4727 37.8672C15.7161 37.4518 15.974 37.015 16.2461 36.5566C16.5182 36.0983 16.8047 35.6471 17.1055 35.2031C17.4062 34.7591 17.7142 34.3294 18.0293 33.9141C18.3587 33.4987 18.6882 33.1191 19.0176 32.7754C19.1178 32.7038 19.2038 32.668 19.2754 32.668C19.5046 32.668 19.6191 32.7754 19.6191 32.9902ZM27.6637 36.041C27.6637 36.3991 27.5778 36.7572 27.4059 37.1152C27.2341 37.459 27.0121 37.7884 26.7399 38.1035C26.4821 38.4186 26.1957 38.7051 25.8805 38.9629C25.5654 39.2207 25.2718 39.4427 24.9997 39.6289C24.5843 39.9154 24.1475 40.1803 23.6891 40.4238C23.2451 40.6673 22.7582 40.7891 22.2282 40.7891C22.1136 40.7891 21.9847 40.7747 21.8415 40.7461C21.7126 40.7174 21.6481 40.6243 21.6481 40.4668C21.6481 40.2663 21.7412 40.1445 21.9274 40.1016C21.9704 40.0872 22.0205 40.0801 22.0778 40.0801C22.1351 40.0801 22.1924 40.0729 22.2497 40.0586C22.4072 40.0299 22.5576 39.9798 22.7009 39.9082C22.8584 39.8366 23.016 39.7578 23.1735 39.6719C23.417 39.5143 23.7249 39.2923 24.0973 39.0059C24.4697 38.7194 24.835 38.4043 25.193 38.0605C25.5511 37.7168 25.8519 37.3659 26.0954 37.0078C26.3532 36.6497 26.4821 36.3132 26.4821 35.998C26.4821 35.7975 26.3747 35.6973 26.1598 35.6973C26.0739 35.6973 25.988 35.7116 25.902 35.7402C25.8161 35.7689 25.7302 35.7975 25.6442 35.8262C24.9567 36.0553 24.3265 36.4062 23.7536 36.8789C23.1807 37.3372 22.6865 37.8743 22.2712 38.4902C21.8558 39.1061 21.5264 39.765 21.2829 40.4668C21.0537 41.1686 20.9391 41.8704 20.9391 42.5723C20.9391 42.8014 20.9535 43.0664 20.9821 43.3672C21.0251 43.6536 21.0967 43.9258 21.197 44.1836C21.3115 44.4414 21.4619 44.6634 21.6481 44.8496C21.8343 45.0215 22.0778 45.1074 22.3786 45.1074C22.4932 45.1074 22.6006 45.0859 22.7009 45.043C22.8011 45.0143 22.9014 44.9714 23.0016 44.9141C23.3884 44.6992 23.7464 44.4128 24.0759 44.0547C24.4053 43.6823 24.6989 43.3099 24.9567 42.9375C25.0283 42.8516 25.0928 42.7585 25.1501 42.6582C25.2217 42.5579 25.2933 42.4577 25.3649 42.3574C25.4079 42.2858 25.4795 42.25 25.5798 42.25C25.6657 42.25 25.7445 42.2786 25.8161 42.3359C25.902 42.3932 25.945 42.472 25.945 42.5723C25.945 42.6009 25.9307 42.6439 25.902 42.7012C25.7302 43.0163 25.5153 43.3672 25.2575 43.7539C24.9997 44.1263 24.7132 44.4772 24.3981 44.8066C24.083 45.1361 23.7393 45.4082 23.3669 45.623C23.0088 45.8522 22.6292 45.9668 22.2282 45.9668C21.7842 45.9668 21.4118 45.8379 21.111 45.5801C20.8246 45.3366 20.5954 45.0358 20.4235 44.6777C20.2516 44.3053 20.1299 43.9115 20.0583 43.4961C19.9867 43.0664 19.9509 42.6797 19.9509 42.3359C19.9509 41.2474 20.18 40.209 20.6384 39.2207C21.0967 38.2181 21.7126 37.3372 22.486 36.5781C22.7152 36.349 22.9802 36.1198 23.2809 35.8906C23.5817 35.6471 23.8968 35.4323 24.2262 35.2461C24.57 35.0456 24.9137 34.888 25.2575 34.7734C25.6156 34.6445 25.9593 34.5801 26.2887 34.5801C26.7041 34.5801 27.0335 34.7233 27.277 35.0098C27.5348 35.2819 27.6637 35.6257 27.6637 36.041ZM37.7709 37.2656C37.7709 37.8099 37.7064 38.4043 37.5775 39.0488C37.4629 39.6934 37.2839 40.3379 37.0404 40.9824C36.7969 41.627 36.4961 42.2572 36.138 42.873C35.7943 43.4746 35.3933 44.0117 34.9349 44.4844C34.4909 44.957 33.9896 45.3294 33.431 45.6016C32.8867 45.888 32.2995 46.0312 31.6693 46.0312C31.1966 46.0312 30.7884 45.9023 30.4447 45.6445C30.1009 45.401 29.8073 45.0859 29.5638 44.6992C29.3347 44.3125 29.1628 43.8971 29.0482 43.4531C28.9336 42.9948 28.8763 42.5651 28.8763 42.1641C28.8763 41.6914 28.9408 41.2259 29.0697 40.7676C29.4707 39.4499 30.1153 38.2754 31.0033 37.2441C31.8913 36.2129 32.9727 35.4395 34.2474 34.9238C34.2761 34.9095 34.3119 34.9023 34.3548 34.9023C34.4551 34.9023 34.5267 34.9382 34.5697 35.0098C34.627 35.0814 34.6556 35.1602 34.6556 35.2461C34.6556 35.3464 34.5983 35.4323 34.4837 35.5039C34.2832 35.6185 34.0827 35.7331 33.8822 35.8477C33.6817 35.9479 33.4811 36.0768 33.2806 36.2344C32.4929 36.8073 31.8197 37.5163 31.2611 38.3613C30.7025 39.2064 30.28 40.0944 29.9935 41.0254C29.8933 41.3262 29.8431 41.6628 29.8431 42.0352C29.8431 42.3359 29.8861 42.6582 29.972 43.002C30.058 43.3457 30.1869 43.668 30.3587 43.9688C30.5306 44.2552 30.7455 44.4987 31.0033 44.6992C31.2754 44.8854 31.5905 44.9785 31.9486 44.9785C32.1778 44.9785 32.3926 44.9355 32.5931 44.8496C32.808 44.7637 33.0085 44.6562 33.1947 44.5273C33.739 44.1406 34.2259 43.6393 34.6556 43.0234C35.0853 42.4076 35.4505 41.7487 35.7513 41.0469C36.0521 40.3307 36.2813 39.6074 36.4388 38.877C36.5964 38.1322 36.6752 37.4303 36.6752 36.7715V36.5137C36.6465 36.1413 36.5176 35.8262 36.2884 35.5684C36.0736 35.3105 35.8015 35.1029 35.472 34.9453C35.3718 34.9023 35.2715 34.8665 35.1712 34.8379C35.0853 34.8092 34.9994 34.7734 34.9134 34.7305C34.7702 34.6732 34.6986 34.5729 34.6986 34.4297C34.6986 34.3294 34.7272 34.2435 34.7845 34.1719C34.8418 34.1003 34.9206 34.0716 35.0209 34.0859H35.0423C35.3574 34.1146 35.6654 34.1862 35.9662 34.3008C36.2813 34.4154 36.5606 34.5729 36.8041 34.7734C37.0476 34.974 37.2481 35.2103 37.4056 35.4824C37.5775 35.7546 37.6849 36.0625 37.7279 36.4062C37.7565 36.5495 37.7709 36.6927 37.7709 36.8359C37.7709 36.9648 37.7709 37.1081 37.7709 37.2656ZM58.1905 34.0215C58.1905 34.8522 58.0616 35.7116 57.8037 36.5996C57.5603 37.4733 57.2093 38.3327 56.751 39.1777C56.307 40.0228 55.7771 40.8249 55.1612 41.584C54.5453 42.3431 53.8649 43.0091 53.1202 43.582C52.3754 44.1549 51.5804 44.6133 50.7354 44.957C49.8903 45.2865 49.0238 45.4512 48.1358 45.4512C47.2621 45.4512 46.4385 45.2721 45.6651 44.9141C44.8916 44.5417 44.1898 44.0618 43.5596 43.4746C42.9867 44.0762 42.3135 44.5703 41.5401 44.957C40.781 45.3294 39.986 45.5156 39.1553 45.5156C39.0694 45.5156 39.0049 45.4798 38.962 45.4082C38.9047 45.3366 38.876 45.265 38.876 45.1934C38.876 45.0215 38.9548 44.9141 39.1123 44.8711C39.3988 44.8138 39.6709 44.7637 39.9287 44.7207C40.2009 44.6634 40.4802 44.5703 40.7666 44.4414C41.4255 44.1406 42.0056 43.7253 42.5069 43.1953C43.0225 42.6654 43.4737 42.0781 43.8604 41.4336C44.2614 40.7891 44.6052 40.1159 44.8916 39.4141C45.1781 38.6979 45.4431 38.0176 45.6866 37.373C45.9014 36.8001 46.0948 36.2272 46.2666 35.6543C46.4385 35.0671 46.6176 34.487 46.8037 33.9141C46.9899 33.3268 47.1905 32.7539 47.4053 32.1953C47.6202 31.6224 47.8708 31.0638 48.1573 30.5195C47.7562 30.7487 47.348 30.9635 46.9327 31.1641C46.5173 31.3503 46.1162 31.5651 45.7295 31.8086C45.1566 32.1667 44.5909 32.582 44.0323 33.0547C43.4737 33.513 43.0511 34.0645 42.7647 34.709C42.6931 34.8665 42.6429 35.0241 42.6143 35.1816C42.5857 35.3392 42.5498 35.4967 42.5069 35.6543C42.4926 35.7116 42.4567 35.7617 42.3995 35.8047C42.3422 35.8333 42.2849 35.8477 42.2276 35.8477C42.0987 35.8477 42.0056 35.8118 41.9483 35.7402C41.9053 35.6686 41.8838 35.5755 41.8838 35.4609C41.8838 34.888 42.0056 34.3509 42.2491 33.8496C42.4926 33.3483 42.8148 32.8828 43.2159 32.4531C43.6312 32.0234 44.0967 31.6224 44.6123 31.25C45.128 30.8776 45.6579 30.541 46.2022 30.2402C46.7608 29.9251 47.3051 29.6458 47.835 29.4023C48.3793 29.1445 48.8734 28.9225 49.3174 28.7363C49.3461 28.722 49.3676 28.7077 49.3819 28.6934C49.4105 28.679 49.4463 28.6719 49.4893 28.6719C49.5752 28.6719 49.654 28.7077 49.7256 28.7793C49.8116 28.8366 49.8545 28.9154 49.8545 29.0156C49.8545 29.0299 49.8187 29.1159 49.7471 29.2734C49.6898 29.431 49.6254 29.61 49.5537 29.8105C49.4821 29.9967 49.4034 30.1829 49.3174 30.3691C49.2458 30.541 49.2028 30.6556 49.1885 30.7129C49.7758 30.0827 50.4274 29.5742 51.1436 29.1875C51.8597 28.8008 52.6547 28.6074 53.5284 28.6074H53.958C54.3304 28.6647 54.6957 28.7721 55.0537 28.9297C55.4118 29.0872 55.7484 29.2878 56.0635 29.5312C56.3786 29.7604 56.6651 30.0254 56.9229 30.3262C57.1807 30.6126 57.3955 30.9206 57.5674 31.25C57.7823 31.6797 57.9398 32.1309 58.0401 32.6035C58.1403 33.0762 58.1905 33.5488 58.1905 34.0215ZM57.0733 34.2363C57.0733 33.6921 56.9873 33.1549 56.8155 32.625C56.6579 32.0807 56.4216 31.6009 56.1065 31.1855C55.7914 30.7559 55.4047 30.4121 54.9463 30.1543C54.488 29.8965 53.958 29.7676 53.3565 29.7676C52.9268 29.7676 52.5114 29.8464 52.1104 30.0039C51.7093 30.1471 51.3298 30.3405 50.9717 30.584C50.6136 30.8132 50.2771 31.0781 49.962 31.3789C49.6468 31.6654 49.3604 31.959 49.1026 32.2598C48.988 32.403 48.8376 32.5677 48.6514 32.7539C48.4795 32.9401 48.3506 33.112 48.2647 33.2695C48.236 33.3411 48.2002 33.4414 48.1573 33.5703C48.1143 33.6849 48.0713 33.8138 48.0284 33.957C47.9854 34.0859 47.9424 34.2148 47.8995 34.3438C47.8565 34.4727 47.8207 34.5801 47.792 34.666C47.6202 35.1816 47.4411 35.6973 47.2549 36.2129C47.083 36.7285 46.904 37.2441 46.7178 37.7598C46.3597 38.7051 45.9659 39.6146 45.5362 40.4883C45.1208 41.362 44.6052 42.1927 43.9893 42.9805C44.5336 43.4531 45.1423 43.847 45.8155 44.1621C46.4886 44.4629 47.1905 44.6133 47.9209 44.6133C48.6801 44.6133 49.4105 44.4844 50.1123 44.2266C50.8142 43.9544 51.4802 43.5892 52.1104 43.1309C52.7406 42.6725 53.3207 42.1426 53.8506 41.541C54.3806 40.9251 54.8532 40.2734 55.2686 39.5859C55.684 38.8984 56.0349 38.1966 56.3213 37.4805C56.6078 36.7643 56.8226 36.0625 56.9659 35.375C56.9945 35.1745 57.016 34.9883 57.0303 34.8164C57.059 34.6302 57.0733 34.4368 57.0733 34.2363ZM65.0964 28.9941C65.0964 29.0801 65.0606 29.1803 64.989 29.2949L64.9675 29.3594C64.9961 29.4453 65.0105 29.5098 65.0105 29.5527C64.9102 29.6243 64.8386 29.7031 64.7956 29.7891C64.7527 29.8607 64.6524 29.8965 64.4948 29.8965C64.3659 29.8965 64.237 29.8464 64.1081 29.7461C63.9792 29.6315 63.9148 29.4954 63.9148 29.3379C63.9148 29.0801 63.9362 28.8724 63.9792 28.7148C64.0365 28.543 64.2299 28.457 64.5593 28.457C64.6882 28.457 64.8099 28.5143 64.9245 28.6289C65.0391 28.7435 65.0964 28.8652 65.0964 28.9941ZM64.946 42.7012C64.946 42.7728 64.9245 42.8301 64.8816 42.873C64.6094 43.2025 64.3445 43.5319 64.0866 43.8613C63.8431 44.1764 63.5782 44.4701 63.2917 44.7422C63.0196 45.0143 62.7116 45.2435 62.3679 45.4297C62.0241 45.6302 61.6303 45.7734 61.1862 45.8594C60.7995 45.6875 60.5346 45.4583 60.3913 45.1719C60.2481 44.8997 60.1765 44.5632 60.1765 44.1621V43.3887C60.1765 43.0163 60.2123 42.6296 60.2839 42.2285C60.3698 41.8275 60.4558 41.4408 60.5417 41.0684C60.6706 40.5098 60.8139 39.9082 60.9714 39.2637C61.1433 38.6191 61.3366 37.9818 61.5515 37.3516C61.7806 36.707 62.0385 36.0911 62.3249 35.5039C62.6114 34.9023 62.9336 34.3796 63.2917 33.9355C63.3633 33.8639 63.4349 33.8281 63.5066 33.8281C63.5925 33.8281 63.6784 33.8639 63.7644 33.9355C63.8503 33.9928 63.8933 34.0716 63.8933 34.1719V34.2148C63.6498 34.974 63.3705 35.776 63.0554 36.6211C62.7546 37.4518 62.461 38.304 62.1745 39.1777C61.9024 40.0371 61.6661 40.8965 61.4655 41.7559C61.2793 42.6152 61.1862 43.446 61.1862 44.248C61.1862 44.334 61.1862 44.4557 61.1862 44.6133C61.2006 44.7708 61.2507 44.8711 61.3366 44.9141C61.6517 44.8568 61.9812 44.6921 62.3249 44.4199C62.683 44.1478 63.0124 43.8613 63.3132 43.5605C63.6283 43.2598 63.9004 42.9876 64.1296 42.7441C64.3588 42.5007 64.5163 42.3789 64.6023 42.3789C64.6739 42.3789 64.7455 42.4147 64.8171 42.4863C64.903 42.5579 64.946 42.6296 64.946 42.7012Z" fill="#1C089D"/>
<mask id="path-2-outside-1_13_956" maskUnits="userSpaceOnUse" x="19" y="0" width="31" height="27" fill="black">
<rect fill="white" x="19" width="31" height="27"/>
<path fill-rule="evenodd" clip-rule="evenodd" d="M41.127 2.3231C40.983 1.96058 40.7412 1.64515 40.4285 1.41188C40.1158 1.17861 39.7445 1.03665 39.356 1.00182C38.9733 0.985815 38.5936 1.07579 38.2588 1.26181C37.9239 1.44782 37.647 1.72265 37.4584 2.05603C37.2476 2.4496 37.852 2.801 38.0628 2.40743C38.189 2.18872 38.3718 2.00805 38.5919 1.88438C38.812 1.76071 39.0614 1.69861 39.3138 1.70462C39.5568 1.72781 39.7896 1.81388 39.9892 1.95436C40.1889 2.09485 40.3485 2.28492 40.4524 2.50583C40.4602 2.55443 40.4782 2.60083 40.5051 2.64203C40.5215 2.66713 40.5411 2.68996 40.5632 2.71C39.8569 2.99613 39.1794 3.35129 38.5406 3.77095C38.5356 3.77411 38.5307 3.77735 38.526 3.78065C38.4083 3.59206 38.2671 3.41857 38.1052 3.26458C37.8287 2.97373 37.5379 2.69695 37.2337 2.43527C36.685 1.85647 35.9662 1.46753 35.1815 1.32484C34.8239 1.28032 34.4618 1.36098 34.1569 1.55316C33.852 1.74534 33.623 2.03717 33.5088 2.37905C33.5023 2.4631 33.525 2.54684 33.5731 2.61608C33.6212 2.68531 33.6917 2.73578 33.7728 2.75894C33.8538 2.7821 33.9404 2.77653 34.0178 2.74316C34.0953 2.70978 34.1588 2.65067 34.1976 2.57584L34.2116 2.58989C34.3663 1.97142 35.1534 1.95736 35.6173 2.1682C36.3021 2.52256 36.9166 2.99889 37.4305 3.57381C37.6984 3.79261 37.9104 4.07207 38.0489 4.38907C38.1192 4.69831 37.8241 5.03565 37.6273 5.2465C37.2658 5.62032 36.8099 5.88449 36.312 6.01364C36.1631 5.35325 35.8089 4.75316 35.2955 4.3025C35.2908 4.28034 35.284 4.25862 35.2751 4.23766C35.2566 4.19419 35.2295 4.15488 35.1955 4.1221C34.554 3.26127 33.6519 2.63031 32.6233 2.32292C32.3767 2.25182 32.1153 2.2496 31.8675 2.3165C31.6197 2.38341 31.395 2.51688 31.2177 2.70244C30.8984 3.05497 30.6588 3.47202 30.5149 3.92532C30.4935 4.01473 30.508 4.10896 30.5553 4.1878C30.6026 4.26663 30.6789 4.32378 30.7679 4.347C30.8112 4.35976 30.8567 4.36366 30.9016 4.35848C30.9466 4.3533 30.99 4.33914 31.0293 4.31685C31.0686 4.29456 31.1031 4.26459 31.1306 4.22872C31.1581 4.19285 31.1782 4.15182 31.1895 4.10805H31.1614C31.2731 3.77953 31.4447 3.47452 31.6675 3.20846C31.8075 3.07849 31.9859 2.9973 32.1759 2.97704C32.3659 2.95677 32.5573 2.99851 32.7217 3.09601C33.4967 3.41504 34.173 3.93391 34.6818 4.59942C34.6938 4.65769 34.7229 4.71557 34.7736 4.76854C34.9943 5.00057 35.1964 5.24967 35.378 5.51351C35.5109 5.71808 35.6032 5.94581 35.6503 6.18426C35.5191 6.31932 35.5129 6.56623 35.6315 6.70083C35.6053 6.79164 35.5675 6.87921 35.5186 6.96129C35.4741 7.05204 35.409 7.13111 35.3284 7.19213C35.2478 7.25316 35.1541 7.29444 35.0547 7.31269C34.9646 7.33898 34.8882 7.39888 34.8411 7.47999C34.794 7.56109 34.7799 7.65721 34.8017 7.74843C34.8278 7.8379 34.8884 7.91333 34.9701 7.95815C35.0518 8.00296 35.1479 8.01348 35.2374 7.98738C35.5747 7.88799 35.8694 7.67952 36.0755 7.39462C36.2199 7.19498 36.3149 6.96573 36.3551 6.72548C36.8811 6.61254 37.3754 6.37637 37.7959 6.03364C38.2638 5.66424 38.7857 5.05754 38.7662 4.43087C38.8076 4.4234 38.85 4.40561 38.892 4.37537C39.8866 3.73508 40.9784 3.26038 42.125 2.96976C42.1427 2.96057 42.1595 2.94999 42.1753 2.93817C42.1912 2.94038 42.2074 2.9415 42.2236 2.9415H42.8281L43.1513 3.02584H43.3903C43.4888 3.07366 43.5829 3.13009 43.6714 3.1945L43.7979 3.27886H43.8682C44.025 3.40909 44.159 3.5644 44.2649 3.73844C43.4793 4.51576 42.7327 5.33209 42.0125 6.17468C41.9481 6.24037 41.912 6.32868 41.912 6.42066C41.912 6.51265 41.9481 6.60094 42.0125 6.66663C42.0805 6.73192 42.1712 6.76838 42.2655 6.76838C42.3598 6.76838 42.4505 6.73192 42.5185 6.66663C43.166 5.89461 43.8576 5.14466 44.5738 4.42653C45.3343 5.43796 45.7323 6.67816 45.7005 7.94627C45.0104 8.66098 44.2763 9.33207 43.5025 9.9556C43.4689 9.98715 43.4421 10.0252 43.4238 10.0676C43.4055 10.1099 43.396 10.1555 43.396 10.2016C43.396 10.2477 43.4055 10.2933 43.4238 10.3356C43.4421 10.3779 43.4689 10.416 43.5025 10.4475C43.5698 10.5088 43.6575 10.5427 43.7485 10.5427C43.8395 10.5427 43.9272 10.5088 43.9945 10.4475C44.8052 9.79797 45.5727 9.0963 46.2919 8.34702C46.7425 9.04129 47.1123 9.78489 47.3941 10.5634L37.3383 18.8398C36.3262 18.5713 35.3776 18.1028 34.5489 17.4615C34.4657 17.4181 34.3694 17.407 34.2786 17.4303C34.1877 17.4537 34.1088 17.5098 34.0569 17.588C34.0275 17.6488 34.015 17.7159 34.0202 17.7824L28.1557 25.8306L20.8283 19.4275C24.2284 17.0225 27.4643 14.3935 30.5146 11.5576C30.5415 11.533 30.5631 11.5073 30.5799 11.4808C31.0128 11.5034 31.4456 11.4145 31.8361 11.2208C32.0288 11.1148 32.1885 10.9576 32.2976 10.7666C32.3625 10.6531 32.408 10.5302 32.4329 10.403C32.5578 10.5077 32.7436 10.5578 32.8903 10.4757C33.5886 10.2243 34.1693 9.72368 34.5208 9.07004C34.6242 8.72232 34.6233 8.35193 34.5184 8.00468C34.4135 7.65742 34.209 7.34853 33.9304 7.11624C32.7527 5.95112 31.4355 4.93608 30.0087 4.09418C29.9295 4.05835 29.8397 4.0532 29.7569 4.07972C29.6855 4.10258 29.6236 4.14757 29.5799 4.2077C29.5487 4.21252 29.518 4.22156 29.4888 4.23477C29.0443 4.53349 28.7145 4.97445 28.5536 5.48527C28.4437 5.83403 28.417 6.20122 28.4726 6.55808C28.4035 6.56333 28.3345 6.57137 28.2658 6.58223C28.0647 6.63743 27.8783 6.73671 27.7203 6.87285C27.5623 7.009 27.4365 7.1786 27.3522 7.36937C27.2786 7.60217 27.2556 7.84801 27.2847 8.09041C27.3138 8.33282 27.3943 8.5662 27.5208 8.77499C27.8043 9.27317 28.1337 9.74376 28.5048 10.1806C28.8515 10.6161 29.2512 11.0067 29.6945 11.3434C26.6856 14.1165 23.4992 16.6907 20.1553 19.0495C20.0223 19.1467 19.9861 19.2885 20.0108 19.4168C19.9828 19.5183 20.0067 19.6312 20.1132 19.7244L27.9143 26.5416C28.0891 26.7018 28.3053 26.6432 28.4263 26.5085C28.5021 26.4908 28.5743 26.4478 28.6312 26.373L34.468 18.3491C35.3175 18.9169 36.2641 19.3261 37.2617 19.5559C37.3069 19.5679 37.3541 19.5708 37.4005 19.5646C37.4428 19.5589 37.4838 19.5457 37.5214 19.5255C37.5863 19.519 37.6517 19.4934 37.7117 19.4434V19.4294L38.1517 19.0671C39.2392 21.5136 40.4456 23.9071 41.7318 26.2607C41.7934 26.3684 41.8834 26.4172 41.9773 26.4237C42.0933 26.476 42.2335 26.4705 42.3501 26.359L49.3781 20.0056C49.6838 19.7255 49.3088 19.2954 48.9847 19.4364L43.9524 14.6502C43.849 14.5513 43.7269 14.5343 43.6193 14.5671L47.9586 10.9957C47.9689 10.987 47.9786 10.9781 47.9875 10.9691C47.9991 10.9617 48.0104 10.9536 48.0211 10.9449C48.0593 10.9138 48.0905 10.875 48.1127 10.8311C48.135 10.7872 48.1478 10.7391 48.1502 10.69C48.1527 10.6408 48.1448 10.5917 48.1271 10.5457C47.7901 9.54846 47.3171 8.60246 46.7215 7.73451C46.7012 7.6897 46.6718 7.64965 46.6351 7.61693C46.5984 7.58421 46.5552 7.55956 46.5084 7.54457C46.5014 7.54234 46.4944 7.54034 46.4874 7.53855C46.4586 7.51937 46.4271 7.50458 46.3941 7.49462C46.3213 6.10753 45.802 4.77512 44.9057 3.70064C44.9094 3.69073 44.9125 3.68061 44.9153 3.67033C44.9193 3.655 44.9223 3.6395 44.9242 3.62394L44.9365 3.64431L44.9263 3.60119C44.9304 3.53332 44.9146 3.46518 44.8803 3.40536L44.9263 3.60119C44.9259 3.60878 44.9252 3.61637 44.9242 3.62394C44.6485 3.16935 44.2529 2.79929 43.7805 2.55456C43.3012 2.30618 42.7619 2.19678 42.2236 2.2387C42.1587 2.2387 42.0957 2.25665 42.0412 2.2898C42.0044 2.28107 41.9663 2.27802 41.9282 2.281V2.25288C41.6652 2.32322 41.4051 2.40266 41.1482 2.49102C41.1491 2.48315 41.1498 2.47525 41.1502 2.46731C41.1527 2.41815 41.1448 2.36902 41.127 2.3231ZM43.3831 14.7615L38.7089 18.6086C39.7642 20.9782 40.9197 23.3018 42.1754 25.5796L48.4467 19.8978L43.4463 15.1421C43.3225 15.0236 43.3203 14.8783 43.3831 14.7615ZM32.4074 9.93447C32.4421 9.90662 32.4856 9.88058 32.5389 9.85718C33.1152 9.60417 33.832 9.18248 33.9445 8.62023C34.0447 8.11907 33.5642 7.68491 33.1799 7.33767C33.133 7.29535 33.0876 7.25432 33.0449 7.21462C32.0648 6.31704 31.0044 5.51155 29.8771 4.80823C29.8656 4.81933 29.8533 4.82968 29.8402 4.8392H29.7558L29.6293 4.95163L29.5169 5.06408V5.13436C29.4557 5.22015 29.3994 5.30932 29.3482 5.40143C29.3426 5.44812 29.3426 5.49532 29.3482 5.542V5.69662C29.3548 5.72435 29.3548 5.75323 29.3482 5.78095C29.3415 5.88861 29.3415 5.99658 29.3482 6.10424V6.20264C29.3416 6.23037 29.3416 6.25925 29.3482 6.28698C29.3682 6.3892 29.4012 6.4884 29.4466 6.58214L29.4046 6.6586C29.4822 6.68183 29.5589 6.70877 29.6344 6.7394C30.0678 6.91525 30.4451 7.20596 30.7256 7.58023C31.077 7.94569 31.4003 8.33925 31.7096 8.73282C32.0439 9.06643 32.284 9.48105 32.4074 9.93447ZM28.2658 7.39749C28.4415 7.29136 28.6105 7.24621 28.772 7.24418L28.7766 7.24671C28.8566 7.29059 28.9497 7.30417 29.039 7.28495L29.0499 7.28189C29.3934 7.37781 29.6972 7.6389 29.9526 7.86135C30.5276 8.41227 31.0455 9.01974 31.4987 9.67458C31.7236 9.96976 31.8923 10.279 31.4987 10.5461C31.1368 10.7523 30.7129 10.8222 30.304 10.7429C30.2282 10.7429 30.1652 10.7624 30.115 10.7949C30.0958 10.7754 30.0744 10.7579 30.0509 10.7429C29.4667 10.2616 28.9554 9.69818 28.5329 9.07018C28.2096 8.64849 27.5911 7.80512 28.2658 7.39749Z"/>
</mask>
<path fill-rule="evenodd" clip-rule="evenodd" d="M41.127 2.3231C40.983 1.96058 40.7412 1.64515 40.4285 1.41188C40.1158 1.17861 39.7445 1.03665 39.356 1.00182C38.9733 0.985815 38.5936 1.07579 38.2588 1.26181C37.9239 1.44782 37.647 1.72265 37.4584 2.05603C37.2476 2.4496 37.852 2.801 38.0628 2.40743C38.189 2.18872 38.3718 2.00805 38.5919 1.88438C38.812 1.76071 39.0614 1.69861 39.3138 1.70462C39.5568 1.72781 39.7896 1.81388 39.9892 1.95436C40.1889 2.09485 40.3485 2.28492 40.4524 2.50583C40.4602 2.55443 40.4782 2.60083 40.5051 2.64203C40.5215 2.66713 40.5411 2.68996 40.5632 2.71C39.8569 2.99613 39.1794 3.35129 38.5406 3.77095C38.5356 3.77411 38.5307 3.77735 38.526 3.78065C38.4083 3.59206 38.2671 3.41857 38.1052 3.26458C37.8287 2.97373 37.5379 2.69695 37.2337 2.43527C36.685 1.85647 35.9662 1.46753 35.1815 1.32484C34.8239 1.28032 34.4618 1.36098 34.1569 1.55316C33.852 1.74534 33.623 2.03717 33.5088 2.37905C33.5023 2.4631 33.525 2.54684 33.5731 2.61608C33.6212 2.68531 33.6917 2.73578 33.7728 2.75894C33.8538 2.7821 33.9404 2.77653 34.0178 2.74316C34.0953 2.70978 34.1588 2.65067 34.1976 2.57584L34.2116 2.58989C34.3663 1.97142 35.1534 1.95736 35.6173 2.1682C36.3021 2.52256 36.9166 2.99889 37.4305 3.57381C37.6984 3.79261 37.9104 4.07207 38.0489 4.38907C38.1192 4.69831 37.8241 5.03565 37.6273 5.2465C37.2658 5.62032 36.8099 5.88449 36.312 6.01364C36.1631 5.35325 35.8089 4.75316 35.2955 4.3025C35.2908 4.28034 35.284 4.25862 35.2751 4.23766C35.2566 4.19419 35.2295 4.15488 35.1955 4.1221C34.554 3.26127 33.6519 2.63031 32.6233 2.32292C32.3767 2.25182 32.1153 2.2496 31.8675 2.3165C31.6197 2.38341 31.395 2.51688 31.2177 2.70244C30.8984 3.05497 30.6588 3.47202 30.5149 3.92532C30.4935 4.01473 30.508 4.10896 30.5553 4.1878C30.6026 4.26663 30.6789 4.32378 30.7679 4.347C30.8112 4.35976 30.8567 4.36366 30.9016 4.35848C30.9466 4.3533 30.99 4.33914 31.0293 4.31685C31.0686 4.29456 31.1031 4.26459 31.1306 4.22872C31.1581 4.19285 31.1782 4.15182 31.1895 4.10805H31.1614C31.2731 3.77953 31.4447 3.47452 31.6675 3.20846C31.8075 3.07849 31.9859 2.9973 32.1759 2.97704C32.3659 2.95677 32.5573 2.99851 32.7217 3.09601C33.4967 3.41504 34.173 3.93391 34.6818 4.59942C34.6938 4.65769 34.7229 4.71557 34.7736 4.76854C34.9943 5.00057 35.1964 5.24967 35.378 5.51351C35.5109 5.71808 35.6032 5.94581 35.6503 6.18426C35.5191 6.31932 35.5129 6.56623 35.6315 6.70083C35.6053 6.79164 35.5675 6.87921 35.5186 6.96129C35.4741 7.05204 35.409 7.13111 35.3284 7.19213C35.2478 7.25316 35.1541 7.29444 35.0547 7.31269C34.9646 7.33898 34.8882 7.39888 34.8411 7.47999C34.794 7.56109 34.7799 7.65721 34.8017 7.74843C34.8278 7.8379 34.8884 7.91333 34.9701 7.95815C35.0518 8.00296 35.1479 8.01348 35.2374 7.98738C35.5747 7.88799 35.8694 7.67952 36.0755 7.39462C36.2199 7.19498 36.3149 6.96573 36.3551 6.72548C36.8811 6.61254 37.3754 6.37637 37.7959 6.03364C38.2638 5.66424 38.7857 5.05754 38.7662 4.43087C38.8076 4.4234 38.85 4.40561 38.892 4.37537C39.8866 3.73508 40.9784 3.26038 42.125 2.96976C42.1427 2.96057 42.1595 2.94999 42.1753 2.93817C42.1912 2.94038 42.2074 2.9415 42.2236 2.9415H42.8281L43.1513 3.02584H43.3903C43.4888 3.07366 43.5829 3.13009 43.6714 3.1945L43.7979 3.27886H43.8682C44.025 3.40909 44.159 3.5644 44.2649 3.73844C43.4793 4.51576 42.7327 5.33209 42.0125 6.17468C41.9481 6.24037 41.912 6.32868 41.912 6.42066C41.912 6.51265 41.9481 6.60094 42.0125 6.66663C42.0805 6.73192 42.1712 6.76838 42.2655 6.76838C42.3598 6.76838 42.4505 6.73192 42.5185 6.66663C43.166 5.89461 43.8576 5.14466 44.5738 4.42653C45.3343 5.43796 45.7323 6.67816 45.7005 7.94627C45.0104 8.66098 44.2763 9.33207 43.5025 9.9556C43.4689 9.98715 43.4421 10.0252 43.4238 10.0676C43.4055 10.1099 43.396 10.1555 43.396 10.2016C43.396 10.2477 43.4055 10.2933 43.4238 10.3356C43.4421 10.3779 43.4689 10.416 43.5025 10.4475C43.5698 10.5088 43.6575 10.5427 43.7485 10.5427C43.8395 10.5427 43.9272 10.5088 43.9945 10.4475C44.8052 9.79797 45.5727 9.0963 46.2919 8.34702C46.7425 9.04129 47.1123 9.78489 47.3941 10.5634L37.3383 18.8398C36.3262 18.5713 35.3776 18.1028 34.5489 17.4615C34.4657 17.4181 34.3694 17.407 34.2786 17.4303C34.1877 17.4537 34.1088 17.5098 34.0569 17.588C34.0275 17.6488 34.015 17.7159 34.0202 17.7824L28.1557 25.8306L20.8283 19.4275C24.2284 17.0225 27.4643 14.3935 30.5146 11.5576C30.5415 11.533 30.5631 11.5073 30.5799 11.4808C31.0128 11.5034 31.4456 11.4145 31.8361 11.2208C32.0288 11.1148 32.1885 10.9576 32.2976 10.7666C32.3625 10.6531 32.408 10.5302 32.4329 10.403C32.5578 10.5077 32.7436 10.5578 32.8903 10.4757C33.5886 10.2243 34.1693 9.72368 34.5208 9.07004C34.6242 8.72232 34.6233 8.35193 34.5184 8.00468C34.4135 7.65742 34.209 7.34853 33.9304 7.11624C32.7527 5.95112 31.4355 4.93608 30.0087 4.09418C29.9295 4.05835 29.8397 4.0532 29.7569 4.07972C29.6855 4.10258 29.6236 4.14757 29.5799 4.2077C29.5487 4.21252 29.518 4.22156 29.4888 4.23477C29.0443 4.53349 28.7145 4.97445 28.5536 5.48527C28.4437 5.83403 28.417 6.20122 28.4726 6.55808C28.4035 6.56333 28.3345 6.57137 28.2658 6.58223C28.0647 6.63743 27.8783 6.73671 27.7203 6.87285C27.5623 7.009 27.4365 7.1786 27.3522 7.36937C27.2786 7.60217 27.2556 7.84801 27.2847 8.09041C27.3138 8.33282 27.3943 8.5662 27.5208 8.77499C27.8043 9.27317 28.1337 9.74376 28.5048 10.1806C28.8515 10.6161 29.2512 11.0067 29.6945 11.3434C26.6856 14.1165 23.4992 16.6907 20.1553 19.0495C20.0223 19.1467 19.9861 19.2885 20.0108 19.4168C19.9828 19.5183 20.0067 19.6312 20.1132 19.7244L27.9143 26.5416C28.0891 26.7018 28.3053 26.6432 28.4263 26.5085C28.5021 26.4908 28.5743 26.4478 28.6312 26.373L34.468 18.3491C35.3175 18.9169 36.2641 19.3261 37.2617 19.5559C37.3069 19.5679 37.3541 19.5708 37.4005 19.5646C37.4428 19.5589 37.4838 19.5457 37.5214 19.5255C37.5863 19.519 37.6517 19.4934 37.7117 19.4434V19.4294L38.1517 19.0671C39.2392 21.5136 40.4456 23.9071 41.7318 26.2607C41.7934 26.3684 41.8834 26.4172 41.9773 26.4237C42.0933 26.476 42.2335 26.4705 42.3501 26.359L49.3781 20.0056C49.6838 19.7255 49.3088 19.2954 48.9847 19.4364L43.9524 14.6502C43.849 14.5513 43.7269 14.5343 43.6193 14.5671L47.9586 10.9957C47.9689 10.987 47.9786 10.9781 47.9875 10.9691C47.9991 10.9617 48.0104 10.9536 48.0211 10.9449C48.0593 10.9138 48.0905 10.875 48.1127 10.8311C48.135 10.7872 48.1478 10.7391 48.1502 10.69C48.1527 10.6408 48.1448 10.5917 48.1271 10.5457C47.7901 9.54846 47.3171 8.60246 46.7215 7.73451C46.7012 7.6897 46.6718 7.64965 46.6351 7.61693C46.5984 7.58421 46.5552 7.55956 46.5084 7.54457C46.5014 7.54234 46.4944 7.54034 46.4874 7.53855C46.4586 7.51937 46.4271 7.50458 46.3941 7.49462C46.3213 6.10753 45.802 4.77512 44.9057 3.70064C44.9094 3.69073 44.9125 3.68061 44.9153 3.67033C44.9193 3.655 44.9223 3.6395 44.9242 3.62394L44.9365 3.64431L44.9263 3.60119C44.9304 3.53332 44.9146 3.46518 44.8803 3.40536L44.9263 3.60119C44.9259 3.60878 44.9252 3.61637 44.9242 3.62394C44.6485 3.16935 44.2529 2.79929 43.7805 2.55456C43.3012 2.30618 42.7619 2.19678 42.2236 2.2387C42.1587 2.2387 42.0957 2.25665 42.0412 2.2898C42.0044 2.28107 41.9663 2.27802 41.9282 2.281V2.25288C41.6652 2.32322 41.4051 2.40266 41.1482 2.49102C41.1491 2.48315 41.1498 2.47525 41.1502 2.46731C41.1527 2.41815 41.1448 2.36902 41.127 2.3231ZM43.3831 14.7615L38.7089 18.6086C39.7642 20.9782 40.9197 23.3018 42.1754 25.5796L48.4467 19.8978L43.4463 15.1421C43.3225 15.0236 43.3203 14.8783 43.3831 14.7615ZM32.4074 9.93447C32.4421 9.90662 32.4856 9.88058 32.5389 9.85718C33.1152 9.60417 33.832 9.18248 33.9445 8.62023C34.0447 8.11907 33.5642 7.68491 33.1799 7.33767C33.133 7.29535 33.0876 7.25432 33.0449 7.21462C32.0648 6.31704 31.0044 5.51155 29.8771 4.80823C29.8656 4.81933 29.8533 4.82968 29.8402 4.8392H29.7558L29.6293 4.95163L29.5169 5.06408V5.13436C29.4557 5.22015 29.3994 5.30932 29.3482 5.40143C29.3426 5.44812 29.3426 5.49532 29.3482 5.542V5.69662C29.3548 5.72435 29.3548 5.75323 29.3482 5.78095C29.3415 5.88861 29.3415 5.99658 29.3482 6.10424V6.20264C29.3416 6.23037 29.3416 6.25925 29.3482 6.28698C29.3682 6.3892 29.4012 6.4884 29.4466 6.58214L29.4046 6.6586C29.4822 6.68183 29.5589 6.70877 29.6344 6.7394C30.0678 6.91525 30.4451 7.20596 30.7256 7.58023C31.077 7.94569 31.4003 8.33925 31.7096 8.73282C32.0439 9.06643 32.284 9.48105 32.4074 9.93447ZM28.2658 7.39749C28.4415 7.29136 28.6105 7.24621 28.772 7.24418L28.7766 7.24671C28.8566 7.29059 28.9497 7.30417 29.039 7.28495L29.0499 7.28189C29.3934 7.37781 29.6972 7.6389 29.9526 7.86135C30.5276 8.41227 31.0455 9.01974 31.4987 9.67458C31.7236 9.96976 31.8923 10.279 31.4987 10.5461C31.1368 10.7523 30.7129 10.8222 30.304 10.7429C30.2282 10.7429 30.1652 10.7624 30.115 10.7949C30.0958 10.7754 30.0744 10.7579 30.0509 10.7429C29.4667 10.2616 28.9554 9.69818 28.5329 9.07018C28.2096 8.64849 27.5911 7.80512 28.2658 7.39749Z" fill="#1C089D"/>
<path d="M41.127 2.3231L41.2203 2.28707L41.22 2.28616L41.127 2.3231ZM40.4285 1.41188L40.4883 1.33173L40.4285 1.41188ZM39.356 1.00182L39.3649 0.902103L39.3602 0.901904L39.356 1.00182ZM38.2588 1.26181L38.3073 1.34922L38.2588 1.26181ZM37.4584 2.05603L37.3714 2.00678L37.3703 2.0088L37.4584 2.05603ZM38.0628 2.40743L37.9762 2.35743L37.9747 2.36021L38.0628 2.40743ZM38.5919 1.88438L38.5429 1.79719V1.79719L38.5919 1.88438ZM39.3138 1.70462L39.3234 1.60482L39.3162 1.60465L39.3138 1.70462ZM40.4524 2.50583L40.5511 2.48986C40.5496 2.48066 40.5468 2.47172 40.5429 2.46328L40.4524 2.50583ZM40.5051 2.64203L40.5888 2.5873V2.5873L40.5051 2.64203ZM40.5632 2.71L40.6007 2.80268C40.6326 2.78976 40.6556 2.76137 40.6616 2.7275C40.6676 2.69363 40.6558 2.65905 40.6303 2.63593L40.5632 2.71ZM38.5406 3.77095L38.5939 3.85559L38.5955 3.85453L38.5406 3.77095ZM38.526 3.78065L38.4411 3.83357C38.4556 3.85677 38.4789 3.87304 38.5057 3.87857C38.5325 3.88411 38.5604 3.87844 38.5829 3.86287L38.526 3.78065ZM38.1052 3.26458L38.0326 3.33356L38.0363 3.33703L38.1052 3.26458ZM37.2337 2.43527L37.1608 2.50443L37.1685 2.51108L37.2337 2.43527ZM35.1815 1.32484L35.1994 1.2263L35.1939 1.22561L35.1815 1.32484ZM34.1569 1.55316L34.1036 1.46856L34.1569 1.55316ZM33.5088 2.37905L33.414 2.34739C33.4114 2.35512 33.4098 2.36313 33.4091 2.37126L33.5088 2.37905ZM33.5731 2.61608L33.4909 2.67313L33.4909 2.67314L33.5731 2.61608ZM33.7728 2.75894L33.7453 2.85509L33.7453 2.85509L33.7728 2.75894ZM34.0178 2.74316L34.0574 2.83499L34.0574 2.83499L34.0178 2.74316ZM34.1976 2.57584L34.2682 2.50508C34.2457 2.48256 34.2138 2.47214 34.1823 2.47702C34.1508 2.4819 34.1235 2.5015 34.1088 2.52979L34.1976 2.57584ZM34.2116 2.58989L34.141 2.66065C34.1665 2.6861 34.2037 2.69588 34.2384 2.68625C34.2731 2.67662 34.2999 2.64908 34.3087 2.61414L34.2116 2.58989ZM35.6173 2.1682L35.6633 2.07927L35.6586 2.07716L35.6173 2.1682ZM37.4305 3.57381L37.3559 3.64046C37.3594 3.64435 37.3632 3.64797 37.3672 3.65127L37.4305 3.57381ZM38.0489 4.38907L38.1465 4.36691C38.1451 4.36078 38.1431 4.35479 38.1406 4.34903L38.0489 4.38907ZM37.6273 5.2465L37.6992 5.31602L37.7004 5.31473L37.6273 5.2465ZM36.312 6.01364L36.2144 6.03563C36.2204 6.06204 36.2368 6.08492 36.2599 6.09902C36.283 6.11311 36.3109 6.11724 36.3371 6.11044L36.312 6.01364ZM35.2955 4.3025L35.1976 4.32318C35.2021 4.3443 35.2133 4.36341 35.2295 4.37766L35.2955 4.3025ZM35.2751 4.23766L35.3671 4.19855L35.3671 4.19854L35.2751 4.23766ZM35.1955 4.1221L35.1153 4.18186C35.1186 4.18623 35.1222 4.19032 35.1261 4.1941L35.1955 4.1221ZM32.6233 2.32292L32.6519 2.2271L32.651 2.22683L32.6233 2.32292ZM31.8675 2.3165L31.8936 2.41305V2.41305L31.8675 2.3165ZM31.2177 2.70244L31.1453 2.63333L31.1435 2.63532L31.2177 2.70244ZM30.5149 3.92532L30.4193 3.89498L30.4176 3.90207L30.5149 3.92532ZM30.5553 4.1878L30.6411 4.13635L30.6411 4.13635L30.5553 4.1878ZM30.7679 4.347L30.7961 4.25102L30.7931 4.25025L30.7679 4.347ZM30.9016 4.35848L30.9131 4.45782L30.9016 4.35848ZM31.0293 4.31685L31.0786 4.40385L31.0786 4.40385L31.0293 4.31685ZM31.1306 4.22872L31.0513 4.16784L31.0513 4.16784L31.1306 4.22872ZM31.1895 4.10805L31.2863 4.13316C31.2941 4.1032 31.2875 4.07134 31.2686 4.04686C31.2497 4.02238 31.2205 4.00805 31.1895 4.00805V4.10805ZM31.1614 4.10805L31.0667 4.07586C31.0564 4.10639 31.0613 4.14006 31.0801 4.16628C31.0989 4.1925 31.1292 4.20805 31.1614 4.20805V4.10805ZM31.6675 3.20846L31.5989 3.13457L31.5908 3.14427L31.6675 3.20846ZM32.7217 3.09601L32.6706 3.18201C32.6748 3.18448 32.6791 3.18664 32.6836 3.18848L32.7217 3.09601ZM34.6818 4.59942L34.7797 4.57929C34.7767 4.56453 34.7704 4.55065 34.7612 4.53869L34.6818 4.59942ZM34.7736 4.76854L34.846 4.69961L34.8458 4.69941L34.7736 4.76854ZM35.378 5.51351L35.4619 5.45901L35.4604 5.45682L35.378 5.51351ZM35.6503 6.18426L35.722 6.25392C35.7449 6.23037 35.7548 6.19708 35.7484 6.16487L35.6503 6.18426ZM35.6315 6.70083L35.7276 6.72856C35.737 6.69574 35.7291 6.66035 35.7065 6.63472L35.6315 6.70083ZM35.5186 6.96129L35.4324 6.90993L35.4288 6.91728L35.5186 6.96129ZM35.3284 7.19213L35.268 7.11242L35.268 7.11242L35.3284 7.19213ZM35.0547 7.31269L35.0365 7.21382L35.0266 7.2167L35.0547 7.31269ZM34.8411 7.47999L34.9276 7.5302L34.8411 7.47999ZM34.8017 7.74843L34.7043 7.7717L34.7057 7.77643L34.8017 7.74843ZM34.9701 7.95815L34.922 8.04583V8.04583L34.9701 7.95815ZM35.2374 7.98738L35.2654 8.08338L35.2657 8.0833L35.2374 7.98738ZM36.0755 7.39462L35.9944 7.33602V7.33602L36.0755 7.39462ZM36.3551 6.72548L36.3341 6.62771C36.294 6.63632 36.2632 6.66855 36.2564 6.70901L36.3551 6.72548ZM37.7959 6.03364L37.734 5.95514L37.7328 5.95612L37.7959 6.03364ZM38.7662 4.43087L38.7484 4.33246C38.6996 4.34126 38.6647 4.38445 38.6662 4.43399L38.7662 4.43087ZM38.892 4.37537L38.8378 4.29118L38.8336 4.29422L38.892 4.37537ZM42.125 2.96976L42.1495 3.0667C42.157 3.06481 42.1642 3.06207 42.171 3.05853L42.125 2.96976ZM42.1753 2.93817L42.1891 2.83912C42.163 2.8355 42.1366 2.84231 42.1155 2.85806L42.1753 2.93817ZM42.8281 2.9415L42.8533 2.84474C42.8451 2.84259 42.8366 2.8415 42.8281 2.8415V2.9415ZM43.1513 3.02584L43.1261 3.1226C43.1343 3.12475 43.1428 3.12584 43.1513 3.12584V3.02584ZM43.3903 3.02584L43.434 2.93588C43.4204 2.92927 43.4054 2.92584 43.3903 2.92584V3.02584ZM43.6714 3.1945L43.6125 3.27544L43.6159 3.2777L43.6714 3.1945ZM43.7979 3.27886L43.7424 3.36206C43.7589 3.37301 43.7782 3.37886 43.7979 3.37886V3.27886ZM43.8682 3.27886L43.9321 3.20194C43.9142 3.18702 43.8916 3.17886 43.8682 3.17886V3.27886ZM44.2649 3.73844L44.3352 3.80952C44.3681 3.77695 44.3744 3.72604 44.3503 3.68647L44.2649 3.73844ZM42.0125 6.17468L42.084 6.24484L42.0885 6.23966L42.0125 6.17468ZM42.0125 6.66663L41.941 6.73666L41.9432 6.73879L42.0125 6.66663ZM42.5185 6.66663L42.5881 6.73921L42.5951 6.73089L42.5185 6.66663ZM44.5738 4.42653L44.6537 4.36644C44.6363 4.34326 44.6097 4.32879 44.5808 4.32678C44.5518 4.32476 44.5235 4.33539 44.503 4.35592L44.5738 4.42653ZM45.7005 7.94627L45.7724 8.01573C45.7898 7.99771 45.7998 7.97382 45.8005 7.94878L45.7005 7.94627ZM43.5025 9.9556L43.4396 9.87751L43.4341 9.88268L43.5025 9.9556ZM43.4238 10.0676L43.5155 10.1073L43.5155 10.1073L43.4238 10.0676ZM43.4238 10.3356L43.5155 10.2959L43.5155 10.2959L43.4238 10.3356ZM43.5025 10.4475L43.434 10.5205L43.4352 10.5215L43.5025 10.4475ZM43.9945 10.4475L43.9318 10.3694L43.9272 10.3736L43.9945 10.4475ZM46.2919 8.34702L46.3758 8.29258C46.3592 8.26697 46.3318 8.25035 46.3014 8.24747C46.271 8.24458 46.2409 8.25574 46.2198 8.27777L46.2919 8.34702ZM47.3941 10.5634L47.4577 10.6406C47.4903 10.6137 47.5025 10.5692 47.4881 10.5294L47.3941 10.5634ZM37.3383 18.8398L37.3127 18.9364C37.3438 18.9447 37.377 18.9374 37.4019 18.917L37.3383 18.8398ZM34.5489 17.4615L34.6101 17.3824C34.6054 17.3788 34.6004 17.3756 34.5952 17.3729L34.5489 17.4615ZM34.2786 17.4303L34.3035 17.5272H34.3035L34.2786 17.4303ZM34.0569 17.588L33.9728 17.5322L33.9669 17.5445L34.0569 17.588ZM34.0202 17.7824L34.101 17.8413C34.115 17.8221 34.1217 17.7985 34.1199 17.7747L34.0202 17.7824ZM28.1557 25.8306L28.0899 25.9059C28.111 25.9244 28.1389 25.9331 28.1668 25.93C28.1947 25.9269 28.22 25.9122 28.2365 25.8895L28.1557 25.8306ZM20.8283 19.4275L20.7706 19.3458C20.7455 19.3635 20.73 19.3917 20.7284 19.4223C20.7269 19.4529 20.7394 19.4826 20.7625 19.5028L20.8283 19.4275ZM30.5146 11.5576L30.4471 11.4839L30.4465 11.4844L30.5146 11.5576ZM30.5799 11.4808L30.5851 11.381C30.5491 11.3791 30.5149 11.3967 30.4956 11.4271L30.5799 11.4808ZM31.8361 11.2208L31.8806 11.3104L31.8843 11.3084L31.8361 11.2208ZM32.2976 10.7666L32.3845 10.8163L32.2976 10.7666ZM32.4329 10.403L32.4971 10.3264C32.47 10.3037 32.4329 10.297 32.3995 10.3088C32.3662 10.3206 32.3415 10.3491 32.3347 10.3839L32.4329 10.403ZM32.8903 10.4757L32.8564 10.3816C32.8512 10.3834 32.8462 10.3857 32.8414 10.3884L32.8903 10.4757ZM34.5208 9.07004L34.6089 9.1174C34.6121 9.11139 34.6147 9.10507 34.6166 9.09853L34.5208 9.07004ZM34.5184 8.00468L34.6141 7.97575L34.6141 7.97575L34.5184 8.00468ZM33.9304 7.11624L33.8598 7.18758L33.8664 7.19305L33.9304 7.11624ZM30.0087 4.09418L30.0599 4.00754L30.0499 4.00305L30.0087 4.09418ZM29.7569 4.07972L29.7264 3.98448V3.98448L29.7569 4.07972ZM29.5799 4.2077L29.5951 4.30653C29.6214 4.30247 29.6451 4.28806 29.6607 4.26652L29.5799 4.2077ZM29.4888 4.23477L29.4476 4.14365C29.4425 4.14594 29.4376 4.14866 29.433 4.15177L29.4888 4.23477ZM28.5536 5.48527L28.4582 5.45523L28.5536 5.48527ZM28.4726 6.55808L28.4802 6.65779C28.508 6.65568 28.5336 6.64206 28.551 6.6202C28.5683 6.59835 28.5757 6.57025 28.5714 6.5427L28.4726 6.55808ZM28.2658 6.58223L28.2501 6.48285L28.2393 6.4858L28.2658 6.58223ZM27.3522 7.36937L27.2601 7.32869L27.2568 7.33924L27.3522 7.36937ZM27.2847 8.09041L27.384 8.0785V8.0785L27.2847 8.09041ZM27.5208 8.77499L27.6078 8.72552L27.6064 8.72315L27.5208 8.77499ZM28.5048 10.1806L28.583 10.1183L28.581 10.1159L28.5048 10.1806ZM29.6945 11.3434L29.7622 11.417C29.784 11.3969 29.7958 11.3682 29.7944 11.3387C29.793 11.3091 29.7785 11.2817 29.755 11.2638L29.6945 11.3434ZM20.1553 19.0495L20.0976 18.9678L20.0963 18.9688L20.1553 19.0495ZM20.0108 19.4168L20.1072 19.4433C20.1112 19.4285 20.1119 19.413 20.109 19.3979L20.0108 19.4168ZM20.1132 19.7244L20.0474 19.7997L20.0474 19.7997L20.1132 19.7244ZM27.9143 26.5416L27.9819 26.4679L27.9802 26.4663L27.9143 26.5416ZM28.4263 26.5085L28.4035 26.4112C28.3836 26.4158 28.3656 26.4265 28.3519 26.4417L28.4263 26.5085ZM28.6312 26.373L28.7108 26.4335L28.7121 26.4318L28.6312 26.373ZM34.468 18.3491L34.5236 18.2659C34.4789 18.2361 34.4187 18.2468 34.3871 18.2902L34.468 18.3491ZM37.2617 19.5559L37.2874 19.4592L37.2841 19.4584L37.2617 19.5559ZM37.4005 19.5646L37.4138 19.6637H37.4138L37.4005 19.5646ZM37.5214 19.5255L37.5114 19.426C37.4983 19.4273 37.4857 19.4312 37.4742 19.4374L37.5214 19.5255ZM37.7117 19.4434L37.7757 19.5202C37.7985 19.5012 37.8117 19.4731 37.8117 19.4434H37.7117ZM37.7117 19.4294L37.6481 19.3521C37.625 19.3711 37.6117 19.3995 37.6117 19.4294H37.7117ZM38.1517 19.0671L38.2431 19.0265C38.2304 18.998 38.2051 18.977 38.1747 18.9698C38.1443 18.9626 38.1123 18.9701 38.0882 18.9899L38.1517 19.0671ZM41.7318 26.2607L41.644 26.3087L41.645 26.3103L41.7318 26.2607ZM41.9773 26.4237L42.0185 26.3325C42.0077 26.3277 41.9961 26.3247 41.9842 26.3239L41.9773 26.4237ZM42.3501 26.359L42.283 26.2848L42.281 26.2867L42.3501 26.359ZM49.3781 20.0056L49.4452 20.0798L49.4457 20.0793L49.3781 20.0056ZM48.9847 19.4364L48.9158 19.5088C48.9449 19.5365 48.9878 19.5441 49.0246 19.5281L48.9847 19.4364ZM43.9524 14.6502L43.8833 14.7225L43.8835 14.7226L43.9524 14.6502ZM43.6193 14.5671L43.5557 14.4899C43.5189 14.5202 43.5086 14.5724 43.5311 14.6144C43.5537 14.6564 43.6028 14.6767 43.6484 14.6628L43.6193 14.5671ZM47.9586 10.9957L48.0221 11.0729L48.0229 11.0722L47.9586 10.9957ZM47.9875 10.9691L47.9339 10.8847C47.9276 10.8887 47.9217 10.8934 47.9164 10.8988L47.9875 10.9691ZM48.0211 10.9449L47.958 10.8673L48.0211 10.9449ZM48.1127 10.8311L48.0235 10.7859V10.7859L48.1127 10.8311ZM48.1502 10.69L48.2501 10.695V10.695L48.1502 10.69ZM48.1271 10.5457L48.0322 10.5778L48.0338 10.5818L48.1271 10.5457ZM46.7215 7.73451L46.6303 7.77569C46.6328 7.78107 46.6357 7.78622 46.639 7.79109L46.7215 7.73451ZM46.6351 7.61693L46.7016 7.54229L46.7016 7.54229L46.6351 7.61693ZM46.5084 7.54457L46.4779 7.6398L46.4779 7.6398L46.5084 7.54457ZM46.4874 7.53855L46.432 7.62179C46.4414 7.62808 46.4518 7.63271 46.4629 7.6355L46.4874 7.53855ZM46.3941 7.49462L46.2943 7.49987C46.2965 7.54198 46.3249 7.57818 46.3652 7.59036L46.3941 7.49462ZM44.9057 3.70064L44.8118 3.66643C44.7996 3.6999 44.8061 3.73734 44.829 3.7647L44.9057 3.70064ZM44.9153 3.67033L45.0119 3.69591L45.0119 3.69591L44.9153 3.67033ZM44.9365 3.64431L44.8508 3.69582C44.8762 3.73805 44.9285 3.7555 44.9742 3.73695C45.0198 3.71839 45.0451 3.66936 45.0338 3.6214L44.9365 3.64431ZM44.8803 3.40536L44.967 3.35555C44.9422 3.3125 44.8897 3.29411 44.8435 3.31235C44.7973 3.3306 44.7715 3.37995 44.7829 3.42827L44.8803 3.40536ZM43.7805 2.55456L43.7345 2.64335V2.64335L43.7805 2.55456ZM42.2236 2.2387V2.339L42.2314 2.3384L42.2236 2.2387ZM42.0412 2.2898L42.018 2.38709C42.0436 2.39317 42.0706 2.38892 42.0931 2.37525L42.0412 2.2898ZM41.9282 2.281H41.8282C41.8282 2.30888 41.8398 2.33549 41.8603 2.35442C41.8807 2.37335 41.9082 2.38287 41.936 2.3807L41.9282 2.281ZM41.9282 2.25288H42.0282C42.0282 2.2218 42.0137 2.19249 41.9891 2.17356C41.9644 2.15464 41.9323 2.14825 41.9023 2.15628L41.9282 2.25288ZM41.1482 2.49102L41.0489 2.47925C41.0449 2.51342 41.0587 2.54726 41.0854 2.56886C41.1122 2.59046 41.1482 2.59677 41.1807 2.58558L41.1482 2.49102ZM41.1502 2.46731L41.2501 2.47233V2.47232L41.1502 2.46731ZM43.3831 14.7615L43.4712 14.8088C43.4938 14.7668 43.4834 14.7146 43.4465 14.6842C43.4096 14.6539 43.3564 14.654 43.3195 14.6843L43.3831 14.7615ZM38.7089 18.6086L38.6453 18.5314C38.6106 18.56 38.5992 18.6082 38.6175 18.6493L38.7089 18.6086ZM42.1754 25.5796L42.0879 25.6278C42.1026 25.6546 42.1288 25.6732 42.159 25.6782C42.1891 25.6832 42.2199 25.6742 42.2426 25.6537L42.1754 25.5796ZM48.4467 19.8978L48.5138 19.9719C48.5344 19.9533 48.5463 19.9269 48.5466 19.8991C48.547 19.8712 48.5357 19.8445 48.5156 19.8254L48.4467 19.8978ZM43.4463 15.1421L43.3772 15.2144L43.3774 15.2146L43.4463 15.1421ZM32.4074 9.93447L32.311 9.96073C32.3198 9.99327 32.3445 10.0192 32.3765 10.0296C32.4086 10.04 32.4438 10.0336 32.4701 10.0124L32.4074 9.93447ZM32.5389 9.85718L32.5791 9.94874L32.5791 9.94874L32.5389 9.85718ZM33.9445 8.62023L34.0425 8.63984L33.9445 8.62023ZM33.1799 7.33767L33.2469 7.26347L33.1799 7.33767ZM33.0449 7.21462L33.1129 7.14134L33.1124 7.14087L33.0449 7.21462ZM29.8771 4.80823L29.9301 4.72339C29.8912 4.69914 29.8408 4.7044 29.8078 4.73616L29.8771 4.80823ZM29.8402 4.8392V4.9392C29.8613 4.9392 29.8819 4.9325 29.899 4.92007L29.8402 4.8392ZM29.7558 4.8392V4.7392C29.7314 4.7392 29.7077 4.74818 29.6894 4.76445L29.7558 4.8392ZM29.6293 4.95163L29.5628 4.87675L29.5586 4.88092L29.6293 4.95163ZM29.5169 5.06408L29.4462 4.99337C29.4274 5.01213 29.4169 5.03756 29.4169 5.06408H29.5169ZM29.5169 5.13436L29.5983 5.19243C29.6104 5.17548 29.6169 5.15518 29.6169 5.13436H29.5169ZM29.3482 5.40143L29.2608 5.35287C29.2545 5.3642 29.2505 5.37665 29.2489 5.38953L29.3482 5.40143ZM29.3482 5.542H29.4489L29.4475 5.5301L29.3482 5.542ZM29.3482 5.69662H29.2482C29.2482 5.70439 29.2491 5.71214 29.2509 5.7197L29.3482 5.69662ZM29.3482 5.78095L29.2509 5.75788C29.2496 5.76342 29.2488 5.76906 29.2484 5.77474L29.3482 5.78095ZM29.3482 6.10424H29.4484L29.448 6.09802L29.3482 6.10424ZM29.3482 6.20264L29.4455 6.22572C29.4473 6.21816 29.4482 6.21041 29.4482 6.20264H29.3482ZM29.3482 6.28698L29.4464 6.26781L29.4455 6.2639L29.3482 6.28698ZM29.4466 6.58214L29.5342 6.63033C29.5498 6.60194 29.5507 6.56774 29.5366 6.53857L29.4466 6.58214ZM29.4046 6.6586L29.3169 6.61042C29.3024 6.63689 29.3006 6.66854 29.312 6.6965C29.3235 6.72446 29.347 6.74575 29.3759 6.75441L29.4046 6.6586ZM29.6344 6.7394L29.672 6.64674L29.6344 6.7394ZM30.7256 7.58023L30.645 7.64066L30.6535 7.64954L30.7256 7.58023ZM31.7096 8.73282L31.6304 8.79505L31.6389 8.80361L31.7096 8.73282ZM28.2658 7.39749L28.3175 7.48308L28.3175 7.48308L28.2658 7.39749ZM28.772 7.24418L28.8207 7.15683C28.8055 7.14833 28.7883 7.14397 28.7708 7.14419L28.772 7.24418ZM28.7766 7.24671L28.7279 7.33406L28.7285 7.33439L28.7766 7.24671ZM29.039 7.28495L29.0601 7.38288L29.0658 7.38128L29.039 7.28495ZM29.0499 7.28189L29.0768 7.18558C29.0593 7.18067 29.0407 7.18067 29.0231 7.18556L29.0499 7.28189ZM29.9526 7.86135L30.0218 7.78906L30.0182 7.78594L29.9526 7.86135ZM31.4987 9.67458L31.4164 9.73154L31.4192 9.73518L31.4987 9.67458ZM31.4987 10.5461L31.5484 10.6332L31.5549 10.6288L31.4987 10.5461ZM30.304 10.7429L30.323 10.6447C30.3167 10.6435 30.3104 10.6429 30.304 10.6429V10.7429ZM30.115 10.7949L30.0436 10.8649C30.0769 10.8989 30.1295 10.9047 30.1694 10.8789L30.115 10.7949ZM30.0509 10.7429L29.9869 10.8206L29.997 10.8271L30.0509 10.7429ZM28.5329 9.07018L28.616 9.01425L28.6122 9.00933L28.5329 9.07018ZM41.22 2.28616C41.0691 1.90645 40.8158 1.57606 40.4883 1.33173L40.3687 1.49203C40.6665 1.71423 40.8969 2.0147 41.0341 2.36003L41.22 2.28616ZM40.4883 1.33173C40.1608 1.0874 39.7719 0.938702 39.3649 0.902216L39.3471 1.10142C39.7172 1.1346 40.0708 1.26983 40.3687 1.49203L40.4883 1.33173ZM39.3602 0.901904C38.9591 0.885133 38.5611 0.979438 38.2102 1.17439L38.3073 1.34922C38.6261 1.17215 38.9875 1.0865 39.3518 1.10173L39.3602 0.901904ZM38.2102 1.17439C37.8593 1.36935 37.569 1.65739 37.3714 2.00679L37.5455 2.10526C37.725 1.78791 37.9886 1.52629 38.3073 1.34922L38.2102 1.17439ZM37.3703 2.0088C37.2329 2.26519 37.3674 2.50591 37.5522 2.61336C37.6451 2.66738 37.7584 2.6937 37.869 2.67204C37.9827 2.64978 38.0847 2.57838 38.151 2.45465L37.9747 2.36021C37.9355 2.43327 37.8829 2.46552 37.8306 2.47577C37.7752 2.48662 37.7109 2.47428 37.6527 2.44046C37.5353 2.3722 37.4731 2.24043 37.5466 2.10325L37.3703 2.0088ZM38.1494 2.4574C38.2666 2.25426 38.4364 2.08644 38.6409 1.97156L38.5429 1.79719C38.3071 1.92966 38.1114 2.12319 37.9762 2.35746L38.1494 2.4574ZM38.6409 1.97156C38.8453 1.85669 39.077 1.79901 39.3115 1.80459L39.3162 1.60465C39.0458 1.59821 38.7787 1.66473 38.5429 1.79719L38.6409 1.97156ZM39.3043 1.80417C39.5301 1.8257 39.7462 1.90565 39.9317 2.03614L40.0468 1.87258C39.8329 1.7221 39.5836 1.62991 39.3233 1.60507L39.3043 1.80417ZM39.9317 2.03614C40.1171 2.16664 40.2654 2.34319 40.3619 2.54838L40.5429 2.46328C40.4316 2.22665 40.2606 2.02306 40.0468 1.87258L39.9317 2.03614ZM40.3537 2.5218C40.3638 2.5842 40.3868 2.6438 40.4214 2.69675L40.5888 2.5873C40.5696 2.55785 40.5567 2.52466 40.5511 2.48986L40.3537 2.5218ZM40.4214 2.69675C40.4425 2.72899 40.4676 2.75831 40.496 2.78406L40.6303 2.63593C40.6145 2.6216 40.6006 2.60526 40.5888 2.5873L40.4214 2.69675ZM40.5256 2.61732C39.8133 2.90591 39.13 3.26411 38.4857 3.68737L38.5955 3.85453C39.2288 3.43846 39.9005 3.08636 40.6007 2.80268L40.5256 2.61732ZM38.4874 3.68632C38.481 3.6903 38.4749 3.69434 38.469 3.69842L38.5829 3.86287C38.5865 3.86036 38.5902 3.85793 38.5939 3.85558L38.4874 3.68632ZM38.6108 3.72772C38.4887 3.532 38.3421 3.35194 38.1741 3.19212L38.0363 3.33703C38.192 3.48519 38.3279 3.65212 38.4411 3.83357L38.6108 3.72772ZM38.1777 3.19568C37.8989 2.90241 37.6056 2.62332 37.2989 2.35946L37.1685 2.51108C37.4701 2.77058 37.7586 3.04505 38.0327 3.33347L38.1777 3.19568ZM37.3063 2.36647C36.743 1.77225 36.005 1.37295 35.1994 1.22646L35.1636 1.42323C35.9274 1.56212 36.6271 1.94069 37.1611 2.50407L37.3063 2.36647ZM35.1939 1.22561C34.8133 1.17823 34.428 1.26406 34.1036 1.46856L34.2102 1.63776C34.4956 1.4579 34.8344 1.38241 35.1692 1.42408L35.1939 1.22561ZM34.1036 1.46856C33.7791 1.67306 33.5354 1.9836 33.414 2.34739L33.6037 2.41072C33.7105 2.09075 33.9248 1.81762 34.2102 1.63776L34.1036 1.46856ZM33.4091 2.37126C33.4008 2.4783 33.4297 2.58495 33.4909 2.67313L33.6552 2.55902C33.6202 2.50873 33.6038 2.44791 33.6085 2.38685L33.4091 2.37126ZM33.4909 2.67314C33.5522 2.76132 33.6421 2.8256 33.7453 2.85509L33.8003 2.66279C33.7414 2.64597 33.6901 2.60931 33.6552 2.55902L33.4909 2.67314ZM33.7453 2.85509C33.8486 2.88459 33.9588 2.87749 34.0574 2.83499L33.9783 2.65132C33.922 2.67556 33.8591 2.67961 33.8003 2.66279L33.7453 2.85509ZM34.0574 2.83499C34.156 2.79248 34.2369 2.7172 34.2863 2.62189L34.1088 2.52979C34.0806 2.58415 34.0345 2.62709 33.9783 2.65132L34.0574 2.83499ZM34.1269 2.6466L34.141 2.66065L34.2823 2.51912L34.2682 2.50508L34.1269 2.6466ZM34.3087 2.61414C34.3741 2.35257 34.5704 2.21533 34.818 2.16613C35.0694 2.11617 35.3609 2.16153 35.5759 2.25924L35.6586 2.07716C35.4098 1.96403 35.0758 1.911 34.779 1.96997C34.4784 2.02971 34.2039 2.20874 34.1146 2.56563L34.3087 2.61414ZM35.5713 2.25702C36.2454 2.60578 36.8501 3.0746 37.3559 3.64046L37.505 3.50717C36.983 2.92318 36.3589 2.43933 35.6632 2.07938L35.5713 2.25702ZM37.3672 3.65127C37.6229 3.86003 37.8252 4.12666 37.9573 4.42911L38.1406 4.34903C37.9957 4.01748 37.774 3.72519 37.4937 3.49635L37.3672 3.65127ZM37.9514 4.41123C37.978 4.5283 37.9373 4.66191 37.8525 4.80323C37.7688 4.94272 37.6523 5.07311 37.5542 5.17826L37.7004 5.31473C37.799 5.20904 37.9285 5.06533 38.024 4.90613C38.1184 4.74876 38.1901 4.55907 38.1465 4.36691L37.9514 4.41123ZM37.5554 5.17699C37.2068 5.53752 36.7671 5.79229 36.2869 5.91684L36.3371 6.11044C36.8528 5.9767 37.3249 5.70313 37.6992 5.316L37.5554 5.17699ZM36.4095 5.99165C36.2561 5.31075 35.8908 4.69202 35.3614 4.22735L35.2295 4.37766C35.7269 4.81431 36.0702 5.39575 36.2144 6.03563L36.4095 5.99165ZM35.3933 4.28182C35.3873 4.25335 35.3785 4.22546 35.3671 4.19855L35.183 4.27678C35.1894 4.29178 35.1943 4.30732 35.1976 4.32318L35.3933 4.28182ZM35.3671 4.19854C35.3434 4.14272 35.3086 4.09222 35.2649 4.0501L35.1261 4.1941C35.1504 4.21754 35.1698 4.24566 35.183 4.27678L35.3671 4.19854ZM35.2757 4.06234C34.6213 3.18426 33.7012 2.54066 32.6519 2.2271L32.5946 2.41873C33.6027 2.71997 34.4867 3.33828 35.1153 4.18186L35.2757 4.06234ZM32.651 2.22683C32.3868 2.15067 32.1068 2.1483 31.8414 2.21996L31.8936 2.41305C32.1237 2.3509 32.3665 2.35296 32.5956 2.419L32.651 2.22683ZM31.8414 2.21996C31.576 2.29162 31.3353 2.43459 31.1454 2.63335L31.29 2.77153C31.4547 2.59917 31.6634 2.47519 31.8936 2.41305L31.8414 2.21996ZM31.1435 2.63532C30.8147 2.99848 30.5678 3.4281 30.4195 3.89506L30.6102 3.95557C30.7497 3.51594 30.9822 3.11147 31.2918 2.76956L31.1435 2.63532ZM30.4176 3.90207C30.3901 4.01693 30.4088 4.13798 30.4696 4.23925L30.6411 4.13635C30.6072 4.07995 30.5968 4.01253 30.6121 3.94856L30.4176 3.90207ZM30.4696 4.23924C30.5303 4.34051 30.6283 4.41393 30.7426 4.44376L30.7931 4.25025C30.7295 4.23363 30.6749 4.19275 30.6411 4.13635L30.4696 4.23924ZM30.7396 4.44294C30.7959 4.45948 30.8549 4.46454 30.9131 4.45782L30.8902 4.25914C30.8586 4.26278 30.8266 4.26004 30.7961 4.25106L30.7396 4.44294ZM30.9131 4.45782C30.9713 4.4511 31.0276 4.43274 31.0786 4.40385L30.98 4.22985C30.9523 4.24553 30.9218 4.25549 30.8902 4.25914L30.9131 4.45782ZM31.0786 4.40385C31.1296 4.37496 31.1743 4.3361 31.21 4.2896L31.0513 4.16784C31.0319 4.19307 31.0077 4.21416 30.98 4.22985L31.0786 4.40385ZM31.21 4.2896C31.2457 4.24308 31.2716 4.18988 31.2863 4.13316L31.0927 4.08294C31.0847 4.11375 31.0706 4.14262 31.0513 4.16784L31.21 4.2896ZM31.1895 4.00805H31.1614V4.20805H31.1895V4.00805ZM31.2561 4.14025C31.3638 3.82341 31.5293 3.52926 31.7441 3.27265L31.5908 3.14427C31.3601 3.41979 31.1824 3.73565 31.0667 4.07586L31.2561 4.14025ZM31.7355 3.28176C31.8597 3.16647 32.0179 3.09445 32.1865 3.07647L32.1653 2.8776C31.9538 2.90016 31.7553 2.99051 31.5994 3.13516L31.7355 3.28176ZM32.1865 3.07647C32.355 3.05849 32.5249 3.09552 32.6706 3.18201L32.7727 3.01001C32.5898 2.90149 32.3767 2.85505 32.1653 2.8776L32.1865 3.07647ZM32.6836 3.18848C33.4423 3.50078 34.1043 4.00869 34.6023 4.66015L34.7612 4.53869C34.2417 3.85912 33.5512 3.3293 32.7597 3.00354L32.6836 3.18848ZM34.5838 4.61955C34.5998 4.69713 34.6383 4.77177 34.7013 4.83766L34.8458 4.69941C34.8075 4.65936 34.7877 4.61824 34.7797 4.57929L34.5838 4.61955ZM34.7011 4.83746C34.9183 5.06569 35.117 5.31069 35.2956 5.5702L35.4604 5.45682C35.2758 5.18865 35.0704 4.93546 34.846 4.69961L34.7011 4.83746ZM35.2941 5.56799C35.4201 5.76186 35.5075 5.97767 35.5522 6.20365L35.7484 6.16487C35.6988 5.91395 35.6017 5.6743 35.4618 5.45903L35.2941 5.56799ZM35.5786 6.11459C35.4926 6.20306 35.4511 6.3238 35.4473 6.43943C35.4435 6.55477 35.477 6.67673 35.5565 6.76695L35.7065 6.63472C35.6674 6.59033 35.6447 6.52153 35.6472 6.446C35.6496 6.37076 35.6768 6.30051 35.722 6.25392L35.5786 6.11459ZM35.5354 6.67311C35.5116 6.75574 35.4771 6.83542 35.4326 6.91011L35.6045 7.01247C35.6578 6.923 35.699 6.82754 35.7276 6.72856L35.5354 6.67311ZM35.4288 6.91728C35.3912 6.994 35.3361 7.06084 35.268 7.11242L35.3888 7.27184C35.4818 7.20137 35.557 7.11008 35.6084 7.0053L35.4288 6.91728ZM35.268 7.11242C35.1999 7.164 35.1207 7.19891 35.0366 7.21434L35.0727 7.41105C35.1875 7.38998 35.2958 7.34231 35.3888 7.27184L35.268 7.11242ZM35.0266 7.2167C34.912 7.25019 34.8146 7.32648 34.7546 7.42977L34.9276 7.5302C34.9618 7.47128 35.0173 7.42778 35.0827 7.40868L35.0266 7.2167ZM34.7546 7.42977C34.6946 7.53307 34.6767 7.65547 34.7044 7.77167L34.8989 7.72519C34.8831 7.65894 34.8934 7.58912 34.9276 7.5302L34.7546 7.42977ZM34.7057 7.77643C34.7392 7.89138 34.8171 7.98827 34.922 8.04583L35.0182 7.87047C34.9597 7.8384 34.9163 7.78442 34.8977 7.72043L34.7057 7.77643ZM34.922 8.04583C35.027 8.10339 35.1505 8.1169 35.2654 8.08338L35.2094 7.89138C35.1454 7.91005 35.0766 7.90253 35.0182 7.87047L34.922 8.04583ZM35.2657 8.0833C35.6242 7.97766 35.9375 7.75606 36.1565 7.45322L35.9944 7.33602C35.8014 7.60298 35.5252 7.79833 35.2091 7.89146L35.2657 8.0833ZM36.1565 7.45323C36.31 7.24101 36.4111 6.99733 36.4537 6.74195L36.2564 6.70901C36.2188 6.93414 36.1297 7.14895 35.9944 7.33602L36.1565 7.45323ZM36.3761 6.82325C36.9175 6.70701 37.4263 6.46393 37.8591 6.11115L37.7328 5.95612C37.3245 6.28882 36.8447 6.51808 36.3341 6.62771L36.3761 6.82325ZM37.8579 6.11212C38.0978 5.92274 38.3531 5.67143 38.5467 5.3847C38.7399 5.09865 38.8768 4.76965 38.8661 4.42776L38.6662 4.43399C38.6751 4.71876 38.5608 5.00645 38.381 5.27277C38.2016 5.5384 37.962 5.77514 37.734 5.95515L37.8579 6.11212ZM38.7839 4.52929C38.8413 4.51893 38.8974 4.4947 38.9505 4.45653L38.8336 4.29422C38.8026 4.31652 38.7739 4.32786 38.7484 4.33246L38.7839 4.52929ZM38.9462 4.45945C39.9316 3.82502 41.0135 3.35465 42.1495 3.0667L42.1004 2.87283C40.9433 3.1661 39.8415 3.64514 38.8379 4.29129L38.9462 4.45945ZM42.171 3.05853C42.1936 3.04681 42.215 3.03334 42.2352 3.01829L42.1155 2.85806C42.104 2.86664 42.0918 2.87432 42.0789 2.88099L42.171 3.05853ZM42.1616 3.03722C42.182 3.04006 42.2028 3.0415 42.2236 3.0415V2.8415C42.212 2.8415 42.2005 2.8407 42.1891 2.83912L42.1616 3.03722ZM42.2236 3.0415H42.8281V2.8415H42.2236V3.0415ZM42.8028 3.03827L43.1261 3.1226L43.1766 2.92908L42.8533 2.84474L42.8028 3.03827ZM43.3466 3.1158C43.4398 3.16104 43.5288 3.21443 43.6126 3.27537L43.7302 3.11364C43.6369 3.04576 43.5378 2.98628 43.434 2.93588L43.3466 3.1158ZM43.6159 3.2777L43.7424 3.36206L43.8534 3.19566L43.7269 3.11131L43.6159 3.2777ZM43.7979 3.37886H43.8682V3.17886H43.7979V3.37886ZM43.8043 3.35578C43.9526 3.47894 44.0793 3.62581 44.1794 3.7904L44.3503 3.68647C44.2387 3.50298 44.0974 3.33923 43.9321 3.20194L43.8043 3.35578ZM44.1945 3.66735C43.4066 4.44701 42.6582 5.26544 41.9365 6.1097L42.0885 6.23966C42.8073 5.39874 43.552 4.58452 44.3352 3.80952L44.1945 3.66735ZM41.941 6.10468C41.8583 6.18905 41.812 6.3025 41.812 6.42066H42.012C42.012 6.35487 42.0378 6.29168 42.0839 6.24468L41.941 6.10468ZM41.812 6.42066C41.812 6.53883 41.8583 6.65226 41.941 6.73663L42.0839 6.59663C42.0378 6.54963 42.012 6.48646 42.012 6.42066H41.812ZM41.9432 6.73879C42.0299 6.82194 42.1453 6.86838 42.2655 6.86838V6.66838C42.197 6.66838 42.1311 6.6419 42.0817 6.59447L41.9432 6.73879ZM42.2655 6.86838C42.3856 6.86838 42.5011 6.82195 42.5877 6.73879L42.4493 6.59447C42.3998 6.64189 42.334 6.66838 42.2655 6.66838V6.86838ZM42.5951 6.73089C43.2406 5.96128 43.9302 5.21344 44.6446 4.49715L44.503 4.35592C43.785 5.07588 43.0914 5.82794 42.4419 6.60237L42.5951 6.73089ZM44.4939 4.48663C45.2408 5.48007 45.6318 6.69821 45.6005 7.94376L45.8005 7.94878C45.8329 6.65811 45.4277 5.39586 44.6537 4.36644L44.4939 4.48663ZM45.6285 7.87681C44.9414 8.58852 44.2104 9.25681 43.4397 9.87773L43.5652 10.0335C44.3423 9.40733 45.0795 8.73343 45.7724 8.01573L45.6285 7.87681ZM43.4341 9.88268C43.3905 9.92359 43.3557 9.97299 43.332 10.0278L43.5155 10.1073C43.5284 10.0775 43.5473 10.0507 43.5709 10.0285L43.4341 9.88268ZM43.332 10.0278C43.3083 10.0827 43.296 10.1418 43.296 10.2016H43.496C43.496 10.1691 43.5027 10.137 43.5155 10.1073L43.332 10.0278ZM43.296 10.2016C43.296 10.2613 43.3082 10.3205 43.332 10.3753L43.5155 10.2959C43.5027 10.2661 43.496 10.234 43.496 10.2016H43.296ZM43.332 10.3753C43.3557 10.4302 43.3905 10.4796 43.4341 10.5205L43.5709 10.3746C43.5473 10.3524 43.5284 10.3256 43.5155 10.2959L43.332 10.3753ZM43.4352 10.5215C43.5209 10.5995 43.6326 10.6427 43.7485 10.6427V10.4427C43.6824 10.4427 43.6187 10.4181 43.5698 10.3736L43.4352 10.5215ZM43.7485 10.6427C43.8644 10.6427 43.9761 10.5995 44.0618 10.5215L43.9272 10.3736C43.8783 10.4181 43.8146 10.4427 43.7485 10.4427V10.6427ZM44.057 10.5256C44.8711 9.87329 45.6418 9.16868 46.3641 8.41627L46.2198 8.27777C45.5035 9.02391 44.7393 9.72265 43.9319 10.3695L44.057 10.5256ZM46.208 8.40146C46.6544 9.08933 47.0208 9.82609 47.3001 10.5974L47.4881 10.5294C47.2037 9.74368 46.8305 8.99324 46.3758 8.29258L46.208 8.40146ZM47.3306 10.4862L37.2748 18.7626L37.4019 18.917L47.4577 10.6406L47.3306 10.4862ZM37.3639 18.7431C36.3647 18.4781 35.4283 18.0156 34.6101 17.3824L34.4877 17.5406C35.327 18.1901 36.2876 18.6646 37.3127 18.9364L37.3639 18.7431ZM34.5952 17.3729C34.4901 17.318 34.3685 17.304 34.2537 17.3335L34.3035 17.5272C34.3704 17.51 34.4413 17.5181 34.5026 17.5501L34.5952 17.3729ZM34.2537 17.3335C34.1389 17.363 34.0391 17.434 33.9736 17.5327L34.1402 17.6433C34.1784 17.5857 34.2366 17.5444 34.3035 17.5272L34.2537 17.3335ZM33.9669 17.5445C33.9297 17.6213 33.914 17.7061 33.9205 17.7901L34.1199 17.7747C34.1161 17.7257 34.1253 17.6763 34.1469 17.6316L33.9669 17.5445ZM33.9393 17.7235L28.0748 25.7717L28.2365 25.8895L34.101 17.8413L33.9393 17.7235ZM28.2215 25.7553L20.8941 19.3522L20.7625 19.5028L28.0899 25.9059L28.2215 25.7553ZM20.8861 19.5091C24.2897 17.1016 27.5292 14.4697 30.5827 11.6309L30.4465 11.4844C27.3995 14.3172 24.167 16.9435 20.7706 19.3458L20.8861 19.5091ZM30.5822 11.6313C30.615 11.6013 30.6424 11.5689 30.6642 11.5346L30.4956 11.4271C30.4838 11.4456 30.4679 11.4648 30.4471 11.4839L30.5822 11.6313ZM30.5747 11.5807C31.0247 11.6042 31.4746 11.5117 31.8805 11.3103L31.7916 11.1312C31.4166 11.3172 31.0009 11.4027 30.5851 11.381L30.5747 11.5807ZM31.8843 11.3084C32.0931 11.1935 32.2662 11.0232 32.3845 10.8163L32.2108 10.717C32.1108 10.892 31.9645 11.036 31.7879 11.1331L31.8843 11.3084ZM32.3845 10.8163C32.4548 10.6932 32.5041 10.5601 32.531 10.4222L32.3347 10.3839C32.312 10.5004 32.2703 10.613 32.2108 10.717L32.3845 10.8163ZM32.3687 10.4797C32.5128 10.6005 32.7437 10.6723 32.9391 10.5629L32.8414 10.3884C32.7435 10.4432 32.6027 10.4149 32.4971 10.3264L32.3687 10.4797ZM32.9241 10.5697C33.6456 10.31 34.2457 9.79277 34.6089 9.1174L34.4327 9.02268C34.0929 9.65459 33.5315 10.1386 32.8564 10.3816L32.9241 10.5697ZM34.6166 9.09853C34.7256 8.73207 34.7247 8.34172 34.6141 7.97575L34.4227 8.0336C34.5219 8.36214 34.5227 8.71257 34.4249 9.04154L34.6166 9.09853ZM34.6141 7.97575C34.5035 7.60978 34.2881 7.28425 33.9944 7.03943L33.8664 7.19305C34.13 7.41282 34.3234 7.70506 34.4227 8.0336L34.6141 7.97575ZM34.0007 7.04515C32.8172 5.87424 31.4934 4.85414 30.0596 4.00805L29.9579 4.1803C31.3776 5.01801 32.6882 6.02801 33.8601 7.18733L34.0007 7.04515ZM30.0499 4.00305C29.9481 3.95703 29.8328 3.95041 29.7264 3.98448L29.7874 4.17496C29.8466 4.15598 29.9108 4.15967 29.9675 4.1853L30.0499 4.00305ZM29.7264 3.98448C29.6347 4.01385 29.5552 4.07164 29.499 4.14889L29.6607 4.26652C29.692 4.2235 29.7363 4.19131 29.7874 4.17496L29.7264 3.98448ZM29.5646 4.10888C29.5245 4.11507 29.4851 4.12668 29.4476 4.14365L29.53 4.3259C29.5509 4.31645 29.5728 4.30998 29.5951 4.30653L29.5646 4.10888ZM29.433 4.15177C28.9697 4.46315 28.6259 4.92278 28.4582 5.45523L28.649 5.51532C28.8031 5.02612 29.1189 4.60384 29.5446 4.31777L29.433 4.15177ZM28.4582 5.45523C28.3437 5.81876 28.3159 6.20149 28.3738 6.57346L28.5714 6.5427C28.5182 6.20094 28.5438 5.84931 28.649 5.51532L28.4582 5.45523ZM28.465 6.45837C28.3933 6.46382 28.3216 6.47217 28.2502 6.48346L28.2814 6.68101C28.3475 6.67057 28.4138 6.66284 28.4802 6.65779L28.465 6.45837ZM28.2393 6.4858C28.0239 6.54492 27.8243 6.65126 27.655 6.79709L27.7856 6.94861C27.9324 6.82215 28.1054 6.72993 28.2923 6.67867L28.2393 6.4858ZM27.655 6.79709C27.4858 6.94292 27.3511 7.12458 27.2607 7.32894L27.4436 7.40981C27.522 7.23261 27.6388 7.07508 27.7856 6.94861L27.655 6.79709ZM27.2568 7.33924C27.179 7.58562 27.1546 7.84579 27.1854 8.10233L27.384 8.0785C27.3566 7.85022 27.3782 7.61872 27.4475 7.39951L27.2568 7.33924ZM27.1854 8.10232C27.2162 8.35886 27.3014 8.60586 27.4353 8.82682L27.6064 8.72315C27.4872 8.52654 27.4114 8.30677 27.384 8.0785L27.1854 8.10232ZM27.4339 8.82444C27.7204 9.32804 28.0535 9.80375 28.4286 10.2453L28.581 10.1159C28.214 9.68377 27.8881 9.2183 27.6078 8.72554L27.4339 8.82444ZM28.4266 10.2429C28.7785 10.6849 29.1841 11.0813 29.634 11.4231L29.755 11.2638C29.3183 10.9321 28.9246 10.5473 28.583 10.1183L28.4266 10.2429ZM29.6267 11.2699C26.6211 14.0401 23.438 16.6115 20.0976 18.9678L20.2129 19.1313C23.5604 16.7699 26.7502 14.193 29.7622 11.417L29.6267 11.2699ZM20.0963 18.9688C19.9279 19.0919 19.8816 19.2748 19.9126 19.4357L20.109 19.3979C20.0906 19.3023 20.1167 19.2016 20.2143 19.1303L20.0963 18.9688ZM19.9143 19.3903C19.8762 19.5287 19.9119 19.6812 20.0474 19.7997L20.1791 19.6491C20.1014 19.5812 20.0894 19.5078 20.1072 19.4433L19.9143 19.3903ZM20.0474 19.7997L27.8485 26.6169L27.9802 26.4663L20.179 19.6491L20.0474 19.7997ZM27.8468 26.6153C27.9557 26.7152 28.0827 26.75 28.203 26.7349C28.3205 26.7201 28.426 26.6585 28.5007 26.5753L28.3519 26.4417C28.3056 26.4933 28.2425 26.5283 28.178 26.5364C28.1162 26.5442 28.0477 26.5282 27.9819 26.4679L27.8468 26.6153ZM28.4491 26.6059C28.5471 26.583 28.6396 26.5272 28.7108 26.4335L28.5516 26.3125C28.509 26.3685 28.4571 26.3986 28.4035 26.4112L28.4491 26.6059ZM28.7121 26.4318L34.5489 18.4079L34.3871 18.2902L28.5503 26.3142L28.7121 26.4318ZM34.4124 18.4322C35.272 19.0068 36.2298 19.4209 37.2393 19.6533L37.2841 19.4584C36.2983 19.2314 35.363 18.827 34.5236 18.2659L34.4124 18.4322ZM37.2361 19.6525C37.294 19.6679 37.3544 19.6717 37.4138 19.6637L37.3872 19.4655C37.3538 19.47 37.3198 19.4678 37.2873 19.4592L37.2361 19.6525ZM37.4138 19.6637C37.468 19.6564 37.5205 19.6395 37.5686 19.6137L37.4742 19.4374C37.4471 19.4519 37.4177 19.4614 37.3872 19.4655L37.4138 19.6637ZM37.5314 19.625C37.6163 19.6165 37.7004 19.5829 37.7757 19.5202L37.6476 19.3666C37.6029 19.4039 37.5563 19.4215 37.5114 19.426L37.5314 19.625ZM37.8117 19.4434V19.4294H37.6117V19.4434H37.8117ZM37.7752 19.5066L38.2153 19.1444L38.0882 18.9899L37.6481 19.3521L37.7752 19.5066ZM38.0604 19.1078C39.1492 21.5572 40.3568 23.9532 41.6441 26.3087L41.8196 26.2127C40.5344 23.8611 39.3293 21.47 38.2431 19.0265L38.0604 19.1078ZM41.645 26.3103C41.7229 26.4467 41.8428 26.5146 41.9705 26.5234L41.9842 26.3239C41.924 26.3198 41.8638 26.2902 41.8186 26.2111L41.645 26.3103ZM41.9362 26.5148C42.0843 26.5816 42.2694 26.5745 42.4192 26.4313L42.281 26.2867C42.1977 26.3664 42.1023 26.3704 42.0185 26.3325L41.9362 26.5148ZM42.4171 26.4332L49.4452 20.0798L49.3111 19.9314L42.283 26.2848L42.4171 26.4332ZM49.4457 20.0793C49.5403 19.9927 49.5873 19.8886 49.5911 19.7822C49.5948 19.6778 49.5566 19.5799 49.4968 19.5021C49.3797 19.3498 49.1584 19.2517 48.9448 19.3447L49.0246 19.5281C49.1351 19.48 49.2633 19.5266 49.3383 19.624C49.3745 19.6712 49.393 19.7245 49.3912 19.7751C49.3895 19.8237 49.3688 19.8785 49.3106 19.9319L49.4457 20.0793ZM49.0536 19.3639L44.0213 14.5777L43.8835 14.7226L48.9158 19.5088L49.0536 19.3639ZM44.0215 14.5779C43.8901 14.4522 43.7297 14.4289 43.5901 14.4715L43.6484 14.6628C43.7241 14.6397 43.8079 14.6504 43.8833 14.7225L44.0215 14.5779ZM43.6828 14.6444L48.0221 11.0729L47.895 10.9185L43.5557 14.4899L43.6828 14.6444ZM48.0229 11.0722C48.0355 11.0617 48.0474 11.0507 48.0586 11.0394L47.9164 10.8988C47.9097 10.9055 47.9024 10.9123 47.8943 10.9191L48.0229 11.0722ZM48.041 11.0536C48.056 11.0441 48.0704 11.0337 48.0842 11.0224L47.958 10.8673C47.9503 10.8736 47.9423 10.8794 47.9339 10.8847L48.041 11.0536ZM48.0842 11.0224C48.1333 10.9825 48.1734 10.9327 48.2019 10.8763L48.0235 10.7859C48.0076 10.8174 47.9853 10.8451 47.958 10.8673L48.0842 11.0224ZM48.2019 10.8763C48.2305 10.8199 48.2469 10.7581 48.2501 10.695L48.0504 10.6849C48.0486 10.7201 48.0395 10.7545 48.0235 10.7859L48.2019 10.8763ZM48.2501 10.695C48.2533 10.6318 48.2431 10.5687 48.2204 10.5097L48.0338 10.5818C48.0465 10.6146 48.0521 10.6498 48.0504 10.6849L48.2501 10.695ZM48.2218 10.5137C47.8819 9.50773 47.4047 8.55347 46.8039 7.67793L46.639 7.79109C47.2294 8.65146 47.6983 9.58919 48.0323 10.5777L48.2218 10.5137ZM46.8126 7.69333C46.7866 7.63575 46.7487 7.5843 46.7016 7.54229L46.5685 7.69158C46.5948 7.715 46.6159 7.74366 46.6303 7.77569L46.8126 7.69333ZM46.7016 7.54229C46.6545 7.50027 46.5991 7.46859 46.5389 7.44933L46.4779 7.6398C46.5114 7.65053 46.5422 7.66816 46.5685 7.69158L46.7016 7.54229ZM46.5389 7.44933C46.53 7.44647 46.521 7.4439 46.5119 7.44161L46.4629 7.6355C46.4679 7.63678 46.4729 7.63821 46.4779 7.6398L46.5389 7.44933ZM46.5428 7.45532C46.5058 7.43067 46.4654 7.41168 46.423 7.39889L46.3652 7.59036C46.3889 7.59749 46.4113 7.60807 46.432 7.62179L46.5428 7.45532ZM46.494 7.48938C46.42 6.08079 45.8927 4.72772 44.9825 3.63659L44.829 3.7647C45.7113 4.82252 46.2225 6.13428 46.2943 7.49987L46.494 7.48938ZM44.9997 3.73486C45.0044 3.72212 45.0084 3.70912 45.0119 3.69591L44.8186 3.64474C44.8166 3.6521 44.8144 3.65933 44.8118 3.66643L44.9997 3.73486ZM45.0119 3.69591C45.0171 3.67623 45.021 3.65632 45.0235 3.63632L44.825 3.61155C44.8236 3.62268 44.8215 3.63377 44.8186 3.64474L45.0119 3.69591ZM44.8385 3.67545L44.8508 3.69582L45.0222 3.5928L45.01 3.57243L44.8385 3.67545ZM45.0338 3.6214L45.0237 3.57828L44.829 3.6241L44.8392 3.66722L45.0338 3.6214ZM45.0262 3.6071C45.0313 3.51992 45.0111 3.4324 44.967 3.35555L44.7935 3.45517C44.8181 3.49797 44.8294 3.54671 44.8265 3.59528L45.0262 3.6071ZM44.7829 3.42827L44.829 3.6241L45.0237 3.57828L44.9776 3.38245L44.7829 3.42827ZM44.8265 3.59529C44.8262 3.6007 44.8257 3.60612 44.825 3.61154L45.0235 3.63633C45.0247 3.62661 45.0256 3.61686 45.0262 3.60709L44.8265 3.59529ZM45.0098 3.57208C44.7245 3.10179 44.3152 2.71896 43.8265 2.46577L43.7345 2.64335C44.1905 2.87963 44.5726 3.23691 44.8387 3.6758L45.0098 3.57208ZM43.8265 2.46577C43.3306 2.20882 42.7727 2.09564 42.2159 2.139L42.2314 2.3384C42.7511 2.29793 43.2717 2.40355 43.7345 2.64335L43.8265 2.46577ZM42.2236 2.1387C42.1403 2.1387 42.0593 2.16176 41.9892 2.20434L42.0931 2.37525C42.1321 2.35153 42.1772 2.3387 42.2236 2.3387V2.1387ZM42.0643 2.19251C42.0175 2.18139 41.969 2.1775 41.9204 2.18131L41.936 2.3807C41.9637 2.37853 41.9914 2.38075 42.018 2.38709L42.0643 2.19251ZM42.0282 2.281V2.25288H41.8282V2.281H42.0282ZM41.9023 2.15628C41.6371 2.22722 41.3747 2.30734 41.1157 2.39646L41.1807 2.58558C41.4354 2.49798 41.6933 2.41922 41.954 2.34949L41.9023 2.15628ZM41.2475 2.50279C41.2487 2.49267 41.2496 2.48251 41.2501 2.47233L41.0503 2.46229C41.05 2.46798 41.0496 2.47364 41.0489 2.47925L41.2475 2.50279ZM41.2501 2.47232C41.2532 2.40916 41.2431 2.34605 41.2203 2.28707L41.0338 2.35913C41.0464 2.39198 41.0521 2.42713 41.0503 2.4623L41.2501 2.47232ZM43.3195 14.6843L38.6453 18.5314L38.7724 18.6858L43.4466 14.8387L43.3195 14.6843ZM38.6175 18.6493C39.674 21.0215 40.8308 23.3477 42.0879 25.6278L42.263 25.5313C41.0086 23.256 39.8544 20.9349 38.8002 18.5679L38.6175 18.6493ZM42.2426 25.6537L48.5138 19.9719L48.3795 19.8237L42.1083 25.5055L42.2426 25.6537ZM48.5156 19.8254L43.5153 15.0697L43.3774 15.2146L48.3777 19.9703L48.5156 19.8254ZM43.5155 15.0699C43.4281 14.9863 43.427 14.8911 43.4712 14.8088L43.295 14.7142C43.2137 14.8655 43.2169 15.061 43.3772 15.2144L43.5155 15.0699ZM32.4701 10.0124C32.4967 9.99101 32.5323 9.96926 32.5791 9.94874L32.4987 9.76561C32.4388 9.7919 32.3875 9.82224 32.3448 9.8565L32.4701 10.0124ZM32.5791 9.94874C32.8709 9.82061 33.2026 9.64802 33.4772 9.43346C33.7498 9.22041 33.9794 8.95561 34.0425 8.63984L33.8464 8.60062C33.7971 8.8471 33.612 9.07427 33.354 9.27587C33.098 9.47598 32.7831 9.64074 32.4987 9.76561L32.5791 9.94874ZM34.0425 8.63984C34.1005 8.35019 33.9882 8.08774 33.8248 7.86252C33.6619 7.63793 33.4374 7.43559 33.2469 7.26347L33.1128 7.41187C33.3066 7.58699 33.5145 7.77535 33.6629 7.97994C33.8109 8.1839 33.8887 8.38911 33.8464 8.60062L34.0425 8.63984ZM33.2469 7.26347C33.2 7.22106 33.1551 7.1805 33.1129 7.14134L32.9768 7.2879C33.0202 7.32815 33.0661 7.36965 33.1128 7.41187L33.2469 7.26347ZM33.1124 7.14087C32.1278 6.23916 31.0625 5.42995 29.9301 4.72339L29.8242 4.89307C30.9463 5.59315 32.0018 6.39493 32.9773 7.28837L33.1124 7.14087ZM29.8078 4.73616C29.7996 4.74411 29.7907 4.75151 29.7814 4.75832L29.899 4.92007C29.9158 4.90785 29.9316 4.89455 29.9465 4.8803L29.8078 4.73616ZM29.8402 4.7392H29.7558V4.9392H29.8402V4.7392ZM29.6894 4.76445L29.5629 4.87688L29.6958 5.02637L29.8223 4.91394L29.6894 4.76445ZM29.5586 4.88092L29.4462 4.99337L29.5876 5.13478L29.7001 5.02233L29.5586 4.88092ZM29.4169 5.06408V5.13436H29.6169V5.06408H29.4169ZM29.4355 5.0763C29.3721 5.16513 29.3138 5.25746 29.2608 5.35287L29.4356 5.45C29.485 5.36118 29.5393 5.27518 29.5983 5.19243L29.4355 5.0763ZM29.2489 5.38953C29.2424 5.44412 29.2424 5.49931 29.2489 5.55391L29.4475 5.5301C29.4428 5.49132 29.4428 5.45212 29.4475 5.41334L29.2489 5.38953ZM29.2482 5.542V5.69662H29.4482V5.542H29.2482ZM29.2509 5.7197C29.2539 5.73225 29.2539 5.74532 29.2509 5.75788L29.4455 5.80403C29.4557 5.76113 29.4557 5.71645 29.4455 5.67354L29.2509 5.7197ZM29.2484 5.77474C29.2414 5.88654 29.2414 5.99866 29.2484 6.11046L29.448 6.09802C29.4416 5.9945 29.4416 5.89069 29.448 5.78717L29.2484 5.77474ZM29.2482 6.10424V6.20264H29.4482V6.10424H29.2482ZM29.2509 6.17957C29.2407 6.22247 29.2407 6.26715 29.2509 6.31005L29.4455 6.2639C29.4425 6.25135 29.4425 6.23827 29.4455 6.22572L29.2509 6.17957ZM29.2501 6.30613C29.2717 6.41681 29.3075 6.52422 29.3566 6.62571L29.5366 6.53857C29.495 6.45258 29.4646 6.36158 29.4464 6.26783L29.2501 6.30613ZM29.359 6.53396L29.3169 6.61042L29.4922 6.70679L29.5342 6.63033L29.359 6.53396ZM29.3759 6.75441C29.4505 6.77673 29.5242 6.80263 29.5968 6.83207L29.672 6.64674C29.5936 6.61492 29.5139 6.58693 29.4332 6.5628L29.3759 6.75441ZM29.5968 6.83207C30.0134 7.00108 30.376 7.28048 30.6456 7.6402L30.8056 7.52025C30.5142 7.13143 30.1223 6.82942 29.672 6.64674L29.5968 6.83207ZM30.6535 7.64954C31.0015 8.01144 31.3224 8.40197 31.6309 8.7946L31.7882 8.67104C31.4782 8.27653 31.1525 7.87994 30.7977 7.51092L30.6535 7.64954ZM31.6389 8.80361C31.9609 9.12486 32.1921 9.52411 32.311 9.96073L32.5039 9.90821C32.3759 9.43798 32.127 9.00801 31.7802 8.66203L31.6389 8.80361ZM28.3175 7.48308C28.4789 7.38559 28.6306 7.34597 28.7733 7.34418L28.7708 7.14419C28.5903 7.14646 28.4041 7.19713 28.2141 7.3119L28.3175 7.48308ZM28.7234 7.33154L28.7279 7.33406L28.8253 7.15936L28.8207 7.15683L28.7234 7.33154ZM28.7285 7.33439C28.8296 7.38984 28.9473 7.407 29.06 7.38271L29.0179 7.18719C28.9522 7.20135 28.8836 7.19135 28.8247 7.15903L28.7285 7.33439ZM29.0658 7.38128L29.0768 7.37823L29.0231 7.18556L29.0121 7.18862L29.0658 7.38128ZM29.023 7.37821C29.341 7.467 29.628 7.71126 29.8869 7.93675L30.0182 7.78594C29.7663 7.56653 29.4459 7.28862 29.0768 7.18558L29.023 7.37821ZM29.8834 7.93355C30.4535 8.47983 30.9671 9.08217 31.4165 9.73148L31.5809 9.61767C31.124 8.95732 30.6016 8.34471 30.0217 7.78914L29.8834 7.93355ZM31.4192 9.73518C31.5322 9.88356 31.6146 10.016 31.6316 10.135C31.6396 10.1908 31.6329 10.2427 31.6071 10.2936C31.5808 10.3457 31.5311 10.4032 31.4425 10.4633L31.5549 10.6288C31.6631 10.5554 31.7399 10.4741 31.7856 10.3839C31.8319 10.2925 31.8427 10.1985 31.8296 10.1067C31.8045 9.93054 31.6901 9.76078 31.5782 9.61397L31.4192 9.73518ZM31.4492 10.4592C31.108 10.6536 30.7085 10.7194 30.323 10.6447L30.2849 10.841C30.7174 10.9249 31.1655 10.8511 31.5482 10.633L31.4492 10.4592ZM30.304 10.6429C30.2104 10.6429 30.1283 10.6672 30.0606 10.711L30.1694 10.8789C30.2022 10.8576 30.246 10.8429 30.304 10.8429V10.6429ZM30.1864 10.7249C30.162 10.7 30.1347 10.6777 30.1048 10.6586L29.997 10.8271C30.0141 10.838 30.0296 10.8507 30.0436 10.8649L30.1864 10.7249ZM30.1145 10.6657C29.5378 10.1906 29.033 9.63434 28.6158 9.01435L28.4499 9.126C28.8778 9.76202 29.3957 10.3326 29.9873 10.82L30.1145 10.6657ZM28.6122 9.00933C28.4495 8.79703 28.2241 8.49267 28.1194 8.19536C28.0674 8.04759 28.0488 7.91105 28.075 7.79326C28.1004 7.67954 28.1698 7.57231 28.3175 7.48308L28.2141 7.3119C28.0244 7.42649 27.9182 7.57754 27.8798 7.74978C27.8424 7.91794 27.8721 8.09503 27.9308 8.26176C28.0475 8.59347 28.293 8.92163 28.4535 9.13102L28.6122 9.00933ZM43.1513 3.12584H43.3903V2.92584H43.1513V3.12584Z" fill="#1C089D" mask="url(#path-2-outside-1_13_956)"/>
</svg>
